<svg version="1.1" xmlns="http://www.w3.org/2000/svg" xmlns:xlink="http://www.w3.org/1999/xlink" width="652" height="580"><defs/><g><text fill="#eeeeee" stroke="none" font-family="Arial" font-size="24px" font-style="normal" font-weight="normal" text-decoration="none" x="0" y="0">UNREGISTERED</text><text fill="#eeeeee" stroke="none" font-family="Arial" font-size="24px" font-style="normal" font-weight="normal" text-decoration="none" x="0" y="30">UNREGISTERED</text><text fill="#eeeeee" stroke="none" font-family="Arial" font-size="24px" font-style="normal" font-weight="normal" text-decoration="none" x="0" y="60">UNREGISTERED</text><text fill="#eeeeee" stroke="none" font-family="Arial" font-size="24px" font-style="normal" font-weight="normal" text-decoration="none" x="0" y="90">UNREGISTERED</text><text fill="#eeeeee" stroke="none" font-family="Arial" font-size="24px" font-style="normal" font-weight="normal" text-decoration="none" x="0" y="120">UNREGISTERED</text><text fill="#eeeeee" stroke="none" font-family="Arial" font-size="24px" font-style="normal" font-weight="normal" text-decoration="none" x="0" y="150">UNREGISTERED</text><text fill="#eeeeee" stroke="none" font-family="Arial" font-size="24px" font-style="normal" font-weight="normal" text-decoration="none" x="0" y="180">UNREGISTERED</text><text fill="#eeeeee" stroke="none" font-family="Arial" font-size="24px" font-style="normal" font-weight="normal" text-decoration="none" x="0" y="210">UNREGISTERED</text><text fill="#eeeeee" stroke="none" font-family="Arial" font-size="24px" font-style="normal" font-weight="normal" text-decoration="none" x="0" y="240">UNREGISTERED</text><text fill="#eeeeee" stroke="none" font-family="Arial" font-size="24px" font-style="normal" font-weight="normal" text-decoration="none" x="0" y="270">UNREGISTERED</text><text fill="#eeeeee" stroke="none" font-family="Arial" font-size="24px" font-style="normal" font-weight="normal" text-decoration="none" x="0" y="300">UNREGISTERED</text><text fill="#eeeeee" stroke="none" font-family="Arial" font-size="24px" font-style="normal" font-weight="normal" text-decoration="none" x="0" y="330">UNREGISTERED</text><text fill="#eeeeee" stroke="none" font-family="Arial" font-size="24px" font-style="normal" font-weight="normal" text-decoration="none" x="0" y="360">UNREGISTERED</text><text fill="#eeeeee" stroke="none" font-family="Arial" font-size="24px" font-style="normal" font-weight="normal" text-decoration="none" x="0" y="390">UNREGISTERED</text><text fill="#eeeeee" stroke="none" font-family="Arial" font-size="24px" font-style="normal" font-weight="normal" text-decoration="none" x="0" y="420">UNREGISTERED</text><text fill="#eeeeee" stroke="none" font-family="Arial" font-size="24px" font-style="normal" font-weight="normal" text-decoration="none" x="0" y="450">UNREGISTERED</text><text fill="#eeeeee" stroke="none" font-family="Arial" font-size="24px" font-style="normal" font-weight="normal" text-decoration="none" x="0" y="480">UNREGISTERED</text><text fill="#eeeeee" stroke="none" font-family="Arial" font-size="24px" font-style="normal" font-weight="normal" text-decoration="none" x="0" y="510">UNREGISTERED</text><text fill="#eeeeee" stroke="none" font-family="Arial" font-size="24px" font-style="normal" font-weight="normal" text-decoration="none" x="0" y="540">UNREGISTERED</text><text fill="#eeeeee" stroke="none" font-family="Arial" font-size="24px" font-style="normal" font-weight="normal" text-decoration="none" x="0" y="570">UNREGISTERED</text><text fill="#eeeeee" stroke="none" font-family="Arial" font-size="24px" font-style="normal" font-weight="normal" text-decoration="none" x="200" y="0">UNREGISTERED</text><text fill="#eeeeee" stroke="none" font-family="Arial" font-size="24px" font-style="normal" font-weight="normal" text-decoration="none" x="200" y="30">UNREGISTERED</text><text fill="#eeeeee" stroke="none" font-family="Arial" font-size="24px" font-style="normal" font-weight="normal" text-decoration="none" x="200" y="60">UNREGISTERED</text><text fill="#eeeeee" stroke="none" font-family="Arial" font-size="24px" font-style="normal" font-weight="normal" text-decoration="none" x="200" y="90">UNREGISTERED</text><text fill="#eeeeee" stroke="none" font-family="Arial" font-size="24px" font-style="normal" font-weight="normal" text-decoration="none" x="200" y="120">UNREGISTERED</text><text fill="#eeeeee" stroke="none" font-family="Arial" font-size="24px" font-style="normal" font-weight="normal" text-decoration="none" x="200" y="150">UNREGISTERED</text><text fill="#eeeeee" stroke="none" font-family="Arial" font-size="24px" font-style="normal" font-weight="normal" text-decoration="none" x="200" y="180">UNREGISTERED</text><text fill="#eeeeee" stroke="none" font-family="Arial" font-size="24px" font-style="normal" font-weight="normal" text-decoration="none" x="200" y="210">UNREGISTERED</text><text fill="#eeeeee" stroke="none" font-family="Arial" font-size="24px" font-style="normal" font-weight="normal" text-decoration="none" x="200" y="240">UNREGISTERED</text><text fill="#eeeeee" stroke="none" font-family="Arial" font-size="24px" font-style="normal" font-weight="normal" text-decoration="none" x="200" y="270">UNREGISTERED</text><text fill="#eeeeee" stroke="none" font-family="Arial" font-size="24px" font-style="normal" font-weight="normal" text-decoration="none" x="200" y="300">UNREGISTERED</text><text fill="#eeeeee" stroke="none" font-family="Arial" font-size="24px" font-style="normal" font-weight="normal" text-decoration="none" x="200" y="330">UNREGISTERED</text><text fill="#eeeeee" stroke="none" font-family="Arial" font-size="24px" font-style="normal" font-weight="normal" text-decoration="none" x="200" y="360">UNREGISTERED</text><text fill="#eeeeee" stroke="none" font-family="Arial" font-size="24px" font-style="normal" font-weight="normal" text-decoration="none" x="200" y="390">UNREGISTERED</text><text fill="#eeeeee" stroke="none" font-family="Arial" font-size="24px" font-style="normal" font-weight="normal" text-decoration="none" x="200" y="420">UNREGISTERED</text><text fill="#eeeeee" stroke="none" font-family="Arial" font-size="24px" font-style="normal" font-weight="normal" text-decoration="none" x="200" y="450">UNREGISTERED</text><text fill="#eeeeee" stroke="none" font-family="Arial" font-size="24px" font-style="normal" font-weight="normal" text-decoration="none" x="200" y="480">UNREGISTERED</text><text fill="#eeeeee" stroke="none" font-family="Arial" font-size="24px" font-style="normal" font-weight="normal" text-decoration="none" x="200" y="510">UNREGISTERED</text><text fill="#eeeeee" stroke="none" font-family="Arial" font-size="24px" font-style="normal" font-weight="normal" text-decoration="none" x="200" y="540">UNREGISTERED</text><text fill="#eeeeee" stroke="none" font-family="Arial" font-size="24px" font-style="normal" font-weight="normal" text-decoration="none" x="200" y="570">UNREGISTERED</text><text fill="#eeeeee" stroke="none" font-family="Arial" font-size="24px" font-style="normal" font-weight="normal" text-decoration="none" x="400" y="0">UNREGISTERED</text><text fill="#eeeeee" stroke="none" font-family="Arial" font-size="24px" font-style="normal" font-weight="normal" text-decoration="none" x="400" y="30">UNREGISTERED</text><text fill="#eeeeee" stroke="none" font-family="Arial" font-size="24px" font-style="normal" font-weight="normal" text-decoration="none" x="400" y="60">UNREGISTERED</text><text fill="#eeeeee" stroke="none" font-family="Arial" font-size="24px" font-style="normal" font-weight="normal" text-decoration="none" x="400" y="90">UNREGISTERED</text><text fill="#eeeeee" stroke="none" font-family="Arial" font-size="24px" font-style="normal" font-weight="normal" text-decoration="none" x="400" y="120">UNREGISTERED</text><text fill="#eeeeee" stroke="none" font-family="Arial" font-size="24px" font-style="normal" font-weight="normal" text-decoration="none" x="400" y="150">UNREGISTERED</text><text fill="#eeeeee" stroke="none" font-family="Arial" font-size="24px" font-style="normal" font-weight="normal" text-decoration="none" x="400" y="180">UNREGISTERED</text><text fill="#eeeeee" stroke="none" font-family="Arial" font-size="24px" font-style="normal" font-weight="normal" text-decoration="none" x="400" y="210">UNREGISTERED</text><text fill="#eeeeee" stroke="none" font-family="Arial" font-size="24px" font-style="normal" font-weight="normal" text-decoration="none" x="400" y="240">UNREGISTERED</text><text fill="#eeeeee" stroke="none" font-family="Arial" font-size="24px" font-style="normal" font-weight="normal" text-decoration="none" x="400" y="270">UNREGISTERED</text><text fill="#eeeeee" stroke="none" font-family="Arial" font-size="24px" font-style="normal" font-weight="normal" text-decoration="none" x="400" y="300">UNREGISTERED</text><text fill="#eeeeee" stroke="none" font-family="Arial" font-size="24px" font-style="normal" font-weight="normal" text-decoration="none" x="400" y="330">UNREGISTERED</text><text fill="#eeeeee" stroke="none" font-family="Arial" font-size="24px" font-style="normal" font-weight="normal" text-decoration="none" x="400" y="360">UNREGISTERED</text><text fill="#eeeeee" stroke="none" font-family="Arial" font-size="24px" font-style="normal" font-weight="normal" text-decoration="none" x="400" y="390">UNREGISTERED</text><text fill="#eeeeee" stroke="none" font-family="Arial" font-size="24px" font-style="normal" font-weight="normal" text-decoration="none" x="400" y="420">UNREGISTERED</text><text fill="#eeeeee" stroke="none" font-family="Arial" font-size="24px" font-style="normal" font-weight="normal" text-decoration="none" x="400" y="450">UNREGISTERED</text><text fill="#eeeeee" stroke="none" font-family="Arial" font-size="24px" font-style="normal" font-weight="normal" text-decoration="none" x="400" y="480">UNREGISTERED</text><text fill="#eeeeee" stroke="none" font-family="Arial" font-size="24px" font-style="normal" font-weight="normal" text-decoration="none" x="400" y="510">UNREGISTERED</text><text fill="#eeeeee" stroke="none" font-family="Arial" font-size="24px" font-style="normal" font-weight="normal" text-decoration="none" x="400" y="540">UNREGISTERED</text><text fill="#eeeeee" stroke="none" font-family="Arial" font-size="24px" font-style="normal" font-weight="normal" text-decoration="none" x="400" y="570">UNREGISTERED</text><text fill="#eeeeee" stroke="none" font-family="Arial" font-size="24px" font-style="normal" font-weight="normal" text-decoration="none" x="600" y="0">UNREGISTERED</text><text fill="#eeeeee" stroke="none" font-family="Arial" font-size="24px" font-style="normal" font-weight="normal" text-decoration="none" x="600" y="30">UNREGISTERED</text><text fill="#eeeeee" stroke="none" font-family="Arial" font-size="24px" font-style="normal" font-weight="normal" text-decoration="none" x="600" y="60">UNREGISTERED</text><text fill="#eeeeee" stroke="none" font-family="Arial" font-size="24px" font-style="normal" font-weight="normal" text-decoration="none" x="600" y="90">UNREGISTERED</text><text fill="#eeeeee" stroke="none" font-family="Arial" font-size="24px" font-style="normal" font-weight="normal" text-decoration="none" x="600" y="120">UNREGISTERED</text><text fill="#eeeeee" stroke="none" font-family="Arial" font-size="24px" font-style="normal" font-weight="normal" text-decoration="none" x="600" y="150">UNREGISTERED</text><text fill="#eeeeee" stroke="none" font-family="Arial" font-size="24px" font-style="normal" font-weight="normal" text-decoration="none" x="600" y="180">UNREGISTERED</text><text fill="#eeeeee" stroke="none" font-family="Arial" font-size="24px" font-style="normal" font-weight="normal" text-decoration="none" x="600" y="210">UNREGISTERED</text><text fill="#eeeeee" stroke="none" font-family="Arial" font-size="24px" font-style="normal" font-weight="normal" text-decoration="none" x="600" y="240">UNREGISTERED</text><text fill="#eeeeee" stroke="none" font-family="Arial" font-size="24px" font-style="normal" font-weight="normal" text-decoration="none" x="600" y="270">UNREGISTERED</text><text fill="#eeeeee" stroke="none" font-family="Arial" font-size="24px" font-style="normal" font-weight="normal" text-decoration="none" x="600" y="300">UNREGISTERED</text><text fill="#eeeeee" stroke="none" font-family="Arial" font-size="24px" font-style="normal" font-weight="normal" text-decoration="none" x="600" y="330">UNREGISTERED</text><text fill="#eeeeee" stroke="none" font-family="Arial" font-size="24px" font-style="normal" font-weight="normal" text-decoration="none" x="600" y="360">UNREGISTERED</text><text fill="#eeeeee" stroke="none" font-family="Arial" font-size="24px" font-style="normal" font-weight="normal" text-decoration="none" x="600" y="390">UNREGISTERED</text><text fill="#eeeeee" stroke="none" font-family="Arial" font-size="24px" font-style="normal" font-weight="normal" text-decoration="none" x="600" y="420">UNREGISTERED</text><text fill="#eeeeee" stroke="none" font-family="Arial" font-size="24px" font-style="normal" font-weight="normal" text-decoration="none" x="600" y="450">UNREGISTERED</text><text fill="#eeeeee" stroke="none" font-family="Arial" font-size="24px" font-style="normal" font-weight="normal" text-decoration="none" x="600" y="480">UNREGISTERED</text><text fill="#eeeeee" stroke="none" font-family="Arial" font-size="24px" font-style="normal" font-weight="normal" text-decoration="none" x="600" y="510">UNREGISTERED</text><text fill="#eeeeee" stroke="none" font-family="Arial" font-size="24px" font-style="normal" font-weight="normal" text-decoration="none" x="600" y="540">UNREGISTERED</text><text fill="#eeeeee" stroke="none" font-family="Arial" font-size="24px" font-style="normal" font-weight="normal" text-decoration="none" x="600" y="570">UNREGISTERED</text><g transform="translate(-94,-30) scale(1,1)"><rect fill="#C0C0C0" stroke="none" x="303" y="47" width="80.37548828125" height="39" opacity="0.2"/></g><g transform="translate(-94,-30) scale(1,1)"><rect fill="#ffffff" stroke="none" x="296" y="40" width="80.37548828125" height="39"/></g><g transform="translate(-94,-30) scale(1,1)"><path fill="none" stroke="#000000" d="M 296 40 L 376.37548828125 40 L 376.37548828125 79 L 296 79 L 296 40 Z Z" stroke-miterlimit="10"/></g><g transform="translate(-94,-30) scale(1,1)"><g><path fill="none" stroke="none"/><text fill="#000000" stroke="none" font-family="Arial" font-size="13px" font-style="normal" font-weight="bold" text-decoration="none" x="307.642333984375" y="59.5">MinedInfo</text></g></g><g transform="translate(-94,-30) scale(1,1)"><path fill="none" stroke="#000000" d="M 337.5 80 L 337.5 598" stroke-miterlimit="10" stroke-dasharray="3"/></g><g transform="translate(-94,-30) scale(1,1)"><rect fill="#C0C0C0" stroke="none" x="487" y="47" width="73.6533203125" height="39" opacity="0.2"/></g><g transform="translate(-94,-30) scale(1,1)"><rect fill="#ffffff" stroke="none" x="480" y="40" width="73.6533203125" height="39"/></g><g transform="translate(-94,-30) scale(1,1)"><path fill="none" stroke="#000000" d="M 480 40 L 553.6533203125 40 L 553.6533203125 79 L 480 79 L 480 40 Z Z" stroke-miterlimit="10"/></g><g transform="translate(-94,-30) scale(1,1)"><g><path fill="none" stroke="none"/><text fill="#000000" stroke="none" font-family="Arial" font-size="13px" font-style="normal" font-weight="bold" text-decoration="none" x="492.010498046875" y="59.5">Violation</text></g></g><g transform="translate(-94,-30) scale(1,1)"><path fill="none" stroke="#000000" d="M 517.5 80 L 517.5 438" stroke-miterlimit="10" stroke-dasharray="3"/></g><g transform="translate(-94,-30) scale(1,1)"><rect fill="#C0C0C0" stroke="none" x="599" y="47" width="140.8623046875" height="39" opacity="0.2"/></g><g transform="translate(-94,-30) scale(1,1)"><rect fill="#ffffff" stroke="none" x="592" y="40" width="140.8623046875" height="39"/></g><g transform="translate(-94,-30) scale(1,1)"><path fill="none" stroke="#000000" d="M 592 40 L 732.8623046875 40 L 732.8623046875 79 L 592 79 L 592 40 Z Z" stroke-miterlimit="10"/></g><g transform="translate(-94,-30) scale(1,1)"><g><path fill="none" stroke="none"/><text fill="#000000" stroke="none" font-family="Arial" font-size="13px" font-style="normal" font-weight="bold" text-decoration="none" x="604.385009765625" y="59.5">Heat Map Visualizer</text></g></g><g transform="translate(-94,-30) scale(1,1)"><path fill="none" stroke="#000000" d="M 663.5 80 L 663.5 574" stroke-miterlimit="10" stroke-dasharray="3"/></g><g transform="translate(-94,-30) scale(1,1)"><g><path fill="none" stroke="none"/><text fill="#000000" stroke="none" font-family="Arial" font-size="13px" font-style="normal" font-weight="normal" text-decoration="none" x="117" y="314">[no</text><text fill="#000000" stroke="none" font-family="Arial" font-size="13px" font-style="normal" font-weight="normal" text-decoration="none" x="117" y="327">violations]</text></g></g><g transform="translate(-94,-30) scale(1,1)"><g><path fill="none" stroke="none"/><text fill="#000000" stroke="none" font-family="Arial" font-size="13px" font-style="normal" font-weight="normal" text-decoration="none" x="117" y="450">[violations</text><text fill="#000000" stroke="none" font-family="Arial" font-size="13px" font-style="normal" font-weight="normal" text-decoration="none" x="117" y="463">exist]</text></g></g><g transform="translate(-94,-30) scale(1,1)"><path fill="#ffffff" stroke="none" d="M 189.3926864346591 47.3 C 189.3926864346591 43.82060576 192.2710881568409 41 195.82177734375 41 C 199.3724665306591 41 202.25086825284092 43.82060576 202.25086825284092 47.3 C 202.25086825284092 50.779394239999995 199.3724665306591 53.6 195.82177734375 53.6 C 192.2710881568409 53.6 189.3926864346591 50.779394239999995 189.3926864346591 47.3 Z"/></g><g transform="translate(-94,-30) scale(1,1)"><path fill="none" stroke="#000000" d="M 189.3926864346591 47.3 C 189.3926864346591 43.82060576 192.2710881568409 41 195.82177734375 41 C 199.3724665306591 41 202.25086825284092 43.82060576 202.25086825284092 47.3 C 202.25086825284092 50.779394239999995 199.3724665306591 53.6 195.82177734375 53.6 C 192.2710881568409 53.6 189.3926864346591 50.779394239999995 189.3926864346591 47.3 Z" stroke-miterlimit="10"/></g><g transform="translate(-94,-30) scale(1,1)"><path fill="none" stroke="#000000" d="M 195.82177734375 53.6 L 195.82177734375 66.4" stroke-miterlimit="10"/></g><g transform="translate(-94,-30) scale(1,1)"><path fill="none" stroke="#000000" d="M 189.0145046164773 58.4 L 202.62905007102273 58.4" stroke-miterlimit="10"/></g><g transform="translate(-94,-30) scale(1,1)"><path fill="none" stroke="#000000" d="M 195.82177734375 66.4 L 186.36723188920456 79" stroke-miterlimit="10"/></g><g transform="translate(-94,-30) scale(1,1)"><path fill="none" stroke="#000000" d="M 195.82177734375 66.4 L 205.27632279829547 79" stroke-miterlimit="10"/></g><g transform="translate(-94,-30) scale(1,1)"><g><path fill="none" stroke="none"/><text fill="#000000" stroke="none" font-family="Arial" font-size="13px" font-style="normal" font-weight="bold" text-decoration="none" x="176.680419921875" y="99.5"> : User</text></g></g><g transform="translate(-94,-30) scale(1,1)"><path fill="none" stroke="#000000" d="M 196.5 105 L 196.5 600" stroke-miterlimit="10" stroke-dasharray="3"/></g><g transform="translate(-94,-30) scale(1,1)"><path fill="none" stroke="#000000" d="M 196 132 L 330 132" stroke-miterlimit="10"/></g><g transform="translate(-94,-30) scale(1,1)"><path fill="none" stroke="#000000" d="M 319.83732514237585 136.209517756016 L 330 132 L 319.83732514237585 127.79048224398402" stroke-miterlimit="10"/></g><g transform="translate(-94,-30) scale(1,1)"><g><path fill="none" stroke="none"/><text fill="#000000" stroke="none" font-family="Arial" font-size="13px" font-style="normal" font-weight="normal" text-decoration="none" x="207.5" y="128.5">1 : AskExploreData</text></g></g><g transform="translate(-94,-30) scale(1,1)"><rect fill="#ffffff" stroke="none" x="330" y="132" width="13" height="28"/></g><g transform="translate(-94,-30) scale(1,1)"><path fill="none" stroke="#000000" d="M 330 132 L 343 132 L 343 160 L 330 160 L 330 132 Z Z" stroke-miterlimit="10"/></g><g transform="translate(-94,-30) scale(1,1)"><path fill="none" stroke="#000000" d="M 330 150 L 196 150" stroke-miterlimit="10" stroke-dasharray="3"/></g><g transform="translate(-94,-30) scale(1,1)"><path fill="none" stroke="#000000" d="M 206.16267485762415 145.790482243984 L 196 150 L 206.16267485762415 154.209517756016" stroke-miterlimit="10"/></g><g transform="translate(-94,-30) scale(1,1)"><g><path fill="none" stroke="none"/><text fill="#000000" stroke="none" font-family="Arial" font-size="13px" font-style="normal" font-weight="normal" text-decoration="none" x="207.5" y="166.5">2 : ShowMainPage</text></g></g><g transform="translate(-94,-30) scale(1,1)"><path fill="none" stroke="#000000" d="M 196 200 L 330 200" stroke-miterlimit="10"/></g><g transform="translate(-94,-30) scale(1,1)"><path fill="none" stroke="#000000" d="M 319.83732514237585 204.209517756016 L 330 200 L 319.83732514237585 195.790482243984" stroke-miterlimit="10"/></g><g transform="translate(-94,-30) scale(1,1)"><g><path fill="none" stroke="none"/><text fill="#000000" stroke="none" font-family="Arial" font-size="13px" font-style="normal" font-weight="normal" text-decoration="none" x="213.5" y="196.5">3 : AskMainPage</text></g></g><g transform="translate(-94,-30) scale(1,1)"><rect fill="#ffffff" stroke="none" x="330" y="200" width="13" height="376"/></g><g transform="translate(-94,-30) scale(1,1)"><path fill="none" stroke="#000000" d="M 330 200 L 343 200 L 343 576 L 330 576 L 330 200 Z Z" stroke-miterlimit="10"/></g><g transform="translate(-94,-30) scale(1,1)"><path fill="none" stroke="#000000" d="M 343 228 L 510 228" stroke-miterlimit="10"/></g><g transform="translate(-94,-30) scale(1,1)"><path fill="#000000" stroke="none" d="M 499.83732514237585 232.209517756016 L 510 228 L 499.83732514237585 223.790482243984"/></g><g transform="translate(-94,-30) scale(1,1)"><path fill="none" stroke="#000000" d="M 499.83732514237585 232.209517756016 L 510 228 L 499.83732514237585 223.790482243984 L 499.83732514237585 232.209517756016" stroke-miterlimit="10"/></g><g transform="translate(-94,-30) scale(1,1)"><g><path fill="none" stroke="none"/><text fill="#000000" stroke="none" font-family="Arial" font-size="13px" font-style="normal" font-weight="normal" text-decoration="none" x="372.5" y="224.5">4 : queryViolations</text></g></g><g transform="translate(-94,-30) scale(1,1)"><rect fill="#ffffff" stroke="none" x="510" y="228" width="13" height="196"/></g><g transform="translate(-94,-30) scale(1,1)"><path fill="none" stroke="#000000" d="M 510 228 L 523 228 L 523 424 L 510 424 L 510 228 Z Z" stroke-miterlimit="10"/></g><g transform="translate(-94,-30) scale(1,1)"><path fill="none" stroke="#000000" d="M 510 296 L 343 296" stroke-miterlimit="10" stroke-dasharray="3"/></g><g transform="translate(-94,-30) scale(1,1)"><path fill="none" stroke="#000000" d="M 353.16267485762415 291.790482243984 L 343 296 L 353.16267485762415 300.209517756016" stroke-miterlimit="10"/></g><g transform="translate(-94,-30) scale(1,1)"><g><path fill="none" stroke="none"/><text fill="#000000" stroke="none" font-family="Arial" font-size="13px" font-style="normal" font-weight="normal" text-decoration="none" x="393.5" y="312.5">5 : NoData</text></g></g><g transform="translate(-94,-30) scale(1,1)"><path fill="none" stroke="#000000" d="M 330 312 L 196 312" stroke-miterlimit="10" stroke-dasharray="3"/></g><g transform="translate(-94,-30) scale(1,1)"><path fill="none" stroke="#000000" d="M 206.16267485762415 307.790482243984 L 196 312 L 206.16267485762415 316.209517756016" stroke-miterlimit="10"/></g><g transform="translate(-94,-30) scale(1,1)"><g><path fill="none" stroke="none"/><text fill="#000000" stroke="none" font-family="Arial" font-size="13px" font-style="normal" font-weight="normal" text-decoration="none" x="230.5" y="328.5">6 : NoData</text></g></g><g transform="translate(-94,-30) scale(1,1)"><path fill="none" stroke="#000000" d="M 510 376 L 343 376" stroke-miterlimit="10" stroke-dasharray="3"/></g><g transform="translate(-94,-30) scale(1,1)"><path fill="none" stroke="#000000" d="M 353.16267485762415 371.790482243984 L 343 376 L 353.16267485762415 380.209517756016" stroke-miterlimit="10"/></g><g transform="translate(-94,-30) scale(1,1)"><g><path fill="none" stroke="none"/><text fill="#000000" stroke="none" font-family="Arial" font-size="13px" font-style="normal" font-weight="normal" text-decoration="none" x="370.5" y="395.5">7 : ReturnStreetCount</text></g></g><g transform="translate(-94,-30) scale(1,1)"><path fill="none" stroke="#000000" d="M 343 456 L 656 456" stroke-miterlimit="10"/></g><g transform="translate(-94,-30) scale(1,1)"><path fill="#000000" stroke="none" d="M 645.8373251423759 460.209517756016 L 656 456 L 645.8373251423758 451.790482243984"/></g><g transform="translate(-94,-30) scale(1,1)"><path fill="none" stroke="#000000" d="M 645.8373251423759 460.209517756016 L 656 456 L 645.8373251423758 451.790482243984 L 645.8373251423759 460.209517756016" stroke-miterlimit="10"/></g><g transform="translate(-94,-30) scale(1,1)"><g><path fill="none" stroke="none"/><text fill="#000000" stroke="none" font-family="Arial" font-size="13px" font-style="normal" font-weight="normal" text-decoration="none" x="461.72998046875" y="451.5">8 : askMap</text></g></g><g transform="translate(-94,-30) scale(1,1)"><rect fill="#ffffff" stroke="none" x="656" y="456" width="13" height="40"/></g><g transform="translate(-94,-30) scale(1,1)"><path fill="none" stroke="#000000" d="M 656 456 L 669 456 L 669 496 L 656 496 L 656 456 Z Z" stroke-miterlimit="10"/></g><g transform="translate(-94,-30) scale(1,1)"><path fill="none" stroke="#000000" d="M 656 480 L 343 480" stroke-miterlimit="10" stroke-dasharray="3"/></g><g transform="translate(-94,-30) scale(1,1)"><path fill="none" stroke="#000000" d="M 353.16267485762415 475.790482243984 L 343 480 L 353.16267485762415 484.209517756016" stroke-miterlimit="10"/></g><g transform="translate(-94,-30) scale(1,1)"><g><path fill="none" stroke="none"/><text fill="#000000" stroke="none" font-family="Arial" font-size="13px" font-style="normal" font-weight="normal" text-decoration="none" x="458.844970703125" y="496.5">9 : returnMap</text></g></g><g transform="translate(-94,-30) scale(1,1)"><path fill="none" stroke="#000000" d="M 343 520 L 656 520" stroke-miterlimit="10"/></g><g transform="translate(-94,-30) scale(1,1)"><path fill="#000000" stroke="none" d="M 645.8373251423759 524.209517756016 L 656 520 L 645.8373251423758 515.790482243984"/></g><g transform="translate(-94,-30) scale(1,1)"><path fill="none" stroke="#000000" d="M 645.8373251423759 524.209517756016 L 656 520 L 645.8373251423758 515.790482243984 L 645.8373251423759 524.209517756016" stroke-miterlimit="10"/></g><g transform="translate(-94,-30) scale(1,1)"><g><path fill="none" stroke="none"/><text fill="#000000" stroke="none" font-family="Arial" font-size="13px" font-style="normal" font-weight="normal" text-decoration="none" x="451.5" y="519.5">10 : AskOverlay</text></g></g><g transform="translate(-94,-30) scale(1,1)"><rect fill="#ffffff" stroke="none" x="656" y="520" width="13" height="28"/></g><g transform="translate(-94,-30) scale(1,1)"><path fill="none" stroke="#000000" d="M 656 520 L 669 520 L 669 548 L 656 548 L 656 520 Z Z" stroke-miterlimit="10"/></g><g transform="translate(-94,-30) scale(1,1)"><path fill="none" stroke="#000000" d="M 656 544 L 343 544" stroke-miterlimit="10" stroke-dasharray="3"/></g><g transform="translate(-94,-30) scale(1,1)"><path fill="none" stroke="#000000" d="M 353.16267485762415 539.790482243984 L 343 544 L 353.16267485762415 548.209517756016" stroke-miterlimit="10"/></g><g transform="translate(-94,-30) scale(1,1)"><g><path fill="none" stroke="none"/><text fill="#000000" stroke="none" font-family="Arial" font-size="13px" font-style="normal" font-weight="normal" text-decoration="none" x="444.982421875" y="560.5">11 : returnOverllay</text></g></g><g transform="translate(-94,-30) scale(1,1)"><path fill="none" stroke="#000000" d="M 330 552 L 196 552" stroke-miterlimit="10" stroke-dasharray="3"/></g><g transform="translate(-94,-30) scale(1,1)"><path fill="none" stroke="#000000" d="M 206.16267485762415 547.790482243984 L 196 552 L 206.16267485762415 556.209517756016" stroke-miterlimit="10"/></g><g transform="translate(-94,-30) scale(1,1)"><g><path fill="none" stroke="none"/><text fill="#000000" stroke="none" font-family="Arial" font-size="13px" font-style="normal" font-weight="normal" text-decoration="none" x="206.5" y="568.5">12 : ShowHeatmap</text></g></g><g transform="translate(-94,-30) scale(1,1)"><path fill="none" stroke="#000000" d="M 104 272 L 736 272 L 736 600 L 104 600 L 104 272" stroke-miterlimit="10"/></g><g transform="translate(-94,-30) scale(1,1)"><path fill="#ffffff" stroke="none" d="M 104 272 L 104 294 L 133.72998046875 294 L 144.72998046875 283 L 144.72998046875 272 L 104 272"/></g><g transform="translate(-94,-30) scale(1,1)"><path fill="none" stroke="#000000" d="M 104 272 L 104 294 L 133.72998046875 294 L 144.72998046875 283 L 144.72998046875 272 L 104 272 L 104 272" stroke-miterlimit="10"/></g><g transform="translate(-94,-30) scale(1,1)"><g><path fill="none" stroke="none"/><text fill="#000000" stroke="none" font-family="Arial" font-size="13px" font-style="normal" font-weight="bold" text-decoration="none" x="109" y="289.5">alt</text></g></g><g transform="translate(-94,-30) scale(1,1)"><path fill="none" stroke="#000000" d="M 104 338 L 736 338" stroke-miterlimit="10" stroke-dasharray="10,3"/></g></g></svg>