<svg version="1.1" xmlns="http://www.w3.org/2000/svg" xmlns:xlink="http://www.w3.org/1999/xlink" width="649.09716796875" height="806"><defs/><g><text fill="#eeeeee" stroke="none" font-family="Arial" font-size="24px" font-style="normal" font-weight="normal" text-decoration="none" x="0" y="0">UNREGISTERED</text><text fill="#eeeeee" stroke="none" font-family="Arial" font-size="24px" font-style="normal" font-weight="normal" text-decoration="none" x="0" y="30">UNREGISTERED</text><text fill="#eeeeee" stroke="none" font-family="Arial" font-size="24px" font-style="normal" font-weight="normal" text-decoration="none" x="0" y="60">UNREGISTERED</text><text fill="#eeeeee" stroke="none" font-family="Arial" font-size="24px" font-style="normal" font-weight="normal" text-decoration="none" x="0" y="90">UNREGISTERED</text><text fill="#eeeeee" stroke="none" font-family="Arial" font-size="24px" font-style="normal" font-weight="normal" text-decoration="none" x="0" y="120">UNREGISTERED</text><text fill="#eeeeee" stroke="none" font-family="Arial" font-size="24px" font-style="normal" font-weight="normal" text-decoration="none" x="0" y="150">UNREGISTERED</text><text fill="#eeeeee" stroke="none" font-family="Arial" font-size="24px" font-style="normal" font-weight="normal" text-decoration="none" x="0" y="180">UNREGISTERED</text><text fill="#eeeeee" stroke="none" font-family="Arial" font-size="24px" font-style="normal" font-weight="normal" text-decoration="none" x="0" y="210">UNREGISTERED</text><text fill="#eeeeee" stroke="none" font-family="Arial" font-size="24px" font-style="normal" font-weight="normal" text-decoration="none" x="0" y="240">UNREGISTERED</text><text fill="#eeeeee" stroke="none" font-family="Arial" font-size="24px" font-style="normal" font-weight="normal" text-decoration="none" x="0" y="270">UNREGISTERED</text><text fill="#eeeeee" stroke="none" font-family="Arial" font-size="24px" font-style="normal" font-weight="normal" text-decoration="none" x="0" y="300">UNREGISTERED</text><text fill="#eeeeee" stroke="none" font-family="Arial" font-size="24px" font-style="normal" font-weight="normal" text-decoration="none" x="0" y="330">UNREGISTERED</text><text fill="#eeeeee" stroke="none" font-family="Arial" font-size="24px" font-style="normal" font-weight="normal" text-decoration="none" x="0" y="360">UNREGISTERED</text><text fill="#eeeeee" stroke="none" font-family="Arial" font-size="24px" font-style="normal" font-weight="normal" text-decoration="none" x="0" y="390">UNREGISTERED</text><text fill="#eeeeee" stroke="none" font-family="Arial" font-size="24px" font-style="normal" font-weight="normal" text-decoration="none" x="0" y="420">UNREGISTERED</text><text fill="#eeeeee" stroke="none" font-family="Arial" font-size="24px" font-style="normal" font-weight="normal" text-decoration="none" x="0" y="450">UNREGISTERED</text><text fill="#eeeeee" stroke="none" font-family="Arial" font-size="24px" font-style="normal" font-weight="normal" text-decoration="none" x="0" y="480">UNREGISTERED</text><text fill="#eeeeee" stroke="none" font-family="Arial" font-size="24px" font-style="normal" font-weight="normal" text-decoration="none" x="0" y="510">UNREGISTERED</text><text fill="#eeeeee" stroke="none" font-family="Arial" font-size="24px" font-style="normal" font-weight="normal" text-decoration="none" x="0" y="540">UNREGISTERED</text><text fill="#eeeeee" stroke="none" font-family="Arial" font-size="24px" font-style="normal" font-weight="normal" text-decoration="none" x="0" y="570">UNREGISTERED</text><text fill="#eeeeee" stroke="none" font-family="Arial" font-size="24px" font-style="normal" font-weight="normal" text-decoration="none" x="0" y="600">UNREGISTERED</text><text fill="#eeeeee" stroke="none" font-family="Arial" font-size="24px" font-style="normal" font-weight="normal" text-decoration="none" x="0" y="630">UNREGISTERED</text><text fill="#eeeeee" stroke="none" font-family="Arial" font-size="24px" font-style="normal" font-weight="normal" text-decoration="none" x="0" y="660">UNREGISTERED</text><text fill="#eeeeee" stroke="none" font-family="Arial" font-size="24px" font-style="normal" font-weight="normal" text-decoration="none" x="0" y="690">UNREGISTERED</text><text fill="#eeeeee" stroke="none" font-family="Arial" font-size="24px" font-style="normal" font-weight="normal" text-decoration="none" x="0" y="720">UNREGISTERED</text><text fill="#eeeeee" stroke="none" font-family="Arial" font-size="24px" font-style="normal" font-weight="normal" text-decoration="none" x="0" y="750">UNREGISTERED</text><text fill="#eeeeee" stroke="none" font-family="Arial" font-size="24px" font-style="normal" font-weight="normal" text-decoration="none" x="0" y="780">UNREGISTERED</text><text fill="#eeeeee" stroke="none" font-family="Arial" font-size="24px" font-style="normal" font-weight="normal" text-decoration="none" x="200" y="0">UNREGISTERED</text><text fill="#eeeeee" stroke="none" font-family="Arial" font-size="24px" font-style="normal" font-weight="normal" text-decoration="none" x="200" y="30">UNREGISTERED</text><text fill="#eeeeee" stroke="none" font-family="Arial" font-size="24px" font-style="normal" font-weight="normal" text-decoration="none" x="200" y="60">UNREGISTERED</text><text fill="#eeeeee" stroke="none" font-family="Arial" font-size="24px" font-style="normal" font-weight="normal" text-decoration="none" x="200" y="90">UNREGISTERED</text><text fill="#eeeeee" stroke="none" font-family="Arial" font-size="24px" font-style="normal" font-weight="normal" text-decoration="none" x="200" y="120">UNREGISTERED</text><text fill="#eeeeee" stroke="none" font-family="Arial" font-size="24px" font-style="normal" font-weight="normal" text-decoration="none" x="200" y="150">UNREGISTERED</text><text fill="#eeeeee" stroke="none" font-family="Arial" font-size="24px" font-style="normal" font-weight="normal" text-decoration="none" x="200" y="180">UNREGISTERED</text><text fill="#eeeeee" stroke="none" font-family="Arial" font-size="24px" font-style="normal" font-weight="normal" text-decoration="none" x="200" y="210">UNREGISTERED</text><text fill="#eeeeee" stroke="none" font-family="Arial" font-size="24px" font-style="normal" font-weight="normal" text-decoration="none" x="200" y="240">UNREGISTERED</text><text fill="#eeeeee" stroke="none" font-family="Arial" font-size="24px" font-style="normal" font-weight="normal" text-decoration="none" x="200" y="270">UNREGISTERED</text><text fill="#eeeeee" stroke="none" font-family="Arial" font-size="24px" font-style="normal" font-weight="normal" text-decoration="none" x="200" y="300">UNREGISTERED</text><text fill="#eeeeee" stroke="none" font-family="Arial" font-size="24px" font-style="normal" font-weight="normal" text-decoration="none" x="200" y="330">UNREGISTERED</text><text fill="#eeeeee" stroke="none" font-family="Arial" font-size="24px" font-style="normal" font-weight="normal" text-decoration="none" x="200" y="360">UNREGISTERED</text><text fill="#eeeeee" stroke="none" font-family="Arial" font-size="24px" font-style="normal" font-weight="normal" text-decoration="none" x="200" y="390">UNREGISTERED</text><text fill="#eeeeee" stroke="none" font-family="Arial" font-size="24px" font-style="normal" font-weight="normal" text-decoration="none" x="200" y="420">UNREGISTERED</text><text fill="#eeeeee" stroke="none" font-family="Arial" font-size="24px" font-style="normal" font-weight="normal" text-decoration="none" x="200" y="450">UNREGISTERED</text><text fill="#eeeeee" stroke="none" font-family="Arial" font-size="24px" font-style="normal" font-weight="normal" text-decoration="none" x="200" y="480">UNREGISTERED</text><text fill="#eeeeee" stroke="none" font-family="Arial" font-size="24px" font-style="normal" font-weight="normal" text-decoration="none" x="200" y="510">UNREGISTERED</text><text fill="#eeeeee" stroke="none" font-family="Arial" font-size="24px" font-style="normal" font-weight="normal" text-decoration="none" x="200" y="540">UNREGISTERED</text><text fill="#eeeeee" stroke="none" font-family="Arial" font-size="24px" font-style="normal" font-weight="normal" text-decoration="none" x="200" y="570">UNREGISTERED</text><text fill="#eeeeee" stroke="none" font-family="Arial" font-size="24px" font-style="normal" font-weight="normal" text-decoration="none" x="200" y="600">UNREGISTERED</text><text fill="#eeeeee" stroke="none" font-family="Arial" font-size="24px" font-style="normal" font-weight="normal" text-decoration="none" x="200" y="630">UNREGISTERED</text><text fill="#eeeeee" stroke="none" font-family="Arial" font-size="24px" font-style="normal" font-weight="normal" text-decoration="none" x="200" y="660">UNREGISTERED</text><text fill="#eeeeee" stroke="none" font-family="Arial" font-size="24px" font-style="normal" font-weight="normal" text-decoration="none" x="200" y="690">UNREGISTERED</text><text fill="#eeeeee" stroke="none" font-family="Arial" font-size="24px" font-style="normal" font-weight="normal" text-decoration="none" x="200" y="720">UNREGISTERED</text><text fill="#eeeeee" stroke="none" font-family="Arial" font-size="24px" font-style="normal" font-weight="normal" text-decoration="none" x="200" y="750">UNREGISTERED</text><text fill="#eeeeee" stroke="none" font-family="Arial" font-size="24px" font-style="normal" font-weight="normal" text-decoration="none" x="200" y="780">UNREGISTERED</text><text fill="#eeeeee" stroke="none" font-family="Arial" font-size="24px" font-style="normal" font-weight="normal" text-decoration="none" x="400" y="0">UNREGISTERED</text><text fill="#eeeeee" stroke="none" font-family="Arial" font-size="24px" font-style="normal" font-weight="normal" text-decoration="none" x="400" y="30">UNREGISTERED</text><text fill="#eeeeee" stroke="none" font-family="Arial" font-size="24px" font-style="normal" font-weight="normal" text-decoration="none" x="400" y="60">UNREGISTERED</text><text fill="#eeeeee" stroke="none" font-family="Arial" font-size="24px" font-style="normal" font-weight="normal" text-decoration="none" x="400" y="90">UNREGISTERED</text><text fill="#eeeeee" stroke="none" font-family="Arial" font-size="24px" font-style="normal" font-weight="normal" text-decoration="none" x="400" y="120">UNREGISTERED</text><text fill="#eeeeee" stroke="none" font-family="Arial" font-size="24px" font-style="normal" font-weight="normal" text-decoration="none" x="400" y="150">UNREGISTERED</text><text fill="#eeeeee" stroke="none" font-family="Arial" font-size="24px" font-style="normal" font-weight="normal" text-decoration="none" x="400" y="180">UNREGISTERED</text><text fill="#eeeeee" stroke="none" font-family="Arial" font-size="24px" font-style="normal" font-weight="normal" text-decoration="none" x="400" y="210">UNREGISTERED</text><text fill="#eeeeee" stroke="none" font-family="Arial" font-size="24px" font-style="normal" font-weight="normal" text-decoration="none" x="400" y="240">UNREGISTERED</text><text fill="#eeeeee" stroke="none" font-family="Arial" font-size="24px" font-style="normal" font-weight="normal" text-decoration="none" x="400" y="270">UNREGISTERED</text><text fill="#eeeeee" stroke="none" font-family="Arial" font-size="24px" font-style="normal" font-weight="normal" text-decoration="none" x="400" y="300">UNREGISTERED</text><text fill="#eeeeee" stroke="none" font-family="Arial" font-size="24px" font-style="normal" font-weight="normal" text-decoration="none" x="400" y="330">UNREGISTERED</text><text fill="#eeeeee" stroke="none" font-family="Arial" font-size="24px" font-style="normal" font-weight="normal" text-decoration="none" x="400" y="360">UNREGISTERED</text><text fill="#eeeeee" stroke="none" font-family="Arial" font-size="24px" font-style="normal" font-weight="normal" text-decoration="none" x="400" y="390">UNREGISTERED</text><text fill="#eeeeee" stroke="none" font-family="Arial" font-size="24px" font-style="normal" font-weight="normal" text-decoration="none" x="400" y="420">UNREGISTERED</text><text fill="#eeeeee" stroke="none" font-family="Arial" font-size="24px" font-style="normal" font-weight="normal" text-decoration="none" x="400" y="450">UNREGISTERED</text><text fill="#eeeeee" stroke="none" font-family="Arial" font-size="24px" font-style="normal" font-weight="normal" text-decoration="none" x="400" y="480">UNREGISTERED</text><text fill="#eeeeee" stroke="none" font-family="Arial" font-size="24px" font-style="normal" font-weight="normal" text-decoration="none" x="400" y="510">UNREGISTERED</text><text fill="#eeeeee" stroke="none" font-family="Arial" font-size="24px" font-style="normal" font-weight="normal" text-decoration="none" x="400" y="540">UNREGISTERED</text><text fill="#eeeeee" stroke="none" font-family="Arial" font-size="24px" font-style="normal" font-weight="normal" text-decoration="none" x="400" y="570">UNREGISTERED</text><text fill="#eeeeee" stroke="none" font-family="Arial" font-size="24px" font-style="normal" font-weight="normal" text-decoration="none" x="400" y="600">UNREGISTERED</text><text fill="#eeeeee" stroke="none" font-family="Arial" font-size="24px" font-style="normal" font-weight="normal" text-decoration="none" x="400" y="630">UNREGISTERED</text><text fill="#eeeeee" stroke="none" font-family="Arial" font-size="24px" font-style="normal" font-weight="normal" text-decoration="none" x="400" y="660">UNREGISTERED</text><text fill="#eeeeee" stroke="none" font-family="Arial" font-size="24px" font-style="normal" font-weight="normal" text-decoration="none" x="400" y="690">UNREGISTERED</text><text fill="#eeeeee" stroke="none" font-family="Arial" font-size="24px" font-style="normal" font-weight="normal" text-decoration="none" x="400" y="720">UNREGISTERED</text><text fill="#eeeeee" stroke="none" font-family="Arial" font-size="24px" font-style="normal" font-weight="normal" text-decoration="none" x="400" y="750">UNREGISTERED</text><text fill="#eeeeee" stroke="none" font-family="Arial" font-size="24px" font-style="normal" font-weight="normal" text-decoration="none" x="400" y="780">UNREGISTERED</text><text fill="#eeeeee" stroke="none" font-family="Arial" font-size="24px" font-style="normal" font-weight="normal" text-decoration="none" x="600" y="0">UNREGISTERED</text><text fill="#eeeeee" stroke="none" font-family="Arial" font-size="24px" font-style="normal" font-weight="normal" text-decoration="none" x="600" y="30">UNREGISTERED</text><text fill="#eeeeee" stroke="none" font-family="Arial" font-size="24px" font-style="normal" font-weight="normal" text-decoration="none" x="600" y="60">UNREGISTERED</text><text fill="#eeeeee" stroke="none" font-family="Arial" font-size="24px" font-style="normal" font-weight="normal" text-decoration="none" x="600" y="90">UNREGISTERED</text><text fill="#eeeeee" stroke="none" font-family="Arial" font-size="24px" font-style="normal" font-weight="normal" text-decoration="none" x="600" y="120">UNREGISTERED</text><text fill="#eeeeee" stroke="none" font-family="Arial" font-size="24px" font-style="normal" font-weight="normal" text-decoration="none" x="600" y="150">UNREGISTERED</text><text fill="#eeeeee" stroke="none" font-family="Arial" font-size="24px" font-style="normal" font-weight="normal" text-decoration="none" x="600" y="180">UNREGISTERED</text><text fill="#eeeeee" stroke="none" font-family="Arial" font-size="24px" font-style="normal" font-weight="normal" text-decoration="none" x="600" y="210">UNREGISTERED</text><text fill="#eeeeee" stroke="none" font-family="Arial" font-size="24px" font-style="normal" font-weight="normal" text-decoration="none" x="600" y="240">UNREGISTERED</text><text fill="#eeeeee" stroke="none" font-family="Arial" font-size="24px" font-style="normal" font-weight="normal" text-decoration="none" x="600" y="270">UNREGISTERED</text><text fill="#eeeeee" stroke="none" font-family="Arial" font-size="24px" font-style="normal" font-weight="normal" text-decoration="none" x="600" y="300">UNREGISTERED</text><text fill="#eeeeee" stroke="none" font-family="Arial" font-size="24px" font-style="normal" font-weight="normal" text-decoration="none" x="600" y="330">UNREGISTERED</text><text fill="#eeeeee" stroke="none" font-family="Arial" font-size="24px" font-style="normal" font-weight="normal" text-decoration="none" x="600" y="360">UNREGISTERED</text><text fill="#eeeeee" stroke="none" font-family="Arial" font-size="24px" font-style="normal" font-weight="normal" text-decoration="none" x="600" y="390">UNREGISTERED</text><text fill="#eeeeee" stroke="none" font-family="Arial" font-size="24px" font-style="normal" font-weight="normal" text-decoration="none" x="600" y="420">UNREGISTERED</text><text fill="#eeeeee" stroke="none" font-family="Arial" font-size="24px" font-style="normal" font-weight="normal" text-decoration="none" x="600" y="450">UNREGISTERED</text><text fill="#eeeeee" stroke="none" font-family="Arial" font-size="24px" font-style="normal" font-weight="normal" text-decoration="none" x="600" y="480">UNREGISTERED</text><text fill="#eeeeee" stroke="none" font-family="Arial" font-size="24px" font-style="normal" font-weight="normal" text-decoration="none" x="600" y="510">UNREGISTERED</text><text fill="#eeeeee" stroke="none" font-family="Arial" font-size="24px" font-style="normal" font-weight="normal" text-decoration="none" x="600" y="540">UNREGISTERED</text><text fill="#eeeeee" stroke="none" font-family="Arial" font-size="24px" font-style="normal" font-weight="normal" text-decoration="none" x="600" y="570">UNREGISTERED</text><text fill="#eeeeee" stroke="none" font-family="Arial" font-size="24px" font-style="normal" font-weight="normal" text-decoration="none" x="600" y="600">UNREGISTERED</text><text fill="#eeeeee" stroke="none" font-family="Arial" font-size="24px" font-style="normal" font-weight="normal" text-decoration="none" x="600" y="630">UNREGISTERED</text><text fill="#eeeeee" stroke="none" font-family="Arial" font-size="24px" font-style="normal" font-weight="normal" text-decoration="none" x="600" y="660">UNREGISTERED</text><text fill="#eeeeee" stroke="none" font-family="Arial" font-size="24px" font-style="normal" font-weight="normal" text-decoration="none" x="600" y="690">UNREGISTERED</text><text fill="#eeeeee" stroke="none" font-family="Arial" font-size="24px" font-style="normal" font-weight="normal" text-decoration="none" x="600" y="720">UNREGISTERED</text><text fill="#eeeeee" stroke="none" font-family="Arial" font-size="24px" font-style="normal" font-weight="normal" text-decoration="none" x="600" y="750">UNREGISTERED</text><text fill="#eeeeee" stroke="none" font-family="Arial" font-size="24px" font-style="normal" font-weight="normal" text-decoration="none" x="600" y="780">UNREGISTERED</text><g transform="translate(-62,-30) scale(1,1)"><rect fill="#C0C0C0" stroke="none" x="287" y="47" width="73.6533203125" height="39" opacity="0.2"/></g><g transform="translate(-62,-30) scale(1,1)"><rect fill="#ffffff" stroke="none" x="280" y="40" width="73.6533203125" height="39"/></g><g transform="translate(-62,-30) scale(1,1)"><path fill="none" stroke="#000000" d="M 280 40 L 353.6533203125 40 L 353.6533203125 79 L 280 79 L 280 40 Z Z" stroke-miterlimit="10"/></g><g transform="translate(-62,-30) scale(1,1)"><g><path fill="none" stroke="none"/><text fill="#000000" stroke="none" font-family="Arial" font-size="13px" font-style="normal" font-weight="bold" text-decoration="none" x="292.010498046875" y="59.5">Violation</text></g></g><g transform="translate(-62,-30) scale(1,1)"><path fill="none" stroke="#000000" d="M 317.5 80 L 317.5 826" stroke-miterlimit="10" stroke-dasharray="3"/></g><g transform="translate(-62,-30) scale(1,1)"><rect fill="#C0C0C0" stroke="none" x="455" y="47" width="71.736328125" height="39" opacity="0.2"/></g><g transform="translate(-62,-30) scale(1,1)"><rect fill="#ffffff" stroke="none" x="448" y="40" width="71.736328125" height="39"/></g><g transform="translate(-62,-30) scale(1,1)"><path fill="none" stroke="#000000" d="M 448 40 L 519.736328125 40 L 519.736328125 79 L 448 79 L 448 40 Z Z" stroke-miterlimit="10"/></g><g transform="translate(-62,-30) scale(1,1)"><g><path fill="none" stroke="none"/><text fill="#000000" stroke="none" font-family="Arial" font-size="13px" font-style="normal" font-weight="bold" text-decoration="none" x="466.88818359375" y="59.5">ALPR</text></g></g><g transform="translate(-62,-30) scale(1,1)"><path fill="none" stroke="#000000" d="M 484.5 80 L 484.5 657" stroke-miterlimit="10" stroke-dasharray="3"/></g><g transform="translate(-62,-30) scale(1,1)"><rect fill="#C0C0C0" stroke="none" x="567" y="47" width="141.09716796875" height="39" opacity="0.2"/></g><g transform="translate(-62,-30) scale(1,1)"><rect fill="#ffffff" stroke="none" x="560" y="40" width="141.09716796875" height="39"/></g><g transform="translate(-62,-30) scale(1,1)"><path fill="none" stroke="#000000" d="M 560 40 L 701.09716796875 40 L 701.09716796875 79 L 560 79 L 560 40 Z Z" stroke-miterlimit="10"/></g><g transform="translate(-62,-30) scale(1,1)"><g><path fill="none" stroke="none"/><text fill="#000000" stroke="none" font-family="Arial" font-size="13px" font-style="normal" font-weight="bold" text-decoration="none" x="573.09912109375" y="59.5">Reverse Geocoding</text></g></g><g transform="translate(-62,-30) scale(1,1)"><path fill="none" stroke="#000000" d="M 631.5 80 L 631.5 726" stroke-miterlimit="10" stroke-dasharray="3"/></g><g transform="translate(-62,-30) scale(1,1)"><g><path fill="none" stroke="none"/><text fill="#000000" stroke="none" font-family="Arial" font-size="13px" font-style="normal" font-weight="normal" text-decoration="none" x="149" y="490">[No plates in picture]</text></g></g><g transform="translate(-62,-30) scale(1,1)"><g><path fill="none" stroke="none"/><text fill="#000000" stroke="none" font-family="Arial" font-size="13px" font-style="normal" font-weight="normal" text-decoration="none" x="149" y="554">[more than one plate]</text></g></g><g transform="translate(-62,-30) scale(1,1)"><g><path fill="none" stroke="none"/><text fill="#000000" stroke="none" font-family="Arial" font-size="13px" font-style="normal" font-weight="normal" text-decoration="none" x="149" y="610">[One plate found]</text></g></g><g transform="translate(-62,-30) scale(1,1)"><path fill="#ffffff" stroke="none" d="M 117.3926864346591 47.3 C 117.3926864346591 43.82060576 120.2710881568409 41 123.82177734375 41 C 127.3724665306591 41 130.25086825284092 43.82060576 130.25086825284092 47.3 C 130.25086825284092 50.779394239999995 127.3724665306591 53.6 123.82177734375 53.6 C 120.2710881568409 53.6 117.3926864346591 50.779394239999995 117.3926864346591 47.3 Z"/></g><g transform="translate(-62,-30) scale(1,1)"><path fill="none" stroke="#000000" d="M 117.3926864346591 47.3 C 117.3926864346591 43.82060576 120.2710881568409 41 123.82177734375 41 C 127.3724665306591 41 130.25086825284092 43.82060576 130.25086825284092 47.3 C 130.25086825284092 50.779394239999995 127.3724665306591 53.6 123.82177734375 53.6 C 120.2710881568409 53.6 117.3926864346591 50.779394239999995 117.3926864346591 47.3 Z" stroke-miterlimit="10"/></g><g transform="translate(-62,-30) scale(1,1)"><path fill="none" stroke="#000000" d="M 123.82177734375 53.6 L 123.82177734375 66.4" stroke-miterlimit="10"/></g><g transform="translate(-62,-30) scale(1,1)"><path fill="none" stroke="#000000" d="M 117.01450461647728 58.4 L 130.62905007102273 58.4" stroke-miterlimit="10"/></g><g transform="translate(-62,-30) scale(1,1)"><path fill="none" stroke="#000000" d="M 123.82177734375 66.4 L 114.36723188920455 79" stroke-miterlimit="10"/></g><g transform="translate(-62,-30) scale(1,1)"><path fill="none" stroke="#000000" d="M 123.82177734375 66.4 L 133.27632279829547 79" stroke-miterlimit="10"/></g><g transform="translate(-62,-30) scale(1,1)"><g><path fill="none" stroke="none"/><text fill="#000000" stroke="none" font-family="Arial" font-size="13px" font-style="normal" font-weight="bold" text-decoration="none" x="106.486328125" y="99.5">: User</text></g></g><g transform="translate(-62,-30) scale(1,1)"><path fill="none" stroke="#000000" d="M 124.5 105 L 124.5 810" stroke-miterlimit="10" stroke-dasharray="3"/></g><g transform="translate(-62,-30) scale(1,1)"><path fill="none" stroke="#000000" d="M 124 128 L 310 128" stroke-miterlimit="10"/></g><g transform="translate(-62,-30) scale(1,1)"><path fill="none" stroke="#000000" d="M 299.83732514237585 132.209517756016 L 310 128 L 299.83732514237585 123.79048224398402" stroke-miterlimit="10"/></g><g transform="translate(-62,-30) scale(1,1)"><g><path fill="none" stroke="none"/><text fill="#000000" stroke="none" font-family="Arial" font-size="13px" font-style="normal" font-weight="normal" text-decoration="none" x="147.5" y="124.5">1 : OpenReportViolation</text></g></g><g transform="translate(-62,-30) scale(1,1)"><rect fill="#ffffff" stroke="none" x="310" y="128" width="13" height="28"/></g><g transform="translate(-62,-30) scale(1,1)"><path fill="none" stroke="#000000" d="M 310 128 L 323 128 L 323 156 L 310 156 L 310 128 Z Z" stroke-miterlimit="10"/></g><g transform="translate(-62,-30) scale(1,1)"><path fill="none" stroke="#000000" d="M 310 146 L 124 146" stroke-miterlimit="10" stroke-dasharray="3"/></g><g transform="translate(-62,-30) scale(1,1)"><path fill="none" stroke="#000000" d="M 134.16267485762415 141.790482243984 L 124 146 L 134.16267485762415 150.209517756016" stroke-miterlimit="10"/></g><g transform="translate(-62,-30) scale(1,1)"><g><path fill="none" stroke="none"/><text fill="#000000" stroke="none" font-family="Arial" font-size="13px" font-style="normal" font-weight="normal" text-decoration="none" x="153.5" y="162.5">2 : ShowCameraView</text></g></g><g transform="translate(-62,-30) scale(1,1)"><path fill="none" stroke="#000000" d="M 124 200 L 310 200" stroke-miterlimit="10"/></g><g transform="translate(-62,-30) scale(1,1)"><path fill="none" stroke="#000000" d="M 299.83732514237585 204.209517756016 L 310 200 L 299.83732514237585 195.790482243984" stroke-miterlimit="10"/></g><g transform="translate(-62,-30) scale(1,1)"><g><path fill="none" stroke="none"/><text fill="#000000" stroke="none" font-family="Arial" font-size="13px" font-style="normal" font-weight="normal" text-decoration="none" x="174.5" y="196.5">3 : TakePicture</text></g></g><g transform="translate(-62,-30) scale(1,1)"><rect fill="#ffffff" stroke="none" x="310" y="200" width="13" height="28"/></g><g transform="translate(-62,-30) scale(1,1)"><path fill="none" stroke="#000000" d="M 310 200 L 323 200 L 323 228 L 310 228 L 310 200 Z Z" stroke-miterlimit="10"/></g><g transform="translate(-62,-30) scale(1,1)"><path fill="none" stroke="#000000" d="M 310 218 L 124 218" stroke-miterlimit="10" stroke-dasharray="3"/></g><g transform="translate(-62,-30) scale(1,1)"><path fill="none" stroke="#000000" d="M 134.16267485762415 213.790482243984 L 124 218 L 134.16267485762415 222.209517756016" stroke-miterlimit="10"/></g><g transform="translate(-62,-30) scale(1,1)"><g><path fill="none" stroke="none"/><text fill="#000000" stroke="none" font-family="Arial" font-size="13px" font-style="normal" font-weight="normal" text-decoration="none" x="164.5" y="234.5">4 : ShowPicTaken</text></g></g><g transform="translate(-62,-30) scale(1,1)"><path fill="none" stroke="#000000" d="M 124 320 L 310 320" stroke-miterlimit="10"/></g><g transform="translate(-62,-30) scale(1,1)"><path fill="none" stroke="#000000" d="M 299.83732514237585 324.209517756016 L 310 320 L 299.83732514237585 315.790482243984" stroke-miterlimit="10"/></g><g transform="translate(-62,-30) scale(1,1)"><g><path fill="none" stroke="none"/><text fill="#000000" stroke="none" font-family="Arial" font-size="13px" font-style="normal" font-weight="normal" text-decoration="none" x="167.5" y="316.5">5 : UseBrushTool</text></g></g><g transform="translate(-62,-30) scale(1,1)"><rect fill="#ffffff" stroke="none" x="310" y="320" width="13" height="28"/></g><g transform="translate(-62,-30) scale(1,1)"><path fill="none" stroke="#000000" d="M 310 320 L 323 320 L 323 348 L 310 348 L 310 320 Z Z" stroke-miterlimit="10"/></g><g transform="translate(-62,-30) scale(1,1)"><path fill="none" stroke="#000000" d="M 310 338 L 124 338" stroke-miterlimit="10" stroke-dasharray="3"/></g><g transform="translate(-62,-30) scale(1,1)"><path fill="none" stroke="#000000" d="M 134.16267485762415 333.790482243984 L 124 338 L 134.16267485762415 342.209517756016" stroke-miterlimit="10"/></g><g transform="translate(-62,-30) scale(1,1)"><g><path fill="none" stroke="none"/><text fill="#000000" stroke="none" font-family="Arial" font-size="13px" font-style="normal" font-weight="normal" text-decoration="none" x="178.5" y="354.5">6 : PaintArea</text></g></g><g transform="translate(-62,-30) scale(1,1)"><path fill="none" stroke="#000000" d="M 124 413 L 310 413" stroke-miterlimit="10"/></g><g transform="translate(-62,-30) scale(1,1)"><path fill="none" stroke="#000000" d="M 299.83732514237585 417.209517756016 L 310 413 L 299.83732514237585 408.790482243984" stroke-miterlimit="10"/></g><g transform="translate(-62,-30) scale(1,1)"><g><path fill="none" stroke="none"/><text fill="#000000" stroke="none" font-family="Arial" font-size="13px" font-style="normal" font-weight="normal" text-decoration="none" x="176.5" y="409.5">7 : ConfirmPic</text></g></g><g transform="translate(-62,-30) scale(1,1)"><rect fill="#ffffff" stroke="none" x="310" y="413" width="13" height="331"/></g><g transform="translate(-62,-30) scale(1,1)"><path fill="none" stroke="#000000" d="M 310 413 L 323 413 L 323 744 L 310 744 L 310 413 Z Z" stroke-miterlimit="10"/></g><g transform="translate(-62,-30) scale(1,1)"><path fill="none" stroke="#000000" d="M 323 440 L 477 440" stroke-miterlimit="10"/></g><g transform="translate(-62,-30) scale(1,1)"><path fill="#000000" stroke="none" d="M 466.83732514237585 444.209517756016 L 477 440 L 466.83732514237585 435.790482243984"/></g><g transform="translate(-62,-30) scale(1,1)"><path fill="none" stroke="#000000" d="M 466.83732514237585 444.209517756016 L 477 440 L 466.83732514237585 435.790482243984 L 466.83732514237585 444.209517756016" stroke-miterlimit="10"/></g><g transform="translate(-62,-30) scale(1,1)"><g><path fill="none" stroke="none"/><text fill="#000000" stroke="none" font-family="Arial" font-size="13px" font-style="normal" font-weight="normal" text-decoration="none" x="364.700439453125" y="435.5">8 : SendPic</text></g></g><g transform="translate(-62,-30) scale(1,1)"><rect fill="#ffffff" stroke="none" x="477" y="440" width="13" height="200"/></g><g transform="translate(-62,-30) scale(1,1)"><path fill="none" stroke="#000000" d="M 477 440 L 490 440 L 490 640 L 477 640 L 477 440 Z Z" stroke-miterlimit="10"/></g><g transform="translate(-62,-30) scale(1,1)"><path fill="none" stroke="#000000" d="M 477 488 L 323 488" stroke-miterlimit="10" stroke-dasharray="3"/></g><g transform="translate(-62,-30) scale(1,1)"><path fill="none" stroke="#000000" d="M 333.16267485762415 483.790482243984 L 323 488 L 333.16267485762415 492.209517756016" stroke-miterlimit="10"/></g><g transform="translate(-62,-30) scale(1,1)"><g><path fill="none" stroke="none"/><text fill="#000000" stroke="none" font-family="Arial" font-size="13px" font-style="normal" font-weight="normal" text-decoration="none" x="350.736328125" y="508.5">9 : NoPlatefound</text></g></g><g transform="translate(-62,-30) scale(1,1)"><path fill="none" stroke="#000000" d="M 477 544 L 323 544" stroke-miterlimit="10" stroke-dasharray="3"/></g><g transform="translate(-62,-30) scale(1,1)"><path fill="none" stroke="#000000" d="M 333.16267485762415 539.790482243984 L 323 544 L 333.16267485762415 548.209517756016" stroke-miterlimit="10"/></g><g transform="translate(-62,-30) scale(1,1)"><g><path fill="none" stroke="none"/><text fill="#000000" stroke="none" font-family="Arial" font-size="13px" font-style="normal" font-weight="normal" text-decoration="none" x="327.5" y="564.5">10 : MultiplePlatesFound</text></g></g><g transform="translate(-62,-30) scale(1,1)"><path fill="none" stroke="#000000" d="M 477 608 L 323 608" stroke-miterlimit="10" stroke-dasharray="3"/></g><g transform="translate(-62,-30) scale(1,1)"><path fill="none" stroke="#000000" d="M 333.16267485762415 603.790482243984 L 323 608 L 333.16267485762415 612.209517756016" stroke-miterlimit="10"/></g><g transform="translate(-62,-30) scale(1,1)"><g><path fill="none" stroke="none"/><text fill="#000000" stroke="none" font-family="Arial" font-size="13px" font-style="normal" font-weight="normal" text-decoration="none" x="331.982421875" y="628.5">11 : OnePlateDecoded</text></g></g><g transform="translate(-62,-30) scale(1,1)"><path fill="none" stroke="#000000" d="M 323 680 L 624 680" stroke-miterlimit="10"/></g><g transform="translate(-62,-30) scale(1,1)"><path fill="#000000" stroke="none" d="M 613.8373251423759 684.209517756016 L 624 680 L 613.8373251423758 675.790482243984"/></g><g transform="translate(-62,-30) scale(1,1)"><path fill="none" stroke="#000000" d="M 613.8373251423759 684.209517756016 L 624 680 L 613.8373251423758 675.790482243984 L 613.8373251423759 684.209517756016" stroke-miterlimit="10"/></g><g transform="translate(-62,-30) scale(1,1)"><g><path fill="none" stroke="none"/><text fill="#000000" stroke="none" font-family="Arial" font-size="13px" font-style="normal" font-weight="normal" text-decoration="none" x="411.5" y="676.5">12 : SendCoordinates</text></g></g><g transform="translate(-62,-30) scale(1,1)"><rect fill="#ffffff" stroke="none" x="624" y="680" width="13" height="28"/></g><g transform="translate(-62,-30) scale(1,1)"><path fill="none" stroke="#000000" d="M 624 680 L 637 680 L 637 708 L 624 708 L 624 680 Z Z" stroke-miterlimit="10"/></g><g transform="translate(-62,-30) scale(1,1)"><path fill="none" stroke="#000000" d="M 624 696 L 323 696" stroke-miterlimit="10" stroke-dasharray="3"/></g><g transform="translate(-62,-30) scale(1,1)"><path fill="none" stroke="#000000" d="M 333.16267485762415 691.790482243984 L 323 696 L 333.16267485762415 700.209517756016" stroke-miterlimit="10"/></g><g transform="translate(-62,-30) scale(1,1)"><g><path fill="none" stroke="none"/><text fill="#000000" stroke="none" font-family="Arial" font-size="13px" font-style="normal" font-weight="normal" text-decoration="none" x="409.5" y="712.5">13 : SendStreetName</text></g></g><g transform="translate(-62,-30) scale(1,1)"><path fill="none" stroke="#000000" d="M 310 721 L 124 721" stroke-miterlimit="10" stroke-dasharray="3"/></g><g transform="translate(-62,-30) scale(1,1)"><path fill="none" stroke="#000000" d="M 134.16267485762415 716.790482243984 L 124 721 L 134.16267485762415 725.209517756016" stroke-miterlimit="10"/></g><g transform="translate(-62,-30) scale(1,1)"><g><path fill="none" stroke="none"/><text fill="#000000" stroke="none" font-family="Arial" font-size="13px" font-style="normal" font-weight="normal" text-decoration="none" x="171.5" y="737.5">14 : ShowForm</text></g></g><g transform="translate(-62,-30) scale(1,1)"><path fill="none" stroke="#000000" d="M 124 774 L 310 774" stroke-miterlimit="10"/></g><g transform="translate(-62,-30) scale(1,1)"><path fill="none" stroke="#000000" d="M 299.83732514237585 778.209517756016 L 310 774 L 299.83732514237585 769.790482243984" stroke-miterlimit="10"/></g><g transform="translate(-62,-30) scale(1,1)"><g><path fill="none" stroke="none"/><text fill="#000000" stroke="none" font-family="Arial" font-size="13px" font-style="normal" font-weight="normal" text-decoration="none" x="153.5" y="770.5">15 : FilledFormSubmit</text></g></g><g transform="translate(-62,-30) scale(1,1)"><rect fill="#ffffff" stroke="none" x="310" y="774" width="13" height="28"/></g><g transform="translate(-62,-30) scale(1,1)"><path fill="none" stroke="#000000" d="M 310 774 L 323 774 L 323 802 L 310 802 L 310 774 Z Z" stroke-miterlimit="10"/></g><g transform="translate(-62,-30) scale(1,1)"><path fill="none" stroke="#000000" d="M 310 796 L 124 796" stroke-miterlimit="10" stroke-dasharray="3"/></g><g transform="translate(-62,-30) scale(1,1)"><path fill="none" stroke="#000000" d="M 134.16267485762415 791.790482243984 L 124 796 L 134.16267485762415 800.209517756016" stroke-miterlimit="10"/></g><g transform="translate(-62,-30) scale(1,1)"><g><path fill="none" stroke="none"/><text fill="#000000" stroke="none" font-family="Arial" font-size="13px" font-style="normal" font-weight="normal" text-decoration="none" x="151.5" y="812.5">16 : ViolationReported</text></g></g><g transform="translate(-62,-30) scale(1,1)"><path fill="none" stroke="#000000" d="M 96 288 L 360 288 L 360 368 L 96 368 L 96 288" stroke-miterlimit="10"/></g><g transform="translate(-62,-30) scale(1,1)"><path fill="#ffffff" stroke="none" d="M 96 288 L 96 310 L 130.07177734375 310 L 141.07177734375 299 L 141.07177734375 288 L 96 288"/></g><g transform="translate(-62,-30) scale(1,1)"><path fill="none" stroke="#000000" d="M 96 288 L 96 310 L 130.07177734375 310 L 141.07177734375 299 L 141.07177734375 288 L 96 288 L 96 288" stroke-miterlimit="10"/></g><g transform="translate(-62,-30) scale(1,1)"><g><path fill="none" stroke="none"/><text fill="#000000" stroke="none" font-family="Arial" font-size="13px" font-style="normal" font-weight="bold" text-decoration="none" x="101" y="305.5">opt</text></g></g><g transform="translate(-62,-30) scale(1,1)"><path fill="none" stroke="#000000" d="M 96 464 L 496 464 L 496 632 L 96 632 L 96 464" stroke-miterlimit="10"/></g><g transform="translate(-62,-30) scale(1,1)"><path fill="#ffffff" stroke="none" d="M 96 464 L 96 486 L 125.72998046875 486 L 136.72998046875 475 L 136.72998046875 464 L 96 464"/></g><g transform="translate(-62,-30) scale(1,1)"><path fill="none" stroke="#000000" d="M 96 464 L 96 486 L 125.72998046875 486 L 136.72998046875 475 L 136.72998046875 464 L 96 464 L 96 464" stroke-miterlimit="10"/></g><g transform="translate(-62,-30) scale(1,1)"><g><path fill="none" stroke="none"/><text fill="#000000" stroke="none" font-family="Arial" font-size="13px" font-style="normal" font-weight="bold" text-decoration="none" x="101" y="481.5">alt</text></g></g><g transform="translate(-62,-30) scale(1,1)"><path fill="none" stroke="#000000" d="M 96 530 L 496 530" stroke-miterlimit="10" stroke-dasharray="10,3"/></g><g transform="translate(-62,-30) scale(1,1)"><path fill="none" stroke="#000000" d="M 96 573 L 496 573" stroke-miterlimit="10" stroke-dasharray="10,3"/></g></g></svg>