<svg version="1.1" xmlns="http://www.w3.org/2000/svg" xmlns:xlink="http://www.w3.org/1999/xlink" width="710" height="830"><defs/><g><text fill="#eeeeee" stroke="none" font-family="Arial" font-size="24px" font-style="normal" font-weight="normal" text-decoration="none" x="0" y="0">UNREGISTERED</text><text fill="#eeeeee" stroke="none" font-family="Arial" font-size="24px" font-style="normal" font-weight="normal" text-decoration="none" x="0" y="30">UNREGISTERED</text><text fill="#eeeeee" stroke="none" font-family="Arial" font-size="24px" font-style="normal" font-weight="normal" text-decoration="none" x="0" y="60">UNREGISTERED</text><text fill="#eeeeee" stroke="none" font-family="Arial" font-size="24px" font-style="normal" font-weight="normal" text-decoration="none" x="0" y="90">UNREGISTERED</text><text fill="#eeeeee" stroke="none" font-family="Arial" font-size="24px" font-style="normal" font-weight="normal" text-decoration="none" x="0" y="120">UNREGISTERED</text><text fill="#eeeeee" stroke="none" font-family="Arial" font-size="24px" font-style="normal" font-weight="normal" text-decoration="none" x="0" y="150">UNREGISTERED</text><text fill="#eeeeee" stroke="none" font-family="Arial" font-size="24px" font-style="normal" font-weight="normal" text-decoration="none" x="0" y="180">UNREGISTERED</text><text fill="#eeeeee" stroke="none" font-family="Arial" font-size="24px" font-style="normal" font-weight="normal" text-decoration="none" x="0" y="210">UNREGISTERED</text><text fill="#eeeeee" stroke="none" font-family="Arial" font-size="24px" font-style="normal" font-weight="normal" text-decoration="none" x="0" y="240">UNREGISTERED</text><text fill="#eeeeee" stroke="none" font-family="Arial" font-size="24px" font-style="normal" font-weight="normal" text-decoration="none" x="0" y="270">UNREGISTERED</text><text fill="#eeeeee" stroke="none" font-family="Arial" font-size="24px" font-style="normal" font-weight="normal" text-decoration="none" x="0" y="300">UNREGISTERED</text><text fill="#eeeeee" stroke="none" font-family="Arial" font-size="24px" font-style="normal" font-weight="normal" text-decoration="none" x="0" y="330">UNREGISTERED</text><text fill="#eeeeee" stroke="none" font-family="Arial" font-size="24px" font-style="normal" font-weight="normal" text-decoration="none" x="0" y="360">UNREGISTERED</text><text fill="#eeeeee" stroke="none" font-family="Arial" font-size="24px" font-style="normal" font-weight="normal" text-decoration="none" x="0" y="390">UNREGISTERED</text><text fill="#eeeeee" stroke="none" font-family="Arial" font-size="24px" font-style="normal" font-weight="normal" text-decoration="none" x="0" y="420">UNREGISTERED</text><text fill="#eeeeee" stroke="none" font-family="Arial" font-size="24px" font-style="normal" font-weight="normal" text-decoration="none" x="0" y="450">UNREGISTERED</text><text fill="#eeeeee" stroke="none" font-family="Arial" font-size="24px" font-style="normal" font-weight="normal" text-decoration="none" x="0" y="480">UNREGISTERED</text><text fill="#eeeeee" stroke="none" font-family="Arial" font-size="24px" font-style="normal" font-weight="normal" text-decoration="none" x="0" y="510">UNREGISTERED</text><text fill="#eeeeee" stroke="none" font-family="Arial" font-size="24px" font-style="normal" font-weight="normal" text-decoration="none" x="0" y="540">UNREGISTERED</text><text fill="#eeeeee" stroke="none" font-family="Arial" font-size="24px" font-style="normal" font-weight="normal" text-decoration="none" x="0" y="570">UNREGISTERED</text><text fill="#eeeeee" stroke="none" font-family="Arial" font-size="24px" font-style="normal" font-weight="normal" text-decoration="none" x="0" y="600">UNREGISTERED</text><text fill="#eeeeee" stroke="none" font-family="Arial" font-size="24px" font-style="normal" font-weight="normal" text-decoration="none" x="0" y="630">UNREGISTERED</text><text fill="#eeeeee" stroke="none" font-family="Arial" font-size="24px" font-style="normal" font-weight="normal" text-decoration="none" x="0" y="660">UNREGISTERED</text><text fill="#eeeeee" stroke="none" font-family="Arial" font-size="24px" font-style="normal" font-weight="normal" text-decoration="none" x="0" y="690">UNREGISTERED</text><text fill="#eeeeee" stroke="none" font-family="Arial" font-size="24px" font-style="normal" font-weight="normal" text-decoration="none" x="0" y="720">UNREGISTERED</text><text fill="#eeeeee" stroke="none" font-family="Arial" font-size="24px" font-style="normal" font-weight="normal" text-decoration="none" x="0" y="750">UNREGISTERED</text><text fill="#eeeeee" stroke="none" font-family="Arial" font-size="24px" font-style="normal" font-weight="normal" text-decoration="none" x="0" y="780">UNREGISTERED</text><text fill="#eeeeee" stroke="none" font-family="Arial" font-size="24px" font-style="normal" font-weight="normal" text-decoration="none" x="0" y="810">UNREGISTERED</text><text fill="#eeeeee" stroke="none" font-family="Arial" font-size="24px" font-style="normal" font-weight="normal" text-decoration="none" x="200" y="0">UNREGISTERED</text><text fill="#eeeeee" stroke="none" font-family="Arial" font-size="24px" font-style="normal" font-weight="normal" text-decoration="none" x="200" y="30">UNREGISTERED</text><text fill="#eeeeee" stroke="none" font-family="Arial" font-size="24px" font-style="normal" font-weight="normal" text-decoration="none" x="200" y="60">UNREGISTERED</text><text fill="#eeeeee" stroke="none" font-family="Arial" font-size="24px" font-style="normal" font-weight="normal" text-decoration="none" x="200" y="90">UNREGISTERED</text><text fill="#eeeeee" stroke="none" font-family="Arial" font-size="24px" font-style="normal" font-weight="normal" text-decoration="none" x="200" y="120">UNREGISTERED</text><text fill="#eeeeee" stroke="none" font-family="Arial" font-size="24px" font-style="normal" font-weight="normal" text-decoration="none" x="200" y="150">UNREGISTERED</text><text fill="#eeeeee" stroke="none" font-family="Arial" font-size="24px" font-style="normal" font-weight="normal" text-decoration="none" x="200" y="180">UNREGISTERED</text><text fill="#eeeeee" stroke="none" font-family="Arial" font-size="24px" font-style="normal" font-weight="normal" text-decoration="none" x="200" y="210">UNREGISTERED</text><text fill="#eeeeee" stroke="none" font-family="Arial" font-size="24px" font-style="normal" font-weight="normal" text-decoration="none" x="200" y="240">UNREGISTERED</text><text fill="#eeeeee" stroke="none" font-family="Arial" font-size="24px" font-style="normal" font-weight="normal" text-decoration="none" x="200" y="270">UNREGISTERED</text><text fill="#eeeeee" stroke="none" font-family="Arial" font-size="24px" font-style="normal" font-weight="normal" text-decoration="none" x="200" y="300">UNREGISTERED</text><text fill="#eeeeee" stroke="none" font-family="Arial" font-size="24px" font-style="normal" font-weight="normal" text-decoration="none" x="200" y="330">UNREGISTERED</text><text fill="#eeeeee" stroke="none" font-family="Arial" font-size="24px" font-style="normal" font-weight="normal" text-decoration="none" x="200" y="360">UNREGISTERED</text><text fill="#eeeeee" stroke="none" font-family="Arial" font-size="24px" font-style="normal" font-weight="normal" text-decoration="none" x="200" y="390">UNREGISTERED</text><text fill="#eeeeee" stroke="none" font-family="Arial" font-size="24px" font-style="normal" font-weight="normal" text-decoration="none" x="200" y="420">UNREGISTERED</text><text fill="#eeeeee" stroke="none" font-family="Arial" font-size="24px" font-style="normal" font-weight="normal" text-decoration="none" x="200" y="450">UNREGISTERED</text><text fill="#eeeeee" stroke="none" font-family="Arial" font-size="24px" font-style="normal" font-weight="normal" text-decoration="none" x="200" y="480">UNREGISTERED</text><text fill="#eeeeee" stroke="none" font-family="Arial" font-size="24px" font-style="normal" font-weight="normal" text-decoration="none" x="200" y="510">UNREGISTERED</text><text fill="#eeeeee" stroke="none" font-family="Arial" font-size="24px" font-style="normal" font-weight="normal" text-decoration="none" x="200" y="540">UNREGISTERED</text><text fill="#eeeeee" stroke="none" font-family="Arial" font-size="24px" font-style="normal" font-weight="normal" text-decoration="none" x="200" y="570">UNREGISTERED</text><text fill="#eeeeee" stroke="none" font-family="Arial" font-size="24px" font-style="normal" font-weight="normal" text-decoration="none" x="200" y="600">UNREGISTERED</text><text fill="#eeeeee" stroke="none" font-family="Arial" font-size="24px" font-style="normal" font-weight="normal" text-decoration="none" x="200" y="630">UNREGISTERED</text><text fill="#eeeeee" stroke="none" font-family="Arial" font-size="24px" font-style="normal" font-weight="normal" text-decoration="none" x="200" y="660">UNREGISTERED</text><text fill="#eeeeee" stroke="none" font-family="Arial" font-size="24px" font-style="normal" font-weight="normal" text-decoration="none" x="200" y="690">UNREGISTERED</text><text fill="#eeeeee" stroke="none" font-family="Arial" font-size="24px" font-style="normal" font-weight="normal" text-decoration="none" x="200" y="720">UNREGISTERED</text><text fill="#eeeeee" stroke="none" font-family="Arial" font-size="24px" font-style="normal" font-weight="normal" text-decoration="none" x="200" y="750">UNREGISTERED</text><text fill="#eeeeee" stroke="none" font-family="Arial" font-size="24px" font-style="normal" font-weight="normal" text-decoration="none" x="200" y="780">UNREGISTERED</text><text fill="#eeeeee" stroke="none" font-family="Arial" font-size="24px" font-style="normal" font-weight="normal" text-decoration="none" x="200" y="810">UNREGISTERED</text><text fill="#eeeeee" stroke="none" font-family="Arial" font-size="24px" font-style="normal" font-weight="normal" text-decoration="none" x="400" y="0">UNREGISTERED</text><text fill="#eeeeee" stroke="none" font-family="Arial" font-size="24px" font-style="normal" font-weight="normal" text-decoration="none" x="400" y="30">UNREGISTERED</text><text fill="#eeeeee" stroke="none" font-family="Arial" font-size="24px" font-style="normal" font-weight="normal" text-decoration="none" x="400" y="60">UNREGISTERED</text><text fill="#eeeeee" stroke="none" font-family="Arial" font-size="24px" font-style="normal" font-weight="normal" text-decoration="none" x="400" y="90">UNREGISTERED</text><text fill="#eeeeee" stroke="none" font-family="Arial" font-size="24px" font-style="normal" font-weight="normal" text-decoration="none" x="400" y="120">UNREGISTERED</text><text fill="#eeeeee" stroke="none" font-family="Arial" font-size="24px" font-style="normal" font-weight="normal" text-decoration="none" x="400" y="150">UNREGISTERED</text><text fill="#eeeeee" stroke="none" font-family="Arial" font-size="24px" font-style="normal" font-weight="normal" text-decoration="none" x="400" y="180">UNREGISTERED</text><text fill="#eeeeee" stroke="none" font-family="Arial" font-size="24px" font-style="normal" font-weight="normal" text-decoration="none" x="400" y="210">UNREGISTERED</text><text fill="#eeeeee" stroke="none" font-family="Arial" font-size="24px" font-style="normal" font-weight="normal" text-decoration="none" x="400" y="240">UNREGISTERED</text><text fill="#eeeeee" stroke="none" font-family="Arial" font-size="24px" font-style="normal" font-weight="normal" text-decoration="none" x="400" y="270">UNREGISTERED</text><text fill="#eeeeee" stroke="none" font-family="Arial" font-size="24px" font-style="normal" font-weight="normal" text-decoration="none" x="400" y="300">UNREGISTERED</text><text fill="#eeeeee" stroke="none" font-family="Arial" font-size="24px" font-style="normal" font-weight="normal" text-decoration="none" x="400" y="330">UNREGISTERED</text><text fill="#eeeeee" stroke="none" font-family="Arial" font-size="24px" font-style="normal" font-weight="normal" text-decoration="none" x="400" y="360">UNREGISTERED</text><text fill="#eeeeee" stroke="none" font-family="Arial" font-size="24px" font-style="normal" font-weight="normal" text-decoration="none" x="400" y="390">UNREGISTERED</text><text fill="#eeeeee" stroke="none" font-family="Arial" font-size="24px" font-style="normal" font-weight="normal" text-decoration="none" x="400" y="420">UNREGISTERED</text><text fill="#eeeeee" stroke="none" font-family="Arial" font-size="24px" font-style="normal" font-weight="normal" text-decoration="none" x="400" y="450">UNREGISTERED</text><text fill="#eeeeee" stroke="none" font-family="Arial" font-size="24px" font-style="normal" font-weight="normal" text-decoration="none" x="400" y="480">UNREGISTERED</text><text fill="#eeeeee" stroke="none" font-family="Arial" font-size="24px" font-style="normal" font-weight="normal" text-decoration="none" x="400" y="510">UNREGISTERED</text><text fill="#eeeeee" stroke="none" font-family="Arial" font-size="24px" font-style="normal" font-weight="normal" text-decoration="none" x="400" y="540">UNREGISTERED</text><text fill="#eeeeee" stroke="none" font-family="Arial" font-size="24px" font-style="normal" font-weight="normal" text-decoration="none" x="400" y="570">UNREGISTERED</text><text fill="#eeeeee" stroke="none" font-family="Arial" font-size="24px" font-style="normal" font-weight="normal" text-decoration="none" x="400" y="600">UNREGISTERED</text><text fill="#eeeeee" stroke="none" font-family="Arial" font-size="24px" font-style="normal" font-weight="normal" text-decoration="none" x="400" y="630">UNREGISTERED</text><text fill="#eeeeee" stroke="none" font-family="Arial" font-size="24px" font-style="normal" font-weight="normal" text-decoration="none" x="400" y="660">UNREGISTERED</text><text fill="#eeeeee" stroke="none" font-family="Arial" font-size="24px" font-style="normal" font-weight="normal" text-decoration="none" x="400" y="690">UNREGISTERED</text><text fill="#eeeeee" stroke="none" font-family="Arial" font-size="24px" font-style="normal" font-weight="normal" text-decoration="none" x="400" y="720">UNREGISTERED</text><text fill="#eeeeee" stroke="none" font-family="Arial" font-size="24px" font-style="normal" font-weight="normal" text-decoration="none" x="400" y="750">UNREGISTERED</text><text fill="#eeeeee" stroke="none" font-family="Arial" font-size="24px" font-style="normal" font-weight="normal" text-decoration="none" x="400" y="780">UNREGISTERED</text><text fill="#eeeeee" stroke="none" font-family="Arial" font-size="24px" font-style="normal" font-weight="normal" text-decoration="none" x="400" y="810">UNREGISTERED</text><text fill="#eeeeee" stroke="none" font-family="Arial" font-size="24px" font-style="normal" font-weight="normal" text-decoration="none" x="600" y="0">UNREGISTERED</text><text fill="#eeeeee" stroke="none" font-family="Arial" font-size="24px" font-style="normal" font-weight="normal" text-decoration="none" x="600" y="30">UNREGISTERED</text><text fill="#eeeeee" stroke="none" font-family="Arial" font-size="24px" font-style="normal" font-weight="normal" text-decoration="none" x="600" y="60">UNREGISTERED</text><text fill="#eeeeee" stroke="none" font-family="Arial" font-size="24px" font-style="normal" font-weight="normal" text-decoration="none" x="600" y="90">UNREGISTERED</text><text fill="#eeeeee" stroke="none" font-family="Arial" font-size="24px" font-style="normal" font-weight="normal" text-decoration="none" x="600" y="120">UNREGISTERED</text><text fill="#eeeeee" stroke="none" font-family="Arial" font-size="24px" font-style="normal" font-weight="normal" text-decoration="none" x="600" y="150">UNREGISTERED</text><text fill="#eeeeee" stroke="none" font-family="Arial" font-size="24px" font-style="normal" font-weight="normal" text-decoration="none" x="600" y="180">UNREGISTERED</text><text fill="#eeeeee" stroke="none" font-family="Arial" font-size="24px" font-style="normal" font-weight="normal" text-decoration="none" x="600" y="210">UNREGISTERED</text><text fill="#eeeeee" stroke="none" font-family="Arial" font-size="24px" font-style="normal" font-weight="normal" text-decoration="none" x="600" y="240">UNREGISTERED</text><text fill="#eeeeee" stroke="none" font-family="Arial" font-size="24px" font-style="normal" font-weight="normal" text-decoration="none" x="600" y="270">UNREGISTERED</text><text fill="#eeeeee" stroke="none" font-family="Arial" font-size="24px" font-style="normal" font-weight="normal" text-decoration="none" x="600" y="300">UNREGISTERED</text><text fill="#eeeeee" stroke="none" font-family="Arial" font-size="24px" font-style="normal" font-weight="normal" text-decoration="none" x="600" y="330">UNREGISTERED</text><text fill="#eeeeee" stroke="none" font-family="Arial" font-size="24px" font-style="normal" font-weight="normal" text-decoration="none" x="600" y="360">UNREGISTERED</text><text fill="#eeeeee" stroke="none" font-family="Arial" font-size="24px" font-style="normal" font-weight="normal" text-decoration="none" x="600" y="390">UNREGISTERED</text><text fill="#eeeeee" stroke="none" font-family="Arial" font-size="24px" font-style="normal" font-weight="normal" text-decoration="none" x="600" y="420">UNREGISTERED</text><text fill="#eeeeee" stroke="none" font-family="Arial" font-size="24px" font-style="normal" font-weight="normal" text-decoration="none" x="600" y="450">UNREGISTERED</text><text fill="#eeeeee" stroke="none" font-family="Arial" font-size="24px" font-style="normal" font-weight="normal" text-decoration="none" x="600" y="480">UNREGISTERED</text><text fill="#eeeeee" stroke="none" font-family="Arial" font-size="24px" font-style="normal" font-weight="normal" text-decoration="none" x="600" y="510">UNREGISTERED</text><text fill="#eeeeee" stroke="none" font-family="Arial" font-size="24px" font-style="normal" font-weight="normal" text-decoration="none" x="600" y="540">UNREGISTERED</text><text fill="#eeeeee" stroke="none" font-family="Arial" font-size="24px" font-style="normal" font-weight="normal" text-decoration="none" x="600" y="570">UNREGISTERED</text><text fill="#eeeeee" stroke="none" font-family="Arial" font-size="24px" font-style="normal" font-weight="normal" text-decoration="none" x="600" y="600">UNREGISTERED</text><text fill="#eeeeee" stroke="none" font-family="Arial" font-size="24px" font-style="normal" font-weight="normal" text-decoration="none" x="600" y="630">UNREGISTERED</text><text fill="#eeeeee" stroke="none" font-family="Arial" font-size="24px" font-style="normal" font-weight="normal" text-decoration="none" x="600" y="660">UNREGISTERED</text><text fill="#eeeeee" stroke="none" font-family="Arial" font-size="24px" font-style="normal" font-weight="normal" text-decoration="none" x="600" y="690">UNREGISTERED</text><text fill="#eeeeee" stroke="none" font-family="Arial" font-size="24px" font-style="normal" font-weight="normal" text-decoration="none" x="600" y="720">UNREGISTERED</text><text fill="#eeeeee" stroke="none" font-family="Arial" font-size="24px" font-style="normal" font-weight="normal" text-decoration="none" x="600" y="750">UNREGISTERED</text><text fill="#eeeeee" stroke="none" font-family="Arial" font-size="24px" font-style="normal" font-weight="normal" text-decoration="none" x="600" y="780">UNREGISTERED</text><text fill="#eeeeee" stroke="none" font-family="Arial" font-size="24px" font-style="normal" font-weight="normal" text-decoration="none" x="600" y="810">UNREGISTERED</text><g transform="translate(-46,-118) scale(1,1)"><path fill="#ffffff" stroke="none" d="M 94.55070774147727 273.68 C 94.55070774147727 268.886167936 98.43655006642273 265 103.22998046875 265 C 108.02341087107727 265 111.90925319602273 268.886167936 111.90925319602273 273.68 C 111.90925319602273 278.473832064 108.02341087107727 282.36 103.22998046875 282.36 C 98.43655006642273 282.36 94.55070774147727 278.473832064 94.55070774147727 273.68 Z"/></g><g transform="translate(-46,-118) scale(1,1)"><path fill="none" stroke="#000000" d="M 94.55070774147727 273.68 C 94.55070774147727 268.886167936 98.43655006642273 265 103.22998046875 265 C 108.02341087107727 265 111.90925319602273 268.886167936 111.90925319602273 273.68 C 111.90925319602273 278.473832064 108.02341087107727 282.36 103.22998046875 282.36 C 98.43655006642273 282.36 94.55070774147727 278.473832064 94.55070774147727 273.68 Z" stroke-miterlimit="10"/></g><g transform="translate(-46,-118) scale(1,1)"><path fill="none" stroke="#000000" d="M 103.22998046875 282.36 L 103.22998046875 299.64" stroke-miterlimit="10"/></g><g transform="translate(-46,-118) scale(1,1)"><path fill="none" stroke="#000000" d="M 94.04016228693182 288.84 L 112.41979865056818 288.84" stroke-miterlimit="10"/></g><g transform="translate(-46,-118) scale(1,1)"><path fill="none" stroke="#000000" d="M 103.22998046875 299.64 L 90.46634410511363 317" stroke-miterlimit="10"/></g><g transform="translate(-46,-118) scale(1,1)"><path fill="none" stroke="#000000" d="M 103.22998046875 299.64 L 115.99361683238637 317" stroke-miterlimit="10"/></g><g transform="translate(-46,-118) scale(1,1)"><g><path fill="none" stroke="none"/><text fill="#000000" stroke="none" font-family="Arial" font-size="13px" font-style="normal" font-weight="bold" text-decoration="none" x="77.94091796875" y="337.5">EndUser</text></g></g><g transform="translate(-46,-118) scale(1,1)"><path fill="#ffffff" stroke="none" d="M 95.15935031960227 537.6800000000001 C 95.15935031960227 532.8861679360001 99.04519264454773 529 103.838623046875 529 C 108.63205344920227 529 112.51789577414773 532.8861679360001 112.51789577414773 537.6800000000001 C 112.51789577414773 542.473832064 108.63205344920227 546.36 103.838623046875 546.36 C 99.04519264454773 546.36 95.15935031960227 542.473832064 95.15935031960227 537.6800000000001 Z"/></g><g transform="translate(-46,-118) scale(1,1)"><path fill="none" stroke="#000000" d="M 95.15935031960227 537.6800000000001 C 95.15935031960227 532.8861679360001 99.04519264454773 529 103.838623046875 529 C 108.63205344920227 529 112.51789577414773 532.8861679360001 112.51789577414773 537.6800000000001 C 112.51789577414773 542.473832064 108.63205344920227 546.36 103.838623046875 546.36 C 99.04519264454773 546.36 95.15935031960227 542.473832064 95.15935031960227 537.6800000000001 Z" stroke-miterlimit="10"/></g><g transform="translate(-46,-118) scale(1,1)"><path fill="none" stroke="#000000" d="M 103.838623046875 546.36 L 103.838623046875 563.64" stroke-miterlimit="10"/></g><g transform="translate(-46,-118) scale(1,1)"><path fill="none" stroke="#000000" d="M 94.64880486505682 552.84 L 113.02844122869318 552.84" stroke-miterlimit="10"/></g><g transform="translate(-46,-118) scale(1,1)"><path fill="none" stroke="#000000" d="M 103.838623046875 563.64 L 91.07498668323863 581" stroke-miterlimit="10"/></g><g transform="translate(-46,-118) scale(1,1)"><path fill="none" stroke="#000000" d="M 103.838623046875 563.64 L 116.60225941051137 581" stroke-miterlimit="10"/></g><g transform="translate(-46,-118) scale(1,1)"><g><path fill="none" stroke="none"/><text fill="#000000" stroke="none" font-family="Arial" font-size="13px" font-style="normal" font-weight="bold" text-decoration="none" x="64.464111328125" y="601.5">AuthorityUser</text></g></g><g transform="translate(-46,-118) scale(1,1)"><path fill="#C0C0C0" stroke="none" d="M 343 152 C 343 142.6111584 365.6096176 135 393.5 135 C 421.3903824 135 444 142.6111584 444 152 C 444 161.3888416 421.3903824 169 393.5 169 C 365.6096176 169 343 161.3888416 343 152 Z" opacity="0.2"/></g><g transform="translate(-46,-118) scale(1,1)"><path fill="#ffffff" stroke="none" d="M 336 145 C 336 135.6111584 358.6096176 128 386.5 128 C 414.3903824 128 437 135.6111584 437 145 C 437 154.3888416 414.3903824 162 386.5 162 C 358.6096176 162 336 154.3888416 336 145 Z"/></g><g transform="translate(-46,-118) scale(1,1)"><path fill="none" stroke="#000000" d="M 336 145 C 336 135.6111584 358.6096176 128 386.5 128 C 414.3903824 128 437 135.6111584 437 145 C 437 154.3888416 414.3903824 162 386.5 162 C 358.6096176 162 336 154.3888416 336 145 Z" stroke-miterlimit="10"/></g><g transform="translate(-46,-118) scale(1,1)"><g><path fill="none" stroke="none"/><text fill="#000000" stroke="none" font-family="Arial" font-size="13px" font-style="normal" font-weight="bold" text-decoration="none" x="363.016845703125" y="152">Sign-Up</text></g></g><g transform="translate(-46,-118) scale(1,1)"><path fill="#C0C0C0" stroke="none" d="M 319 232 C 319 222.6111584 341.6096176 215 369.5 215 C 397.3903824 215 420 222.6111584 420 232 C 420 241.3888416 397.3903824 249 369.5 249 C 341.6096176 249 319 241.3888416 319 232 Z" opacity="0.2"/></g><g transform="translate(-46,-118) scale(1,1)"><path fill="#ffffff" stroke="none" d="M 312 225 C 312 215.6111584 334.6096176 208 362.5 208 C 390.3903824 208 413 215.6111584 413 225 C 413 234.3888416 390.3903824 242 362.5 242 C 334.6096176 242 312 234.3888416 312 225 Z"/></g><g transform="translate(-46,-118) scale(1,1)"><path fill="none" stroke="#000000" d="M 312 225 C 312 215.6111584 334.6096176 208 362.5 208 C 390.3903824 208 413 215.6111584 413 225 C 413 234.3888416 390.3903824 242 362.5 242 C 334.6096176 242 312 234.3888416 312 225 Z" stroke-miterlimit="10"/></g><g transform="translate(-46,-118) scale(1,1)"><g><path fill="none" stroke="none"/><text fill="#000000" stroke="none" font-family="Arial" font-size="13px" font-style="normal" font-weight="bold" text-decoration="none" x="346.595947265625" y="232">Login</text></g></g><g transform="translate(-46,-118) scale(1,1)"><path fill="#C0C0C0" stroke="none" d="M 311 312 C 311 302.6111584 350.6227952 295 399.5 295 C 448.3772048 295 488 302.6111584 488 312 C 488 321.3888416 448.3772048 329 399.5 329 C 350.6227952 329 311 321.3888416 311 312 Z" opacity="0.2"/></g><g transform="translate(-46,-118) scale(1,1)"><path fill="#ffffff" stroke="none" d="M 304 305 C 304 295.6111584 343.6227952 288 392.5 288 C 441.3772048 288 481 295.6111584 481 305 C 481 314.3888416 441.3772048 322 392.5 322 C 343.6227952 322 304 314.3888416 304 305 Z"/></g><g transform="translate(-46,-118) scale(1,1)"><path fill="none" stroke="#000000" d="M 304 305 C 304 295.6111584 343.6227952 288 392.5 288 C 441.3772048 288 481 295.6111584 481 305 C 481 314.3888416 441.3772048 322 392.5 322 C 343.6227952 322 304 314.3888416 304 305 Z" stroke-miterlimit="10"/></g><g transform="translate(-46,-118) scale(1,1)"><g><path fill="none" stroke="none"/><text fill="#000000" stroke="none" font-family="Arial" font-size="13px" font-style="normal" font-weight="bold" text-decoration="none" x="337.951416015625" y="312">Recover Password</text></g></g><g transform="translate(-46,-118) scale(1,1)"><path fill="#C0C0C0" stroke="none" d="M 279 520 C 279 510.6111584 306.0867696 503 339.5 503 C 372.9132304 503 400 510.6111584 400 520 C 400 529.3888416 372.9132304 537 339.5 537 C 306.0867696 537 279 529.3888416 279 520 Z" opacity="0.2"/></g><g transform="translate(-46,-118) scale(1,1)"><path fill="#ffffff" stroke="none" d="M 272 513 C 272 503.6111584 299.0867696 496 332.5 496 C 365.9132304 496 393 503.6111584 393 513 C 393 522.3888416 365.9132304 530 332.5 530 C 299.0867696 530 272 522.3888416 272 513 Z"/></g><g transform="translate(-46,-118) scale(1,1)"><path fill="none" stroke="#000000" d="M 272 513 C 272 503.6111584 299.0867696 496 332.5 496 C 365.9132304 496 393 503.6111584 393 513 C 393 522.3888416 365.9132304 530 332.5 530 C 299.0867696 530 272 522.3888416 272 513 Z" stroke-miterlimit="10"/></g><g transform="translate(-46,-118) scale(1,1)"><g><path fill="none" stroke="none"/><text fill="#000000" stroke="none" font-family="Arial" font-size="13px" font-style="normal" font-weight="bold" text-decoration="none" x="296.734130859375" y="520">Take Picture</text></g></g><g transform="translate(-46,-118) scale(1,1)"><path fill="#C0C0C0" stroke="none" d="M 279 608 C 279 598.6111584 306.5344848 591 340.5 591 C 374.4655152 591 402 598.6111584 402 608 C 402 617.3888416 374.4655152 625 340.5 625 C 306.5344848 625 279 617.3888416 279 608 Z" opacity="0.2"/></g><g transform="translate(-46,-118) scale(1,1)"><path fill="#ffffff" stroke="none" d="M 272 601 C 272 591.6111584 299.5344848 584 333.5 584 C 367.4655152 584 395 591.6111584 395 601 C 395 610.3888416 367.4655152 618 333.5 618 C 299.5344848 618 272 610.3888416 272 601 Z"/></g><g transform="translate(-46,-118) scale(1,1)"><path fill="none" stroke="#000000" d="M 272 601 C 272 591.6111584 299.5344848 584 333.5 584 C 367.4655152 584 395 591.6111584 395 601 C 395 610.3888416 367.4655152 618 333.5 618 C 299.5344848 618 272 610.3888416 272 601 Z" stroke-miterlimit="10"/></g><g transform="translate(-46,-118) scale(1,1)"><g><path fill="none" stroke="none"/><text fill="#000000" stroke="none" font-family="Arial" font-size="13px" font-style="normal" font-weight="bold" text-decoration="none" x="297.385009765625" y="608">Fill the Form</text></g></g><g transform="translate(-46,-118) scale(1,1)"><path fill="#C0C0C0" stroke="none" d="M 255 696 C 255 686.6111584 293.7273648 679 341.5 679 C 389.2726352 679 428 686.6111584 428 696 C 428 705.3888416 389.2726352 713 341.5 713 C 293.7273648 713 255 705.3888416 255 696 Z" opacity="0.2"/></g><g transform="translate(-46,-118) scale(1,1)"><path fill="#ffffff" stroke="none" d="M 248 689 C 248 679.6111584 286.7273648 672 334.5 672 C 382.2726352 672 421 679.6111584 421 689 C 421 698.3888416 382.2726352 706 334.5 706 C 286.7273648 706 248 698.3888416 248 689 Z"/></g><g transform="translate(-46,-118) scale(1,1)"><path fill="none" stroke="#000000" d="M 248 689 C 248 679.6111584 286.7273648 672 334.5 672 C 382.2726352 672 421 679.6111584 421 689 C 421 698.3888416 382.2726352 706 334.5 706 C 286.7273648 706 248 698.3888416 248 689 Z" stroke-miterlimit="10"/></g><g transform="translate(-46,-118) scale(1,1)"><g><path fill="none" stroke="none"/><text fill="#000000" stroke="none" font-family="Arial" font-size="13px" font-style="normal" font-weight="bold" text-decoration="none" x="281.855712890625" y="696">Violation InfoPage</text></g></g><g transform="translate(-46,-118) scale(1,1)"><path fill="#C0C0C0" stroke="none" d="M 271 824 C 271 814.6111584 304.1309248 807 345 807 C 385.8690752 807 419 814.6111584 419 824 C 419 833.3888416 385.8690752 841 345 841 C 304.1309248 841 271 833.3888416 271 824 Z" opacity="0.2"/></g><g transform="translate(-46,-118) scale(1,1)"><path fill="#ffffff" stroke="none" d="M 264 817 C 264 807.6111584 297.1309248 800 338 800 C 378.8690752 800 412 807.6111584 412 817 C 412 826.3888416 378.8690752 834 338 834 C 297.1309248 834 264 826.3888416 264 817 Z"/></g><g transform="translate(-46,-118) scale(1,1)"><path fill="none" stroke="#000000" d="M 264 817 C 264 807.6111584 297.1309248 800 338 800 C 378.8690752 800 412 807.6111584 412 817 C 412 826.3888416 378.8690752 834 338 834 C 297.1309248 834 264 826.3888416 264 817 Z" stroke-miterlimit="10"/></g><g transform="translate(-46,-118) scale(1,1)"><g><path fill="none" stroke="none"/><text fill="#000000" stroke="none" font-family="Arial" font-size="13px" font-style="normal" font-weight="bold" text-decoration="none" x="292.477783203125" y="824">Street Heatmap</text></g></g><g transform="translate(-46,-118) scale(1,1)"><path fill="#C0C0C0" stroke="none" d="M 295 928 C 295 918.6111584 317.6096176 911 345.5 911 C 373.3903824 911 396 918.6111584 396 928 C 396 937.3888416 373.3903824 945 345.5 945 C 317.6096176 945 295 937.3888416 295 928 Z" opacity="0.2"/></g><g transform="translate(-46,-118) scale(1,1)"><path fill="#ffffff" stroke="none" d="M 288 921 C 288 911.6111584 310.6096176 904 338.5 904 C 366.3903824 904 389 911.6111584 389 921 C 389 930.3888416 366.3903824 938 338.5 938 C 310.6096176 938 288 930.3888416 288 921 Z"/></g><g transform="translate(-46,-118) scale(1,1)"><path fill="none" stroke="#000000" d="M 288 921 C 288 911.6111584 310.6096176 904 338.5 904 C 366.3903824 904 389 911.6111584 389 921 C 389 930.3888416 366.3903824 938 338.5 938 C 310.6096176 938 288 930.3888416 288 921 Z" stroke-miterlimit="10"/></g><g transform="translate(-46,-118) scale(1,1)"><g><path fill="none" stroke="none"/><text fill="#000000" stroke="none" font-family="Arial" font-size="13px" font-style="normal" font-weight="bold" text-decoration="none" x="314.2900390625" y="928">Vehicles</text></g></g><g transform="translate(-46,-118) scale(1,1)"><path fill="#C0C0C0" stroke="none" d="M 575 864 C 575 854.6111584 611.0410736 847 655.5 847 C 699.9589264 847 736 854.6111584 736 864 C 736 873.3888416 699.9589264 881 655.5 881 C 611.0410736 881 575 873.3888416 575 864 Z" opacity="0.2"/></g><g transform="translate(-46,-118) scale(1,1)"><path fill="#ffffff" stroke="none" d="M 568 857 C 568 847.6111584 604.0410736 840 648.5 840 C 692.9589264 840 729 847.6111584 729 857 C 729 866.3888416 692.9589264 874 648.5 874 C 604.0410736 874 568 866.3888416 568 857 Z"/></g><g transform="translate(-46,-118) scale(1,1)"><path fill="none" stroke="#000000" d="M 568 857 C 568 847.6111584 604.0410736 840 648.5 840 C 692.9589264 840 729 847.6111584 729 857 C 729 866.3888416 692.9589264 874 648.5 874 C 604.0410736 874 568 866.3888416 568 857 Z" stroke-miterlimit="10"/></g><g transform="translate(-46,-118) scale(1,1)"><g><path fill="none" stroke="none"/><text fill="#000000" stroke="none" font-family="Arial" font-size="13px" font-style="normal" font-weight="bold" text-decoration="none" x="600.089599609375" y="864">Mine Information</text></g></g><g transform="translate(-46,-118) scale(1,1)"><path fill="#C0C0C0" stroke="none" d="M 599 616 C 599 606.6111584 633.4740704 599 676 599 C 718.5259296 599 753 606.6111584 753 616 C 753 625.3888416 718.5259296 633 676 633 C 633.4740704 633 599 625.3888416 599 616 Z" opacity="0.2"/></g><g transform="translate(-46,-118) scale(1,1)"><path fill="#ffffff" stroke="none" d="M 592 609 C 592 599.6111584 626.4740704 592 669 592 C 711.5259296 592 746 599.6111584 746 609 C 746 618.3888416 711.5259296 626 669 626 C 626.4740704 626 592 618.3888416 592 609 Z"/></g><g transform="translate(-46,-118) scale(1,1)"><path fill="none" stroke="#000000" d="M 592 609 C 592 599.6111584 626.4740704 592 669 592 C 711.5259296 592 746 599.6111584 746 609 C 746 618.3888416 711.5259296 626 669 626 C 626.4740704 626 592 618.3888416 592 609 Z" stroke-miterlimit="10"/></g><g transform="translate(-46,-118) scale(1,1)"><g><path fill="none" stroke="none"/><text fill="#000000" stroke="none" font-family="Arial" font-size="13px" font-style="normal" font-weight="bold" text-decoration="none" x="622.868408203125" y="616">Report Violation</text></g></g><g transform="translate(-46,-118) scale(1,1)"><path fill="none" stroke="#000000" d="M 567 874 L 390 910" stroke-miterlimit="10" stroke-dasharray="3"/></g><g transform="translate(-46,-118) scale(1,1)"><path fill="none" stroke="#000000" d="M 399.1197822669546 903.8494251160286 L 390 910 L 400.7977730925603 912.0995466752565" stroke-miterlimit="10"/></g><g transform="translate(-46,-118) scale(1,1)"><g><path fill="none" stroke="none"/><text fill="#000000" stroke="none" font-family="Arial" font-size="13px" font-style="normal" font-weight="normal" text-decoration="none" x="456.5" y="927.5">«include»</text></g></g><g transform="translate(-46,-118) scale(1,1)"><path fill="none" stroke="#000000" d="M 567 847 L 413 827" stroke-miterlimit="10" stroke-dasharray="3"/></g><g transform="translate(-46,-118) scale(1,1)"><path fill="none" stroke="#000000" d="M 423.62017866701905 824.1343752721974 L 413 827 L 422.5359030302269 832.4832976754968" stroke-miterlimit="10"/></g><g transform="translate(-46,-118) scale(1,1)"><g><path fill="none" stroke="none"/><text fill="#000000" stroke="none" font-family="Arial" font-size="13px" font-style="normal" font-weight="normal" text-decoration="none" x="471.5" y="828.5">«include»</text></g></g><g transform="translate(-46,-118) scale(1,1)"><path fill="none" stroke="#000000" d="M 594 627 L 409 671" stroke-miterlimit="10" stroke-dasharray="3"/></g><g transform="translate(-46,-118) scale(1,1)"><path fill="none" stroke="#000000" d="M 417.91287326621125 664.5532418890998 L 409 671 L 419.86089950328113 672.7438067495074" stroke-miterlimit="10"/></g><g transform="translate(-46,-118) scale(1,1)"><g><path fill="none" stroke="none"/><text fill="#000000" stroke="none" font-family="Arial" font-size="13px" font-style="normal" font-weight="normal" text-decoration="none" x="479.5" y="684.5">«include»</text></g></g><g transform="translate(-46,-118) scale(1,1)"><path fill="none" stroke="#000000" d="M 591 607 L 396 603" stroke-miterlimit="10" stroke-dasharray="3"/></g><g transform="translate(-46,-118) scale(1,1)"><path fill="none" stroke="#000000" d="M 406.2468683493888 598.9997888767849 L 396 603 L 406.0742065071819 607.4170536843754" stroke-miterlimit="10"/></g><g transform="translate(-46,-118) scale(1,1)"><g><path fill="none" stroke="none"/><text fill="#000000" stroke="none" font-family="Arial" font-size="13px" font-style="normal" font-weight="normal" text-decoration="none" x="447.5" y="595.5">«include»</text></g></g><g transform="translate(-46,-118) scale(1,1)"><path fill="none" stroke="#000000" d="M 606 591 L 394 531" stroke-miterlimit="10" stroke-dasharray="3"/></g><g transform="translate(-46,-118) scale(1,1)"><path fill="none" stroke="#000000" d="M 404.92493344489765 529.7171012415016 L 394 531 L 402.63224093460883 537.8179481111889" stroke-miterlimit="10"/></g><g transform="translate(-46,-118) scale(1,1)"><g><path fill="none" stroke="none"/><text fill="#000000" stroke="none" font-family="Arial" font-size="13px" font-style="normal" font-weight="normal" text-decoration="none" x="495.5" y="555.5">«include»</text></g></g><g transform="translate(-46,-118) scale(1,1)"><path fill="none" stroke="#000000" d="M 135 285 L 354 163" stroke-miterlimit="10"/></g><g transform="translate(-46,-118) scale(1,1)"><path fill="none" stroke="#000000" d="M 347.1705647904289 171.62315572851787 L 354 163 L 343.0733681607755 164.26835194250071" stroke-miterlimit="10"/></g><g transform="translate(-46,-118) scale(1,1)"><path fill="none" stroke="#000000" d="M 135 293 L 311 240" stroke-miterlimit="10"/></g><g transform="translate(-46,-118) scale(1,1)"><path fill="none" stroke="#000000" d="M 302.4827692044456 246.96109040131356 L 311 240 L 300.05517412031116 238.89964257475398" stroke-miterlimit="10"/></g><g transform="translate(-46,-118) scale(1,1)"><path fill="none" stroke="#000000" d="M 135 303 L 303 304" stroke-miterlimit="10"/></g><g transform="translate(-46,-118) scale(1,1)"><path fill="none" stroke="#000000" d="M 292.81244896420793 308.14895214399155 L 303 304 L 292.8625613830725 299.7300657747423" stroke-miterlimit="10"/></g><g transform="translate(-46,-118) scale(1,1)"><path fill="none" stroke="#000000" d="M 135 333 L 312 495" stroke-miterlimit="10"/></g><g transform="translate(-46,-118) scale(1,1)"><path fill="none" stroke="#000000" d="M 301.6611793620736 491.2438333614192 L 312 495 L 307.345360718858 485.03333891604365" stroke-miterlimit="10"/></g><g transform="translate(-46,-118) scale(1,1)"><path fill="none" stroke="#000000" d="M 135 344 L 319 583" stroke-miterlimit="10"/></g><g transform="translate(-46,-118) scale(1,1)"><path fill="none" stroke="#000000" d="M 309.46492484595296 577.5152628315775 L 319 583 L 316.1359785442674 572.3793888546326" stroke-miterlimit="10"/></g><g transform="translate(-46,-118) scale(1,1)"><path fill="none" stroke="#000000" d="M 128 344 L 323 671" stroke-miterlimit="10"/></g><g transform="translate(-46,-118) scale(1,1)"><path fill="none" stroke="#000000" d="M 314.1794464753119 664.4274939697165 L 323 671 L 321.4103903722771 660.1154632054712" stroke-miterlimit="10"/></g><g transform="translate(-46,-118) scale(1,1)"><path fill="none" stroke="#000000" d="M 122 344 L 330 799" stroke-miterlimit="10"/></g><g transform="translate(-46,-118) scale(1,1)"><path fill="none" stroke="#000000" d="M 321.9463197838929 791.5074547063975 L 330 799 L 329.6032176911364 788.007158520229" stroke-miterlimit="10"/></g><g transform="translate(-46,-118) scale(1,1)"><path fill="none" stroke="#000000" d="M 130 608 L 326 903" stroke-miterlimit="10"/></g><g transform="translate(-46,-118) scale(1,1)"><path fill="none" stroke="#000000" d="M 316.8698292465582 896.8648568058279 L 326 903 L 323.88219570299975 892.2057929907006" stroke-miterlimit="10"/></g><g transform="translate(-46,-118) scale(1,1)"><path fill="none" stroke="#000000" d="M 133 527 L 348 243" stroke-miterlimit="10"/></g><g transform="translate(-46,-118) scale(1,1)"><path fill="none" stroke="#000000" d="M 345.22217274102917 253.64348043260844 L 348 243 L 338.5097023188931 248.56185669754066" stroke-miterlimit="10"/></g></g></svg>