<svg version="1.1" xmlns="http://www.w3.org/2000/svg" xmlns:xlink="http://www.w3.org/1999/xlink" width="688.1962890625" height="288"><defs/><g><text fill="#eeeeee" stroke="none" font-family="Arial" font-size="24px" font-style="normal" font-weight="normal" text-decoration="none" x="0" y="0">UNREGISTERED</text><text fill="#eeeeee" stroke="none" font-family="Arial" font-size="24px" font-style="normal" font-weight="normal" text-decoration="none" x="0" y="30">UNREGISTERED</text><text fill="#eeeeee" stroke="none" font-family="Arial" font-size="24px" font-style="normal" font-weight="normal" text-decoration="none" x="0" y="60">UNREGISTERED</text><text fill="#eeeeee" stroke="none" font-family="Arial" font-size="24px" font-style="normal" font-weight="normal" text-decoration="none" x="0" y="90">UNREGISTERED</text><text fill="#eeeeee" stroke="none" font-family="Arial" font-size="24px" font-style="normal" font-weight="normal" text-decoration="none" x="0" y="120">UNREGISTERED</text><text fill="#eeeeee" stroke="none" font-family="Arial" font-size="24px" font-style="normal" font-weight="normal" text-decoration="none" x="0" y="150">UNREGISTERED</text><text fill="#eeeeee" stroke="none" font-family="Arial" font-size="24px" font-style="normal" font-weight="normal" text-decoration="none" x="0" y="180">UNREGISTERED</text><text fill="#eeeeee" stroke="none" font-family="Arial" font-size="24px" font-style="normal" font-weight="normal" text-decoration="none" x="0" y="210">UNREGISTERED</text><text fill="#eeeeee" stroke="none" font-family="Arial" font-size="24px" font-style="normal" font-weight="normal" text-decoration="none" x="0" y="240">UNREGISTERED</text><text fill="#eeeeee" stroke="none" font-family="Arial" font-size="24px" font-style="normal" font-weight="normal" text-decoration="none" x="0" y="270">UNREGISTERED</text><text fill="#eeeeee" stroke="none" font-family="Arial" font-size="24px" font-style="normal" font-weight="normal" text-decoration="none" x="200" y="0">UNREGISTERED</text><text fill="#eeeeee" stroke="none" font-family="Arial" font-size="24px" font-style="normal" font-weight="normal" text-decoration="none" x="200" y="30">UNREGISTERED</text><text fill="#eeeeee" stroke="none" font-family="Arial" font-size="24px" font-style="normal" font-weight="normal" text-decoration="none" x="200" y="60">UNREGISTERED</text><text fill="#eeeeee" stroke="none" font-family="Arial" font-size="24px" font-style="normal" font-weight="normal" text-decoration="none" x="200" y="90">UNREGISTERED</text><text fill="#eeeeee" stroke="none" font-family="Arial" font-size="24px" font-style="normal" font-weight="normal" text-decoration="none" x="200" y="120">UNREGISTERED</text><text fill="#eeeeee" stroke="none" font-family="Arial" font-size="24px" font-style="normal" font-weight="normal" text-decoration="none" x="200" y="150">UNREGISTERED</text><text fill="#eeeeee" stroke="none" font-family="Arial" font-size="24px" font-style="normal" font-weight="normal" text-decoration="none" x="200" y="180">UNREGISTERED</text><text fill="#eeeeee" stroke="none" font-family="Arial" font-size="24px" font-style="normal" font-weight="normal" text-decoration="none" x="200" y="210">UNREGISTERED</text><text fill="#eeeeee" stroke="none" font-family="Arial" font-size="24px" font-style="normal" font-weight="normal" text-decoration="none" x="200" y="240">UNREGISTERED</text><text fill="#eeeeee" stroke="none" font-family="Arial" font-size="24px" font-style="normal" font-weight="normal" text-decoration="none" x="200" y="270">UNREGISTERED</text><text fill="#eeeeee" stroke="none" font-family="Arial" font-size="24px" font-style="normal" font-weight="normal" text-decoration="none" x="400" y="0">UNREGISTERED</text><text fill="#eeeeee" stroke="none" font-family="Arial" font-size="24px" font-style="normal" font-weight="normal" text-decoration="none" x="400" y="30">UNREGISTERED</text><text fill="#eeeeee" stroke="none" font-family="Arial" font-size="24px" font-style="normal" font-weight="normal" text-decoration="none" x="400" y="60">UNREGISTERED</text><text fill="#eeeeee" stroke="none" font-family="Arial" font-size="24px" font-style="normal" font-weight="normal" text-decoration="none" x="400" y="90">UNREGISTERED</text><text fill="#eeeeee" stroke="none" font-family="Arial" font-size="24px" font-style="normal" font-weight="normal" text-decoration="none" x="400" y="120">UNREGISTERED</text><text fill="#eeeeee" stroke="none" font-family="Arial" font-size="24px" font-style="normal" font-weight="normal" text-decoration="none" x="400" y="150">UNREGISTERED</text><text fill="#eeeeee" stroke="none" font-family="Arial" font-size="24px" font-style="normal" font-weight="normal" text-decoration="none" x="400" y="180">UNREGISTERED</text><text fill="#eeeeee" stroke="none" font-family="Arial" font-size="24px" font-style="normal" font-weight="normal" text-decoration="none" x="400" y="210">UNREGISTERED</text><text fill="#eeeeee" stroke="none" font-family="Arial" font-size="24px" font-style="normal" font-weight="normal" text-decoration="none" x="400" y="240">UNREGISTERED</text><text fill="#eeeeee" stroke="none" font-family="Arial" font-size="24px" font-style="normal" font-weight="normal" text-decoration="none" x="400" y="270">UNREGISTERED</text><text fill="#eeeeee" stroke="none" font-family="Arial" font-size="24px" font-style="normal" font-weight="normal" text-decoration="none" x="600" y="0">UNREGISTERED</text><text fill="#eeeeee" stroke="none" font-family="Arial" font-size="24px" font-style="normal" font-weight="normal" text-decoration="none" x="600" y="30">UNREGISTERED</text><text fill="#eeeeee" stroke="none" font-family="Arial" font-size="24px" font-style="normal" font-weight="normal" text-decoration="none" x="600" y="60">UNREGISTERED</text><text fill="#eeeeee" stroke="none" font-family="Arial" font-size="24px" font-style="normal" font-weight="normal" text-decoration="none" x="600" y="90">UNREGISTERED</text><text fill="#eeeeee" stroke="none" font-family="Arial" font-size="24px" font-style="normal" font-weight="normal" text-decoration="none" x="600" y="120">UNREGISTERED</text><text fill="#eeeeee" stroke="none" font-family="Arial" font-size="24px" font-style="normal" font-weight="normal" text-decoration="none" x="600" y="150">UNREGISTERED</text><text fill="#eeeeee" stroke="none" font-family="Arial" font-size="24px" font-style="normal" font-weight="normal" text-decoration="none" x="600" y="180">UNREGISTERED</text><text fill="#eeeeee" stroke="none" font-family="Arial" font-size="24px" font-style="normal" font-weight="normal" text-decoration="none" x="600" y="210">UNREGISTERED</text><text fill="#eeeeee" stroke="none" font-family="Arial" font-size="24px" font-style="normal" font-weight="normal" text-decoration="none" x="600" y="240">UNREGISTERED</text><text fill="#eeeeee" stroke="none" font-family="Arial" font-size="24px" font-style="normal" font-weight="normal" text-decoration="none" x="600" y="270">UNREGISTERED</text><g transform="translate(-174,-134) scale(1,1)"><rect fill="#C0C0C0" stroke="none" x="207" y="151" width="50.919921875" height="44" opacity="0.2"/></g><g transform="translate(-174,-134) scale(1,1)"><rect fill="#ffffff" stroke="none" x="200" y="144" width="50.919921875" height="44"/></g><g transform="translate(-174,-134) scale(1,1)"><path fill="none" stroke="#000000" d="M 200 144 L 250.919921875 144 L 250.919921875 188 L 200 188 L 200 144 Z Z" stroke-miterlimit="10"/></g><g transform="translate(-174,-134) scale(1,1)"><path fill="none" stroke="#000000" d="M 200 169 L 250.919921875 169" stroke-miterlimit="10"/></g><g transform="translate(-174,-134) scale(1,1)"><path fill="none" stroke="#000000" d="M 200 179 L 250.919921875 179" stroke-miterlimit="10"/></g><g transform="translate(-174,-134) scale(1,1)"><g><path fill="none" stroke="none"/><text fill="#000000" stroke="none" font-family="Arial" font-size="13px" font-style="normal" font-weight="bold" text-decoration="none" x="206.6708984375" y="163.5">device</text></g></g><g transform="translate(-174,-134) scale(1,1)"><rect fill="#C0C0C0" stroke="none" x="399" y="231" width="50.919921875" height="44" opacity="0.2"/></g><g transform="translate(-174,-134) scale(1,1)"><rect fill="#ffffff" stroke="none" x="392" y="224" width="50.919921875" height="44"/></g><g transform="translate(-174,-134) scale(1,1)"><path fill="none" stroke="#000000" d="M 392 224 L 442.919921875 224 L 442.919921875 268 L 392 268 L 392 224 Z Z" stroke-miterlimit="10"/></g><g transform="translate(-174,-134) scale(1,1)"><path fill="none" stroke="#000000" d="M 392 249 L 442.919921875 249" stroke-miterlimit="10"/></g><g transform="translate(-174,-134) scale(1,1)"><path fill="none" stroke="#000000" d="M 392 259 L 442.919921875 259" stroke-miterlimit="10"/></g><g transform="translate(-174,-134) scale(1,1)"><g><path fill="none" stroke="none"/><text fill="#000000" stroke="none" font-family="Arial" font-size="13px" font-style="normal" font-weight="bold" text-decoration="none" x="408.068603515625" y="243.5">OS</text></g></g><g transform="translate(-174,-134) scale(1,1)"><rect fill="#C0C0C0" stroke="none" x="191" y="367" width="151.30810546875" height="44" opacity="0.2"/></g><g transform="translate(-174,-134) scale(1,1)"><rect fill="#ffffff" stroke="none" x="184" y="360" width="151.30810546875" height="44"/></g><g transform="translate(-174,-134) scale(1,1)"><path fill="none" stroke="#000000" d="M 184 360 L 335.30810546875 360 L 335.30810546875 404 L 184 404 L 184 360 Z Z" stroke-miterlimit="10"/></g><g transform="translate(-174,-134) scale(1,1)"><path fill="none" stroke="#000000" d="M 184 385 L 335.30810546875 385" stroke-miterlimit="10"/></g><g transform="translate(-174,-134) scale(1,1)"><path fill="none" stroke="#000000" d="M 184 395 L 335.30810546875 395" stroke-miterlimit="10"/></g><g transform="translate(-174,-134) scale(1,1)"><g><path fill="none" stroke="none"/><text fill="#000000" stroke="none" font-family="Arial" font-size="13px" font-style="normal" font-weight="bold" text-decoration="none" x="194.254150390625" y="379.5">execution environment</text></g></g><g transform="translate(-174,-134) scale(1,1)"><rect fill="#C0C0C0" stroke="none" x="783" y="375" width="76.1962890625" height="44" opacity="0.2"/></g><g transform="translate(-174,-134) scale(1,1)"><rect fill="#ffffff" stroke="none" x="776" y="368" width="76.1962890625" height="44"/></g><g transform="translate(-174,-134) scale(1,1)"><path fill="none" stroke="#000000" d="M 776 368 L 852.1962890625 368 L 852.1962890625 412 L 776 412 L 776 368 Z Z" stroke-miterlimit="10"/></g><g transform="translate(-174,-134) scale(1,1)"><path fill="none" stroke="#000000" d="M 776 393 L 852.1962890625 393" stroke-miterlimit="10"/></g><g transform="translate(-174,-134) scale(1,1)"><path fill="none" stroke="#000000" d="M 776 403 L 852.1962890625 403" stroke-miterlimit="10"/></g><g transform="translate(-174,-134) scale(1,1)"><g><path fill="none" stroke="none"/><text fill="#000000" stroke="none" font-family="Arial" font-size="13px" font-style="normal" font-weight="bold" text-decoration="none" x="782.67724609375" y="387.5">DB system</text></g></g></g></svg>