<svg version="1.1" xmlns="http://www.w3.org/2000/svg" xmlns:xlink="http://www.w3.org/1999/xlink" width="593.390625" height="1101"><defs/><g><text fill="#eeeeee" stroke="none" font-family="Arial" font-size="24px" font-style="normal" font-weight="normal" text-decoration="none" x="0" y="0">UNREGISTERED</text><text fill="#eeeeee" stroke="none" font-family="Arial" font-size="24px" font-style="normal" font-weight="normal" text-decoration="none" x="0" y="30">UNREGISTERED</text><text fill="#eeeeee" stroke="none" font-family="Arial" font-size="24px" font-style="normal" font-weight="normal" text-decoration="none" x="0" y="60">UNREGISTERED</text><text fill="#eeeeee" stroke="none" font-family="Arial" font-size="24px" font-style="normal" font-weight="normal" text-decoration="none" x="0" y="90">UNREGISTERED</text><text fill="#eeeeee" stroke="none" font-family="Arial" font-size="24px" font-style="normal" font-weight="normal" text-decoration="none" x="0" y="120">UNREGISTERED</text><text fill="#eeeeee" stroke="none" font-family="Arial" font-size="24px" font-style="normal" font-weight="normal" text-decoration="none" x="0" y="150">UNREGISTERED</text><text fill="#eeeeee" stroke="none" font-family="Arial" font-size="24px" font-style="normal" font-weight="normal" text-decoration="none" x="0" y="180">UNREGISTERED</text><text fill="#eeeeee" stroke="none" font-family="Arial" font-size="24px" font-style="normal" font-weight="normal" text-decoration="none" x="0" y="210">UNREGISTERED</text><text fill="#eeeeee" stroke="none" font-family="Arial" font-size="24px" font-style="normal" font-weight="normal" text-decoration="none" x="0" y="240">UNREGISTERED</text><text fill="#eeeeee" stroke="none" font-family="Arial" font-size="24px" font-style="normal" font-weight="normal" text-decoration="none" x="0" y="270">UNREGISTERED</text><text fill="#eeeeee" stroke="none" font-family="Arial" font-size="24px" font-style="normal" font-weight="normal" text-decoration="none" x="0" y="300">UNREGISTERED</text><text fill="#eeeeee" stroke="none" font-family="Arial" font-size="24px" font-style="normal" font-weight="normal" text-decoration="none" x="0" y="330">UNREGISTERED</text><text fill="#eeeeee" stroke="none" font-family="Arial" font-size="24px" font-style="normal" font-weight="normal" text-decoration="none" x="0" y="360">UNREGISTERED</text><text fill="#eeeeee" stroke="none" font-family="Arial" font-size="24px" font-style="normal" font-weight="normal" text-decoration="none" x="0" y="390">UNREGISTERED</text><text fill="#eeeeee" stroke="none" font-family="Arial" font-size="24px" font-style="normal" font-weight="normal" text-decoration="none" x="0" y="420">UNREGISTERED</text><text fill="#eeeeee" stroke="none" font-family="Arial" font-size="24px" font-style="normal" font-weight="normal" text-decoration="none" x="0" y="450">UNREGISTERED</text><text fill="#eeeeee" stroke="none" font-family="Arial" font-size="24px" font-style="normal" font-weight="normal" text-decoration="none" x="0" y="480">UNREGISTERED</text><text fill="#eeeeee" stroke="none" font-family="Arial" font-size="24px" font-style="normal" font-weight="normal" text-decoration="none" x="0" y="510">UNREGISTERED</text><text fill="#eeeeee" stroke="none" font-family="Arial" font-size="24px" font-style="normal" font-weight="normal" text-decoration="none" x="0" y="540">UNREGISTERED</text><text fill="#eeeeee" stroke="none" font-family="Arial" font-size="24px" font-style="normal" font-weight="normal" text-decoration="none" x="0" y="570">UNREGISTERED</text><text fill="#eeeeee" stroke="none" font-family="Arial" font-size="24px" font-style="normal" font-weight="normal" text-decoration="none" x="0" y="600">UNREGISTERED</text><text fill="#eeeeee" stroke="none" font-family="Arial" font-size="24px" font-style="normal" font-weight="normal" text-decoration="none" x="0" y="630">UNREGISTERED</text><text fill="#eeeeee" stroke="none" font-family="Arial" font-size="24px" font-style="normal" font-weight="normal" text-decoration="none" x="0" y="660">UNREGISTERED</text><text fill="#eeeeee" stroke="none" font-family="Arial" font-size="24px" font-style="normal" font-weight="normal" text-decoration="none" x="0" y="690">UNREGISTERED</text><text fill="#eeeeee" stroke="none" font-family="Arial" font-size="24px" font-style="normal" font-weight="normal" text-decoration="none" x="0" y="720">UNREGISTERED</text><text fill="#eeeeee" stroke="none" font-family="Arial" font-size="24px" font-style="normal" font-weight="normal" text-decoration="none" x="0" y="750">UNREGISTERED</text><text fill="#eeeeee" stroke="none" font-family="Arial" font-size="24px" font-style="normal" font-weight="normal" text-decoration="none" x="0" y="780">UNREGISTERED</text><text fill="#eeeeee" stroke="none" font-family="Arial" font-size="24px" font-style="normal" font-weight="normal" text-decoration="none" x="0" y="810">UNREGISTERED</text><text fill="#eeeeee" stroke="none" font-family="Arial" font-size="24px" font-style="normal" font-weight="normal" text-decoration="none" x="0" y="840">UNREGISTERED</text><text fill="#eeeeee" stroke="none" font-family="Arial" font-size="24px" font-style="normal" font-weight="normal" text-decoration="none" x="0" y="870">UNREGISTERED</text><text fill="#eeeeee" stroke="none" font-family="Arial" font-size="24px" font-style="normal" font-weight="normal" text-decoration="none" x="0" y="900">UNREGISTERED</text><text fill="#eeeeee" stroke="none" font-family="Arial" font-size="24px" font-style="normal" font-weight="normal" text-decoration="none" x="0" y="930">UNREGISTERED</text><text fill="#eeeeee" stroke="none" font-family="Arial" font-size="24px" font-style="normal" font-weight="normal" text-decoration="none" x="0" y="960">UNREGISTERED</text><text fill="#eeeeee" stroke="none" font-family="Arial" font-size="24px" font-style="normal" font-weight="normal" text-decoration="none" x="0" y="990">UNREGISTERED</text><text fill="#eeeeee" stroke="none" font-family="Arial" font-size="24px" font-style="normal" font-weight="normal" text-decoration="none" x="0" y="1020">UNREGISTERED</text><text fill="#eeeeee" stroke="none" font-family="Arial" font-size="24px" font-style="normal" font-weight="normal" text-decoration="none" x="0" y="1050">UNREGISTERED</text><text fill="#eeeeee" stroke="none" font-family="Arial" font-size="24px" font-style="normal" font-weight="normal" text-decoration="none" x="0" y="1080">UNREGISTERED</text><text fill="#eeeeee" stroke="none" font-family="Arial" font-size="24px" font-style="normal" font-weight="normal" text-decoration="none" x="200" y="0">UNREGISTERED</text><text fill="#eeeeee" stroke="none" font-family="Arial" font-size="24px" font-style="normal" font-weight="normal" text-decoration="none" x="200" y="30">UNREGISTERED</text><text fill="#eeeeee" stroke="none" font-family="Arial" font-size="24px" font-style="normal" font-weight="normal" text-decoration="none" x="200" y="60">UNREGISTERED</text><text fill="#eeeeee" stroke="none" font-family="Arial" font-size="24px" font-style="normal" font-weight="normal" text-decoration="none" x="200" y="90">UNREGISTERED</text><text fill="#eeeeee" stroke="none" font-family="Arial" font-size="24px" font-style="normal" font-weight="normal" text-decoration="none" x="200" y="120">UNREGISTERED</text><text fill="#eeeeee" stroke="none" font-family="Arial" font-size="24px" font-style="normal" font-weight="normal" text-decoration="none" x="200" y="150">UNREGISTERED</text><text fill="#eeeeee" stroke="none" font-family="Arial" font-size="24px" font-style="normal" font-weight="normal" text-decoration="none" x="200" y="180">UNREGISTERED</text><text fill="#eeeeee" stroke="none" font-family="Arial" font-size="24px" font-style="normal" font-weight="normal" text-decoration="none" x="200" y="210">UNREGISTERED</text><text fill="#eeeeee" stroke="none" font-family="Arial" font-size="24px" font-style="normal" font-weight="normal" text-decoration="none" x="200" y="240">UNREGISTERED</text><text fill="#eeeeee" stroke="none" font-family="Arial" font-size="24px" font-style="normal" font-weight="normal" text-decoration="none" x="200" y="270">UNREGISTERED</text><text fill="#eeeeee" stroke="none" font-family="Arial" font-size="24px" font-style="normal" font-weight="normal" text-decoration="none" x="200" y="300">UNREGISTERED</text><text fill="#eeeeee" stroke="none" font-family="Arial" font-size="24px" font-style="normal" font-weight="normal" text-decoration="none" x="200" y="330">UNREGISTERED</text><text fill="#eeeeee" stroke="none" font-family="Arial" font-size="24px" font-style="normal" font-weight="normal" text-decoration="none" x="200" y="360">UNREGISTERED</text><text fill="#eeeeee" stroke="none" font-family="Arial" font-size="24px" font-style="normal" font-weight="normal" text-decoration="none" x="200" y="390">UNREGISTERED</text><text fill="#eeeeee" stroke="none" font-family="Arial" font-size="24px" font-style="normal" font-weight="normal" text-decoration="none" x="200" y="420">UNREGISTERED</text><text fill="#eeeeee" stroke="none" font-family="Arial" font-size="24px" font-style="normal" font-weight="normal" text-decoration="none" x="200" y="450">UNREGISTERED</text><text fill="#eeeeee" stroke="none" font-family="Arial" font-size="24px" font-style="normal" font-weight="normal" text-decoration="none" x="200" y="480">UNREGISTERED</text><text fill="#eeeeee" stroke="none" font-family="Arial" font-size="24px" font-style="normal" font-weight="normal" text-decoration="none" x="200" y="510">UNREGISTERED</text><text fill="#eeeeee" stroke="none" font-family="Arial" font-size="24px" font-style="normal" font-weight="normal" text-decoration="none" x="200" y="540">UNREGISTERED</text><text fill="#eeeeee" stroke="none" font-family="Arial" font-size="24px" font-style="normal" font-weight="normal" text-decoration="none" x="200" y="570">UNREGISTERED</text><text fill="#eeeeee" stroke="none" font-family="Arial" font-size="24px" font-style="normal" font-weight="normal" text-decoration="none" x="200" y="600">UNREGISTERED</text><text fill="#eeeeee" stroke="none" font-family="Arial" font-size="24px" font-style="normal" font-weight="normal" text-decoration="none" x="200" y="630">UNREGISTERED</text><text fill="#eeeeee" stroke="none" font-family="Arial" font-size="24px" font-style="normal" font-weight="normal" text-decoration="none" x="200" y="660">UNREGISTERED</text><text fill="#eeeeee" stroke="none" font-family="Arial" font-size="24px" font-style="normal" font-weight="normal" text-decoration="none" x="200" y="690">UNREGISTERED</text><text fill="#eeeeee" stroke="none" font-family="Arial" font-size="24px" font-style="normal" font-weight="normal" text-decoration="none" x="200" y="720">UNREGISTERED</text><text fill="#eeeeee" stroke="none" font-family="Arial" font-size="24px" font-style="normal" font-weight="normal" text-decoration="none" x="200" y="750">UNREGISTERED</text><text fill="#eeeeee" stroke="none" font-family="Arial" font-size="24px" font-style="normal" font-weight="normal" text-decoration="none" x="200" y="780">UNREGISTERED</text><text fill="#eeeeee" stroke="none" font-family="Arial" font-size="24px" font-style="normal" font-weight="normal" text-decoration="none" x="200" y="810">UNREGISTERED</text><text fill="#eeeeee" stroke="none" font-family="Arial" font-size="24px" font-style="normal" font-weight="normal" text-decoration="none" x="200" y="840">UNREGISTERED</text><text fill="#eeeeee" stroke="none" font-family="Arial" font-size="24px" font-style="normal" font-weight="normal" text-decoration="none" x="200" y="870">UNREGISTERED</text><text fill="#eeeeee" stroke="none" font-family="Arial" font-size="24px" font-style="normal" font-weight="normal" text-decoration="none" x="200" y="900">UNREGISTERED</text><text fill="#eeeeee" stroke="none" font-family="Arial" font-size="24px" font-style="normal" font-weight="normal" text-decoration="none" x="200" y="930">UNREGISTERED</text><text fill="#eeeeee" stroke="none" font-family="Arial" font-size="24px" font-style="normal" font-weight="normal" text-decoration="none" x="200" y="960">UNREGISTERED</text><text fill="#eeeeee" stroke="none" font-family="Arial" font-size="24px" font-style="normal" font-weight="normal" text-decoration="none" x="200" y="990">UNREGISTERED</text><text fill="#eeeeee" stroke="none" font-family="Arial" font-size="24px" font-style="normal" font-weight="normal" text-decoration="none" x="200" y="1020">UNREGISTERED</text><text fill="#eeeeee" stroke="none" font-family="Arial" font-size="24px" font-style="normal" font-weight="normal" text-decoration="none" x="200" y="1050">UNREGISTERED</text><text fill="#eeeeee" stroke="none" font-family="Arial" font-size="24px" font-style="normal" font-weight="normal" text-decoration="none" x="200" y="1080">UNREGISTERED</text><text fill="#eeeeee" stroke="none" font-family="Arial" font-size="24px" font-style="normal" font-weight="normal" text-decoration="none" x="400" y="0">UNREGISTERED</text><text fill="#eeeeee" stroke="none" font-family="Arial" font-size="24px" font-style="normal" font-weight="normal" text-decoration="none" x="400" y="30">UNREGISTERED</text><text fill="#eeeeee" stroke="none" font-family="Arial" font-size="24px" font-style="normal" font-weight="normal" text-decoration="none" x="400" y="60">UNREGISTERED</text><text fill="#eeeeee" stroke="none" font-family="Arial" font-size="24px" font-style="normal" font-weight="normal" text-decoration="none" x="400" y="90">UNREGISTERED</text><text fill="#eeeeee" stroke="none" font-family="Arial" font-size="24px" font-style="normal" font-weight="normal" text-decoration="none" x="400" y="120">UNREGISTERED</text><text fill="#eeeeee" stroke="none" font-family="Arial" font-size="24px" font-style="normal" font-weight="normal" text-decoration="none" x="400" y="150">UNREGISTERED</text><text fill="#eeeeee" stroke="none" font-family="Arial" font-size="24px" font-style="normal" font-weight="normal" text-decoration="none" x="400" y="180">UNREGISTERED</text><text fill="#eeeeee" stroke="none" font-family="Arial" font-size="24px" font-style="normal" font-weight="normal" text-decoration="none" x="400" y="210">UNREGISTERED</text><text fill="#eeeeee" stroke="none" font-family="Arial" font-size="24px" font-style="normal" font-weight="normal" text-decoration="none" x="400" y="240">UNREGISTERED</text><text fill="#eeeeee" stroke="none" font-family="Arial" font-size="24px" font-style="normal" font-weight="normal" text-decoration="none" x="400" y="270">UNREGISTERED</text><text fill="#eeeeee" stroke="none" font-family="Arial" font-size="24px" font-style="normal" font-weight="normal" text-decoration="none" x="400" y="300">UNREGISTERED</text><text fill="#eeeeee" stroke="none" font-family="Arial" font-size="24px" font-style="normal" font-weight="normal" text-decoration="none" x="400" y="330">UNREGISTERED</text><text fill="#eeeeee" stroke="none" font-family="Arial" font-size="24px" font-style="normal" font-weight="normal" text-decoration="none" x="400" y="360">UNREGISTERED</text><text fill="#eeeeee" stroke="none" font-family="Arial" font-size="24px" font-style="normal" font-weight="normal" text-decoration="none" x="400" y="390">UNREGISTERED</text><text fill="#eeeeee" stroke="none" font-family="Arial" font-size="24px" font-style="normal" font-weight="normal" text-decoration="none" x="400" y="420">UNREGISTERED</text><text fill="#eeeeee" stroke="none" font-family="Arial" font-size="24px" font-style="normal" font-weight="normal" text-decoration="none" x="400" y="450">UNREGISTERED</text><text fill="#eeeeee" stroke="none" font-family="Arial" font-size="24px" font-style="normal" font-weight="normal" text-decoration="none" x="400" y="480">UNREGISTERED</text><text fill="#eeeeee" stroke="none" font-family="Arial" font-size="24px" font-style="normal" font-weight="normal" text-decoration="none" x="400" y="510">UNREGISTERED</text><text fill="#eeeeee" stroke="none" font-family="Arial" font-size="24px" font-style="normal" font-weight="normal" text-decoration="none" x="400" y="540">UNREGISTERED</text><text fill="#eeeeee" stroke="none" font-family="Arial" font-size="24px" font-style="normal" font-weight="normal" text-decoration="none" x="400" y="570">UNREGISTERED</text><text fill="#eeeeee" stroke="none" font-family="Arial" font-size="24px" font-style="normal" font-weight="normal" text-decoration="none" x="400" y="600">UNREGISTERED</text><text fill="#eeeeee" stroke="none" font-family="Arial" font-size="24px" font-style="normal" font-weight="normal" text-decoration="none" x="400" y="630">UNREGISTERED</text><text fill="#eeeeee" stroke="none" font-family="Arial" font-size="24px" font-style="normal" font-weight="normal" text-decoration="none" x="400" y="660">UNREGISTERED</text><text fill="#eeeeee" stroke="none" font-family="Arial" font-size="24px" font-style="normal" font-weight="normal" text-decoration="none" x="400" y="690">UNREGISTERED</text><text fill="#eeeeee" stroke="none" font-family="Arial" font-size="24px" font-style="normal" font-weight="normal" text-decoration="none" x="400" y="720">UNREGISTERED</text><text fill="#eeeeee" stroke="none" font-family="Arial" font-size="24px" font-style="normal" font-weight="normal" text-decoration="none" x="400" y="750">UNREGISTERED</text><text fill="#eeeeee" stroke="none" font-family="Arial" font-size="24px" font-style="normal" font-weight="normal" text-decoration="none" x="400" y="780">UNREGISTERED</text><text fill="#eeeeee" stroke="none" font-family="Arial" font-size="24px" font-style="normal" font-weight="normal" text-decoration="none" x="400" y="810">UNREGISTERED</text><text fill="#eeeeee" stroke="none" font-family="Arial" font-size="24px" font-style="normal" font-weight="normal" text-decoration="none" x="400" y="840">UNREGISTERED</text><text fill="#eeeeee" stroke="none" font-family="Arial" font-size="24px" font-style="normal" font-weight="normal" text-decoration="none" x="400" y="870">UNREGISTERED</text><text fill="#eeeeee" stroke="none" font-family="Arial" font-size="24px" font-style="normal" font-weight="normal" text-decoration="none" x="400" y="900">UNREGISTERED</text><text fill="#eeeeee" stroke="none" font-family="Arial" font-size="24px" font-style="normal" font-weight="normal" text-decoration="none" x="400" y="930">UNREGISTERED</text><text fill="#eeeeee" stroke="none" font-family="Arial" font-size="24px" font-style="normal" font-weight="normal" text-decoration="none" x="400" y="960">UNREGISTERED</text><text fill="#eeeeee" stroke="none" font-family="Arial" font-size="24px" font-style="normal" font-weight="normal" text-decoration="none" x="400" y="990">UNREGISTERED</text><text fill="#eeeeee" stroke="none" font-family="Arial" font-size="24px" font-style="normal" font-weight="normal" text-decoration="none" x="400" y="1020">UNREGISTERED</text><text fill="#eeeeee" stroke="none" font-family="Arial" font-size="24px" font-style="normal" font-weight="normal" text-decoration="none" x="400" y="1050">UNREGISTERED</text><text fill="#eeeeee" stroke="none" font-family="Arial" font-size="24px" font-style="normal" font-weight="normal" text-decoration="none" x="400" y="1080">UNREGISTERED</text><g transform="translate(-182,-350) scale(1,1)"><path fill="#C0C0C0" stroke="none" d="M 591 376.5 C 591 371.2532944 595.2532944 367 600.5 367 C 605.7467056 367 610 371.2532944 610 376.5 C 610 381.7467056 605.7467056 386 600.5 386 C 595.2532944 386 591 381.7467056 591 376.5 Z" opacity="0.2"/></g><g transform="translate(-182,-350) scale(1,1)"><path fill="#000000" stroke="none" d="M 584 369.5 C 584 364.2532944 588.2532944 360 593.5 360 C 598.7467056 360 603 364.2532944 603 369.5 C 603 374.7467056 598.7467056 379 593.5 379 C 588.2532944 379 584 374.7467056 584 369.5 Z"/></g><g transform="translate(-182,-350) scale(1,1)"><path fill="#C0C0C0" stroke="none" d="M 561 487 L 633.82080078125 487 Q 643.82080078125 487 643.82080078125 497 L 643.82080078125 516 Q 643.82080078125 526 633.82080078125 526 L 561 526 Q 551 526 551 516 L 551 497 Q 551 487 561 487 Z" opacity="0.2"/></g><g transform="translate(-182,-350) scale(1,1)"><path fill="#ffffff" stroke="none" d="M 554 480 L 626.82080078125 480 Q 636.82080078125 480 636.82080078125 490 L 636.82080078125 509 Q 636.82080078125 519 626.82080078125 519 L 554 519 Q 544 519 544 509 L 544 490 Q 544 480 554 480 Z"/></g><g transform="translate(-182,-350) scale(1,1)"><path fill="none" stroke="#000000" d="M 554 480 L 626.82080078125 480 Q 636.82080078125 480 636.82080078125 490 L 636.82080078125 509 Q 636.82080078125 519 626.82080078125 519 L 554 519 Q 544 519 544 509 L 544 490 Q 544 480 554 480 Z" stroke-miterlimit="10"/></g><g transform="translate(-182,-350) scale(1,1)"><g><path fill="none" stroke="none"/><text fill="#000000" stroke="none" font-family="Arial" font-size="13px" font-style="normal" font-weight="bold" text-decoration="none" x="551.753173828125" y="499.5">ticket created</text></g></g><g transform="translate(-182,-350) scale(1,1)"><path fill="none" stroke="#000000" d="M 593 380 L 590 479" stroke-miterlimit="10"/></g><g transform="translate(-182,-350) scale(1,1)"><path fill="none" stroke="#000000" d="M 586.1002322042899 468.7144853731307 L 590 479 L 594.5154048872532 468.9694906059478" stroke-miterlimit="10"/></g><g transform="translate(-182,-350) scale(1,1)"><g><path fill="none" stroke="none"/><text fill="#000000" stroke="none" font-family="Arial" font-size="13px" font-style="normal" font-weight="normal" text-decoration="none" x="597.5" y="436.5">violation inserted in database</text></g></g><g transform="translate(-182,-350) scale(1,1)"><path fill="#C0C0C0" stroke="none" d="M 553 599 L 635.91357421875 599 Q 645.91357421875 599 645.91357421875 609 L 645.91357421875 628 Q 645.91357421875 638 635.91357421875 638 L 553 638 Q 543 638 543 628 L 543 609 Q 543 599 553 599 Z" opacity="0.2"/></g><g transform="translate(-182,-350) scale(1,1)"><path fill="#ffffff" stroke="none" d="M 546 592 L 628.91357421875 592 Q 638.91357421875 592 638.91357421875 602 L 638.91357421875 621 Q 638.91357421875 631 628.91357421875 631 L 546 631 Q 536 631 536 621 L 536 602 Q 536 592 546 592 Z"/></g><g transform="translate(-182,-350) scale(1,1)"><path fill="none" stroke="#000000" d="M 546 592 L 628.91357421875 592 Q 638.91357421875 592 638.91357421875 602 L 638.91357421875 621 Q 638.91357421875 631 628.91357421875 631 L 546 631 Q 536 631 536 621 L 536 602 Q 536 592 546 592 Z" stroke-miterlimit="10"/></g><g transform="translate(-182,-350) scale(1,1)"><g><path fill="none" stroke="none"/><text fill="#000000" stroke="none" font-family="Arial" font-size="13px" font-style="normal" font-weight="bold" text-decoration="none" x="545.911376953125" y="611.5">integrity check</text></g></g><g transform="translate(-182,-350) scale(1,1)"><path fill="#C0C0C0" stroke="none" d="M 545 967 L 633.46142578125 967 Q 643.46142578125 967 643.46142578125 977 L 643.46142578125 996 Q 643.46142578125 1006 633.46142578125 1006 L 545 1006 Q 535 1006 535 996 L 535 977 Q 535 967 545 967 Z" opacity="0.2"/></g><g transform="translate(-182,-350) scale(1,1)"><path fill="#ffffff" stroke="none" d="M 538 960 L 626.46142578125 960 Q 636.46142578125 960 636.46142578125 970 L 636.46142578125 989 Q 636.46142578125 999 626.46142578125 999 L 538 999 Q 528 999 528 989 L 528 970 Q 528 960 538 960 Z"/></g><g transform="translate(-182,-350) scale(1,1)"><path fill="none" stroke="#000000" d="M 538 960 L 626.46142578125 960 Q 636.46142578125 960 636.46142578125 970 L 636.46142578125 989 Q 636.46142578125 999 626.46142578125 999 L 538 999 Q 528 999 528 989 L 528 970 Q 528 960 538 960 Z" stroke-miterlimit="10"/></g><g transform="translate(-182,-350) scale(1,1)"><g><path fill="none" stroke="none"/><text fill="#000000" stroke="none" font-family="Arial" font-size="13px" font-style="normal" font-weight="bold" text-decoration="none" x="536.22607421875" y="979.5">Ticket approved</text></g></g><g transform="translate(-182,-350) scale(1,1)"><path fill="#C0C0C0" stroke="none" d="M 209 823 L 321.2841796875 823 Q 331.2841796875 823 331.2841796875 833 L 331.2841796875 852 Q 331.2841796875 862 321.2841796875 862 L 209 862 Q 199 862 199 852 L 199 833 Q 199 823 209 823 Z" opacity="0.2"/></g><g transform="translate(-182,-350) scale(1,1)"><path fill="#ffffff" stroke="none" d="M 202 816 L 314.2841796875 816 Q 324.2841796875 816 324.2841796875 826 L 324.2841796875 845 Q 324.2841796875 855 314.2841796875 855 L 202 855 Q 192 855 192 845 L 192 826 Q 192 816 202 816 Z"/></g><g transform="translate(-182,-350) scale(1,1)"><path fill="none" stroke="#000000" d="M 202 816 L 314.2841796875 816 Q 324.2841796875 816 324.2841796875 826 L 324.2841796875 845 Q 324.2841796875 855 314.2841796875 855 L 202 855 Q 192 855 192 845 L 192 826 Q 192 816 202 816 Z" stroke-miterlimit="10"/></g><g transform="translate(-182,-350) scale(1,1)"><g><path fill="none" stroke="none"/><text fill="#000000" stroke="none" font-family="Arial" font-size="13px" font-style="normal" font-weight="bold" text-decoration="none" x="215.031982421875" y="835.5">Ticket not valid</text></g></g><g transform="translate(-182,-350) scale(1,1)"><path fill="#C0C0C0" stroke="none" d="M 521 1159 L 650.64501953125 1159 Q 660.64501953125 1159 660.64501953125 1169 L 660.64501953125 1188 Q 660.64501953125 1198 650.64501953125 1198 L 521 1198 Q 511 1198 511 1188 L 511 1169 Q 511 1159 521 1159 Z" opacity="0.2"/></g><g transform="translate(-182,-350) scale(1,1)"><path fill="#ffffff" stroke="none" d="M 514 1152 L 643.64501953125 1152 Q 653.64501953125 1152 653.64501953125 1162 L 653.64501953125 1181 Q 653.64501953125 1191 643.64501953125 1191 L 514 1191 Q 504 1191 504 1181 L 504 1162 Q 504 1152 514 1152 Z"/></g><g transform="translate(-182,-350) scale(1,1)"><path fill="none" stroke="#000000" d="M 514 1152 L 643.64501953125 1152 Q 653.64501953125 1152 653.64501953125 1162 L 653.64501953125 1181 Q 653.64501953125 1191 643.64501953125 1191 L 514 1191 Q 504 1191 504 1181 L 504 1162 Q 504 1152 514 1152 Z" stroke-miterlimit="10"/></g><g transform="translate(-182,-350) scale(1,1)"><g><path fill="none" stroke="none"/><text fill="#000000" stroke="none" font-family="Arial" font-size="13px" font-style="normal" font-weight="bold" text-decoration="none" x="523.420166015625" y="1171.5">ticket sent to offfice</text></g></g><g transform="translate(-182,-350) scale(1,1)"><path fill="#C0C0C0" stroke="none" d="M 521 823 L 655.91357421875 823 Q 665.91357421875 823 665.91357421875 833 L 665.91357421875 852 Q 665.91357421875 862 655.91357421875 862 L 521 862 Q 511 862 511 852 L 511 833 Q 511 823 521 823 Z" opacity="0.2"/></g><g transform="translate(-182,-350) scale(1,1)"><path fill="#ffffff" stroke="none" d="M 514 816 L 648.91357421875 816 Q 658.91357421875 816 658.91357421875 826 L 658.91357421875 845 Q 658.91357421875 855 648.91357421875 855 L 514 855 Q 504 855 504 845 L 504 826 Q 504 816 514 816 Z"/></g><g transform="translate(-182,-350) scale(1,1)"><path fill="none" stroke="#000000" d="M 514 816 L 648.91357421875 816 Q 658.91357421875 816 658.91357421875 826 L 658.91357421875 845 Q 658.91357421875 855 648.91357421875 855 L 514 855 Q 504 855 504 845 L 504 826 Q 504 816 514 816 Z" stroke-miterlimit="10"/></g><g transform="translate(-182,-350) scale(1,1)"><g><path fill="none" stroke="none"/><text fill="#000000" stroke="none" font-family="Arial" font-size="13px" font-style="normal" font-weight="bold" text-decoration="none" x="514.6064453125" y="835.5">ticket approval pending</text></g></g><g transform="translate(-182,-350) scale(1,1)"><path fill="none" stroke="#000000" d="M 589 520 L 588 591" stroke-miterlimit="10"/></g><g transform="translate(-182,-350) scale(1,1)"><path fill="none" stroke="#000000" d="M 583.9340217804229 580.7790498916233 L 588 591 L 592.3522223605827 580.8976160969777" stroke-miterlimit="10"/></g><g transform="translate(-182,-350) scale(1,1)"><path fill="#C0C0C0" stroke="none" d="M 553 1311 L 625.08447265625 1311 Q 635.08447265625 1311 635.08447265625 1321 L 635.08447265625 1340 Q 635.08447265625 1350 625.08447265625 1350 L 553 1350 Q 543 1350 543 1340 L 543 1321 Q 543 1311 553 1311 Z" opacity="0.2"/></g><g transform="translate(-182,-350) scale(1,1)"><path fill="#ffffff" stroke="none" d="M 546 1304 L 618.08447265625 1304 Q 628.08447265625 1304 628.08447265625 1314 L 628.08447265625 1333 Q 628.08447265625 1343 618.08447265625 1343 L 546 1343 Q 536 1343 536 1333 L 536 1314 Q 536 1304 546 1304 Z"/></g><g transform="translate(-182,-350) scale(1,1)"><path fill="none" stroke="#000000" d="M 546 1304 L 618.08447265625 1304 Q 628.08447265625 1304 628.08447265625 1314 L 628.08447265625 1333 Q 628.08447265625 1343 618.08447265625 1343 L 546 1343 Q 536 1343 536 1333 L 536 1314 Q 536 1304 546 1304 Z" stroke-miterlimit="10"/></g><g transform="translate(-182,-350) scale(1,1)"><g><path fill="none" stroke="none"/><text fill="#000000" stroke="none" font-family="Arial" font-size="13px" font-style="normal" font-weight="bold" text-decoration="none" x="547" y="1323.5">ticket stored</text></g></g><g transform="translate(-182,-350) scale(1,1)"><path fill="#C0C0C0" stroke="none" d="M 575 1435.5 C 575 1428.59644 580.59644 1423 587.5 1423 C 594.40356 1423 600 1428.59644 600 1435.5 C 600 1442.40356 594.40356 1448 587.5 1448 C 580.59644 1448 575 1442.40356 575 1435.5 Z" opacity="0.2"/></g><g transform="translate(-182,-350) scale(1,1)"><path fill="none" stroke="#000000" d="M 568 1428.5 C 568 1421.59644 573.59644 1416 580.5 1416 C 587.40356 1416 593 1421.59644 593 1428.5 C 593 1435.40356 587.40356 1441 580.5 1441 C 573.59644 1441 568 1435.40356 568 1428.5 Z" stroke-miterlimit="10"/></g><g transform="translate(-182,-350) scale(1,1)"><path fill="#000000" stroke="none" d="M 573 1428.5 C 573 1424.357864 576.357864 1421 580.5 1421 C 584.642136 1421 588 1424.357864 588 1428.5 C 588 1432.642136 584.642136 1436 580.5 1436 C 576.357864 1436 573 1432.642136 573 1428.5 Z"/></g><g transform="translate(-182,-350) scale(1,1)"><path fill="none" stroke="#000000" d="M 258 856 L 256 1320 L 535 1323" stroke-miterlimit="10"/></g><g transform="translate(-182,-350) scale(1,1)"><path fill="none" stroke="#000000" d="M 524.7926515818932 1327.100004667238 L 535 1323 L 524.8831736125225 1318.6814558187234" stroke-miterlimit="10"/></g><g transform="translate(-182,-350) scale(1,1)"><path fill="none" stroke="#000000" d="M 579 1192 L 581 1303" stroke-miterlimit="10"/></g><g transform="translate(-182,-350) scale(1,1)"><path fill="none" stroke="#000000" d="M 576.6080838429713 1292.9148092497153 L 581 1303 L 585.0257530720484 1292.763139533876" stroke-miterlimit="10"/></g><g transform="translate(-182,-350) scale(1,1)"><path fill="none" stroke="#000000" d="M 582 1344 L 580 1415" stroke-miterlimit="10"/></g><g transform="translate(-182,-350) scale(1,1)"><path fill="none" stroke="#000000" d="M 576.0783103839789 1404.722823804391 L 580 1415 L 584.4940076581668 1404.9598856994385" stroke-miterlimit="10"/></g><g transform="translate(-182,-350) scale(1,1)"><path fill="#C0C0C0" stroke="none" d="M 353 943 L 461.9072265625 943 Q 471.9072265625 943 471.9072265625 953 L 471.9072265625 972 Q 471.9072265625 982 461.9072265625 982 L 353 982 Q 343 982 343 972 L 343 953 Q 343 943 353 943 Z" opacity="0.2"/></g><g transform="translate(-182,-350) scale(1,1)"><path fill="#ffffff" stroke="none" d="M 346 936 L 454.9072265625 936 Q 464.9072265625 936 464.9072265625 946 L 464.9072265625 965 Q 464.9072265625 975 454.9072265625 975 L 346 975 Q 336 975 336 965 L 336 946 Q 336 936 346 936 Z"/></g><g transform="translate(-182,-350) scale(1,1)"><path fill="none" stroke="#000000" d="M 346 936 L 454.9072265625 936 Q 464.9072265625 936 464.9072265625 946 L 464.9072265625 965 Q 464.9072265625 975 454.9072265625 975 L 346 975 Q 336 975 336 965 L 336 946 Q 336 936 346 936 Z" stroke-miterlimit="10"/></g><g transform="translate(-182,-350) scale(1,1)"><g><path fill="none" stroke="none"/><text fill="#000000" stroke="none" font-family="Arial" font-size="13px" font-style="normal" font-weight="bold" text-decoration="none" x="345.530517578125" y="955.5">ticket not approved</text></g></g><g transform="translate(-182,-350) scale(1,1)"><path fill="none" stroke="#000000" d="M 401 976 L 416 1304 L 535 1318" stroke-miterlimit="10"/></g><g transform="translate(-182,-350) scale(1,1)"><path fill="none" stroke="#000000" d="M 524.4150880173437 1320.9932654943086 L 535 1318 L 525.3987786298837 1312.6318952877182" stroke-miterlimit="10"/></g><g transform="translate(-182,-350) scale(1,1)"><path fill="none" stroke="#000000" d="M 586 632 L 583 711" stroke-miterlimit="10"/></g><g transform="translate(-182,-350) scale(1,1)"><path fill="none" stroke="#000000" d="M 579.1791605846995 700.6849049368178 L 583 711 L 587.5921322073762 701.0043848718561" stroke-miterlimit="10"/></g><g transform="translate(-182,-350) scale(1,1)"><g><path fill="none" stroke="none"/><text fill="#000000" stroke="none" font-family="Arial" font-size="13px" font-style="normal" font-weight="normal" text-decoration="none" x="591.5" y="677.5">ok</text></g></g><g transform="translate(-182,-350) scale(1,1)"><path fill="none" stroke="#000000" d="M 581 856 L 582 959" stroke-miterlimit="10"/></g><g transform="translate(-182,-350) scale(1,1)"><path fill="none" stroke="#000000" d="M 577.6920185272949 948.8786712517166 L 582 959 L 586.1106572799538 948.7969368948947" stroke-miterlimit="10"/></g><g transform="translate(-182,-350) scale(1,1)"><g><path fill="none" stroke="none"/><text fill="#000000" stroke="none" font-family="Arial" font-size="13px" font-style="normal" font-weight="normal" text-decoration="none" x="588.5" y="912.5">ok</text></g></g><g transform="translate(-182,-350) scale(1,1)"><path fill="none" stroke="#000000" d="M 503 834 L 400 832 L 400 935" stroke-miterlimit="10"/></g><g transform="translate(-182,-350) scale(1,1)"><path fill="none" stroke="#000000" d="M 395.790482243984 924.8373251423759 L 400 935 L 404.209517756016 924.8373251423759" stroke-miterlimit="10"/></g><g transform="translate(-182,-350) scale(1,1)"><g><path fill="none" stroke="none"/><text fill="#000000" stroke="none" font-family="Arial" font-size="13px" font-style="normal" font-weight="normal" text-decoration="none" x="430.5" y="818.5">ko</text></g></g><g transform="translate(-182,-350) scale(1,1)"><path fill="none" stroke="#000000" d="M 535 612 L 256 616 L 258 815" stroke-miterlimit="10"/></g><g transform="translate(-182,-350) scale(1,1)"><path fill="none" stroke="#000000" d="M 253.68856254659858 804.8801429315722 L 258 815 L 262.1071728977621 804.7955337823144" stroke-miterlimit="10"/></g><g transform="translate(-182,-350) scale(1,1)"><g><path fill="none" stroke="none"/><text fill="#000000" stroke="none" font-family="Arial" font-size="13px" font-style="normal" font-weight="normal" text-decoration="none" x="407.5" y="612.5">ko</text></g></g><g transform="translate(-182,-350) scale(1,1)"><path fill="#C0C0C0" stroke="none" d="M 529 719 L 649.9677734375 719 Q 659.9677734375 719 659.9677734375 729 L 659.9677734375 748 Q 659.9677734375 758 649.9677734375 758 L 529 758 Q 519 758 519 748 L 519 729 Q 519 719 529 719 Z" opacity="0.2"/></g><g transform="translate(-182,-350) scale(1,1)"><path fill="#ffffff" stroke="none" d="M 522 712 L 642.9677734375 712 Q 652.9677734375 712 652.9677734375 722 L 652.9677734375 741 Q 652.9677734375 751 642.9677734375 751 L 522 751 Q 512 751 512 741 L 512 722 Q 512 712 522 712 Z"/></g><g transform="translate(-182,-350) scale(1,1)"><path fill="none" stroke="#000000" d="M 522 712 L 642.9677734375 712 Q 652.9677734375 712 652.9677734375 722 L 652.9677734375 741 Q 652.9677734375 751 642.9677734375 751 L 522 751 Q 512 751 512 741 L 512 722 Q 512 712 522 712 Z" stroke-miterlimit="10"/></g><g transform="translate(-182,-350) scale(1,1)"><g><path fill="none" stroke="none"/><text fill="#000000" stroke="none" font-family="Arial" font-size="13px" font-style="normal" font-weight="bold" text-decoration="none" x="520.229248046875" y="731.5">Complete Ticket Data</text></g></g><g transform="translate(-182,-350) scale(1,1)"><path fill="none" stroke="#000000" d="M 582 752 L 581 815" stroke-miterlimit="10"/></g><g transform="translate(-182,-350) scale(1,1)"><path fill="none" stroke="#000000" d="M 576.9523044249755 804.7717958305514 L 581 815 L 585.3702795382991 804.9054144831438" stroke-miterlimit="10"/></g><g transform="translate(-182,-350) scale(1,1)"><g><path fill="none" stroke="none"/><text fill="#000000" stroke="none" font-family="Arial" font-size="13px" font-style="normal" font-weight="normal" text-decoration="none" x="590.5" y="788.5">done</text></g></g><g transform="translate(-182,-350) scale(1,1)"><path fill="none" stroke="#000000" d="M 582 1000 L 578 1151" stroke-miterlimit="10"/></g><g transform="translate(-182,-350) scale(1,1)"><path fill="none" stroke="#000000" d="M 574.0610739503244 1140.7294176613404 L 578 1151 L 582.477157098083 1140.952360261281" stroke-miterlimit="10"/></g></g></svg>