<svg version="1.1" xmlns="http://www.w3.org/2000/svg" xmlns:xlink="http://www.w3.org/1999/xlink" width="537" height="270"><defs/><g><text fill="#eeeeee" stroke="none" font-family="Arial" font-size="24px" font-style="normal" font-weight="normal" text-decoration="none" x="0" y="0">UNREGISTERED</text><text fill="#eeeeee" stroke="none" font-family="Arial" font-size="24px" font-style="normal" font-weight="normal" text-decoration="none" x="0" y="30">UNREGISTERED</text><text fill="#eeeeee" stroke="none" font-family="Arial" font-size="24px" font-style="normal" font-weight="normal" text-decoration="none" x="0" y="60">UNREGISTERED</text><text fill="#eeeeee" stroke="none" font-family="Arial" font-size="24px" font-style="normal" font-weight="normal" text-decoration="none" x="0" y="90">UNREGISTERED</text><text fill="#eeeeee" stroke="none" font-family="Arial" font-size="24px" font-style="normal" font-weight="normal" text-decoration="none" x="0" y="120">UNREGISTERED</text><text fill="#eeeeee" stroke="none" font-family="Arial" font-size="24px" font-style="normal" font-weight="normal" text-decoration="none" x="0" y="150">UNREGISTERED</text><text fill="#eeeeee" stroke="none" font-family="Arial" font-size="24px" font-style="normal" font-weight="normal" text-decoration="none" x="0" y="180">UNREGISTERED</text><text fill="#eeeeee" stroke="none" font-family="Arial" font-size="24px" font-style="normal" font-weight="normal" text-decoration="none" x="0" y="210">UNREGISTERED</text><text fill="#eeeeee" stroke="none" font-family="Arial" font-size="24px" font-style="normal" font-weight="normal" text-decoration="none" x="0" y="240">UNREGISTERED</text><text fill="#eeeeee" stroke="none" font-family="Arial" font-size="24px" font-style="normal" font-weight="normal" text-decoration="none" x="200" y="0">UNREGISTERED</text><text fill="#eeeeee" stroke="none" font-family="Arial" font-size="24px" font-style="normal" font-weight="normal" text-decoration="none" x="200" y="30">UNREGISTERED</text><text fill="#eeeeee" stroke="none" font-family="Arial" font-size="24px" font-style="normal" font-weight="normal" text-decoration="none" x="200" y="60">UNREGISTERED</text><text fill="#eeeeee" stroke="none" font-family="Arial" font-size="24px" font-style="normal" font-weight="normal" text-decoration="none" x="200" y="90">UNREGISTERED</text><text fill="#eeeeee" stroke="none" font-family="Arial" font-size="24px" font-style="normal" font-weight="normal" text-decoration="none" x="200" y="120">UNREGISTERED</text><text fill="#eeeeee" stroke="none" font-family="Arial" font-size="24px" font-style="normal" font-weight="normal" text-decoration="none" x="200" y="150">UNREGISTERED</text><text fill="#eeeeee" stroke="none" font-family="Arial" font-size="24px" font-style="normal" font-weight="normal" text-decoration="none" x="200" y="180">UNREGISTERED</text><text fill="#eeeeee" stroke="none" font-family="Arial" font-size="24px" font-style="normal" font-weight="normal" text-decoration="none" x="200" y="210">UNREGISTERED</text><text fill="#eeeeee" stroke="none" font-family="Arial" font-size="24px" font-style="normal" font-weight="normal" text-decoration="none" x="200" y="240">UNREGISTERED</text><text fill="#eeeeee" stroke="none" font-family="Arial" font-size="24px" font-style="normal" font-weight="normal" text-decoration="none" x="400" y="0">UNREGISTERED</text><text fill="#eeeeee" stroke="none" font-family="Arial" font-size="24px" font-style="normal" font-weight="normal" text-decoration="none" x="400" y="30">UNREGISTERED</text><text fill="#eeeeee" stroke="none" font-family="Arial" font-size="24px" font-style="normal" font-weight="normal" text-decoration="none" x="400" y="60">UNREGISTERED</text><text fill="#eeeeee" stroke="none" font-family="Arial" font-size="24px" font-style="normal" font-weight="normal" text-decoration="none" x="400" y="90">UNREGISTERED</text><text fill="#eeeeee" stroke="none" font-family="Arial" font-size="24px" font-style="normal" font-weight="normal" text-decoration="none" x="400" y="120">UNREGISTERED</text><text fill="#eeeeee" stroke="none" font-family="Arial" font-size="24px" font-style="normal" font-weight="normal" text-decoration="none" x="400" y="150">UNREGISTERED</text><text fill="#eeeeee" stroke="none" font-family="Arial" font-size="24px" font-style="normal" font-weight="normal" text-decoration="none" x="400" y="180">UNREGISTERED</text><text fill="#eeeeee" stroke="none" font-family="Arial" font-size="24px" font-style="normal" font-weight="normal" text-decoration="none" x="400" y="210">UNREGISTERED</text><text fill="#eeeeee" stroke="none" font-family="Arial" font-size="24px" font-style="normal" font-weight="normal" text-decoration="none" x="400" y="240">UNREGISTERED</text><g transform="translate(-6,-478) scale(1,1)"><path fill="#ffffff" stroke="none" d="M 55.15935031960227 593.6800000000001 C 55.15935031960227 588.8861679360001 59.045192644547726 585 63.838623046875 585 C 68.63205344920227 585 72.51789577414773 588.8861679360001 72.51789577414773 593.6800000000001 C 72.51789577414773 598.473832064 68.63205344920227 602.36 63.838623046875 602.36 C 59.045192644547726 602.36 55.15935031960227 598.473832064 55.15935031960227 593.6800000000001 Z"/></g><g transform="translate(-6,-478) scale(1,1)"><path fill="none" stroke="#000000" d="M 55.15935031960227 593.6800000000001 C 55.15935031960227 588.8861679360001 59.045192644547726 585 63.838623046875 585 C 68.63205344920227 585 72.51789577414773 588.8861679360001 72.51789577414773 593.6800000000001 C 72.51789577414773 598.473832064 68.63205344920227 602.36 63.838623046875 602.36 C 59.045192644547726 602.36 55.15935031960227 598.473832064 55.15935031960227 593.6800000000001 Z" stroke-miterlimit="10"/></g><g transform="translate(-6,-478) scale(1,1)"><path fill="none" stroke="#000000" d="M 63.838623046875 602.36 L 63.838623046875 619.64" stroke-miterlimit="10"/></g><g transform="translate(-6,-478) scale(1,1)"><path fill="none" stroke="#000000" d="M 54.64880486505682 608.84 L 73.02844122869318 608.84" stroke-miterlimit="10"/></g><g transform="translate(-6,-478) scale(1,1)"><path fill="none" stroke="#000000" d="M 63.838623046875 619.64 L 51.074986683238635 637" stroke-miterlimit="10"/></g><g transform="translate(-6,-478) scale(1,1)"><path fill="none" stroke="#000000" d="M 63.838623046875 619.64 L 76.60225941051137 637" stroke-miterlimit="10"/></g><g transform="translate(-6,-478) scale(1,1)"><g><path fill="none" stroke="none"/><text fill="#000000" stroke="none" font-family="Arial" font-size="13px" font-style="normal" font-weight="bold" text-decoration="none" x="24.464111328125" y="657.5">AuthorityUser</text></g></g><g transform="translate(-6,-478) scale(1,1)"><path fill="#C0C0C0" stroke="none" d="M 215 512 C 215 502.6111584 247.9070672 495 288.5 495 C 329.09293279999997 495 362 502.6111584 362 512 C 362 521.3888416 329.09293279999997 529 288.5 529 C 247.9070672 529 215 521.3888416 215 512 Z" opacity="0.2"/></g><g transform="translate(-6,-478) scale(1,1)"><path fill="#ffffff" stroke="none" d="M 208 505 C 208 495.6111584 240.9070672 488 281.5 488 C 322.09293279999997 488 355 495.6111584 355 505 C 355 514.3888416 322.09293279999997 522 281.5 522 C 240.9070672 522 208 514.3888416 208 505 Z"/></g><g transform="translate(-6,-478) scale(1,1)"><path fill="none" stroke="#000000" d="M 208 505 C 208 495.6111584 240.9070672 488 281.5 488 C 322.09293279999997 488 355 495.6111584 355 505 C 355 514.3888416 322.09293279999997 522 281.5 522 C 240.9070672 522 208 514.3888416 208 505 Z" stroke-miterlimit="10"/></g><g transform="translate(-6,-478) scale(1,1)"><g><path fill="none" stroke="none"/><text fill="#000000" stroke="none" font-family="Arial" font-size="13px" font-style="normal" font-weight="bold" text-decoration="none" x="237.666259765625" y="512">Ticket approval</text></g></g><g transform="translate(-6,-478) scale(1,1)"><path fill="#C0C0C0" stroke="none" d="M 439 680 C 439 670.6111584 461.6096176 663 489.5 663 C 517.3903824 663 540 670.6111584 540 680 C 540 689.3888416 517.3903824 697 489.5 697 C 461.6096176 697 439 689.3888416 439 680 Z" opacity="0.2"/></g><g transform="translate(-6,-478) scale(1,1)"><path fill="#ffffff" stroke="none" d="M 432 673 C 432 663.6111584 454.6096176 656 482.5 656 C 510.3903824 656 533 663.6111584 533 673 C 533 682.3888416 510.3903824 690 482.5 690 C 454.6096176 690 432 682.3888416 432 673 Z"/></g><g transform="translate(-6,-478) scale(1,1)"><path fill="none" stroke="#000000" d="M 432 673 C 432 663.6111584 454.6096176 656 482.5 656 C 510.3903824 656 533 663.6111584 533 673 C 533 682.3888416 510.3903824 690 482.5 690 C 454.6096176 690 432 682.3888416 432 673 Z" stroke-miterlimit="10"/></g><g transform="translate(-6,-478) scale(1,1)"><g><path fill="none" stroke="none"/><text fill="#000000" stroke="none" font-family="Arial" font-size="13px" font-style="normal" font-weight="bold" text-decoration="none" x="456.49365234375" y="680">Statistics</text></g></g><g transform="translate(-6,-478) scale(1,1)"><path fill="#C0C0C0" stroke="none" d="M 215 640 C 215 630.6111584 249.4740704 623 292 623 C 334.5259296 623 369 630.6111584 369 640 C 369 649.3888416 334.5259296 657 292 657 C 249.4740704 657 215 649.3888416 215 640 Z" opacity="0.2"/></g><g transform="translate(-6,-478) scale(1,1)"><path fill="#ffffff" stroke="none" d="M 208 633 C 208 623.6111584 242.4740704 616 285 616 C 327.5259296 616 362 623.6111584 362 633 C 362 642.3888416 327.5259296 650 285 650 C 242.4740704 650 208 642.3888416 208 633 Z"/></g><g transform="translate(-6,-478) scale(1,1)"><path fill="none" stroke="#000000" d="M 208 633 C 208 623.6111584 242.4740704 616 285 616 C 327.5259296 616 362 623.6111584 362 633 C 362 642.3888416 327.5259296 650 285 650 C 242.4740704 650 208 642.3888416 208 633 Z" stroke-miterlimit="10"/></g><g transform="translate(-6,-478) scale(1,1)"><g><path fill="none" stroke="none"/><text fill="#000000" stroke="none" font-family="Arial" font-size="13px" font-style="normal" font-weight="bold" text-decoration="none" x="239.115966796875" y="640">Ticket offenders</text></g></g><g transform="translate(-6,-478) scale(1,1)"><path fill="#C0C0C0" stroke="none" d="M 239 728 C 239 718.6111584 261.6096176 711 289.5 711 C 317.3903824 711 340 718.6111584 340 728 C 340 737.3888416 317.3903824 745 289.5 745 C 261.6096176 745 239 737.3888416 239 728 Z" opacity="0.2"/></g><g transform="translate(-6,-478) scale(1,1)"><path fill="#ffffff" stroke="none" d="M 232 721 C 232 711.6111584 254.6096176 704 282.5 704 C 310.3903824 704 333 711.6111584 333 721 C 333 730.3888416 310.3903824 738 282.5 738 C 254.6096176 738 232 730.3888416 232 721 Z"/></g><g transform="translate(-6,-478) scale(1,1)"><path fill="none" stroke="#000000" d="M 232 721 C 232 711.6111584 254.6096176 704 282.5 704 C 310.3903824 704 333 711.6111584 333 721 C 333 730.3888416 310.3903824 738 282.5 738 C 254.6096176 738 232 730.3888416 232 721 Z" stroke-miterlimit="10"/></g><g transform="translate(-6,-478) scale(1,1)"><g><path fill="none" stroke="none"/><text fill="#000000" stroke="none" font-family="Arial" font-size="13px" font-style="normal" font-weight="bold" text-decoration="none" x="262.51123046875" y="728">Trends</text></g></g><g transform="translate(-6,-478) scale(1,1)"><path fill="none" stroke="#000000" d="M 113 596 L 248 523" stroke-miterlimit="10"/></g><g transform="translate(-6,-478) scale(1,1)"><path fill="none" stroke="#000000" d="M 241.0628485489668 531.5367399951872 L 248 523 L 237.05830642703307 524.1310799066796" stroke-miterlimit="10"/></g><g transform="translate(-6,-478) scale(1,1)"><path fill="none" stroke="#000000" d="M 113 625 L 207 629" stroke-miterlimit="10"/></g><g transform="translate(-6,-478) scale(1,1)"><path fill="none" stroke="#000000" d="M 196.66754736500863 632.7736484395953 L 207 629 L 197.02548027405692 624.3622250769607" stroke-miterlimit="10"/></g><g transform="translate(-6,-478) scale(1,1)"><path fill="none" stroke="#000000" d="M 113 645 L 242 703" stroke-miterlimit="10"/></g><g transform="translate(-6,-478) scale(1,1)"><path fill="none" stroke="#000000" d="M 231.00489450703384 702.6718914835832 L 242 703 L 234.45729410298557 694.9932785891388" stroke-miterlimit="10"/></g><g transform="translate(-6,-478) scale(1,1)"><path fill="none" stroke="#000000" d="M 431 663 L 363 649" stroke-miterlimit="10" stroke-dasharray="3"/></g><g transform="translate(-6,-478) scale(1,1)"><path fill="none" stroke="#000000" d="M 373.80276501774216 646.9262912520206 L 363 649 L 372.1050419175124 655.1723748817083" stroke-miterlimit="10"/></g><g transform="translate(-6,-478) scale(1,1)"><g><path fill="none" stroke="none"/><text fill="#000000" stroke="none" font-family="Arial" font-size="13px" font-style="normal" font-weight="normal" text-decoration="none" x="384.5" y="646.5">«include»</text></g></g><g transform="translate(-6,-478) scale(1,1)"><path fill="none" stroke="#000000" d="M 431 685 L 334 709" stroke-miterlimit="10" stroke-dasharray="3"/></g><g transform="translate(-6,-478) scale(1,1)"><path fill="none" stroke="#000000" d="M 342.8541534576449 702.472828595136 L 334 709 L 344.8762391139133 710.6454247892208" stroke-miterlimit="10"/></g><g transform="translate(-6,-478) scale(1,1)"><g><path fill="none" stroke="none"/><text fill="#000000" stroke="none" font-family="Arial" font-size="13px" font-style="normal" font-weight="normal" text-decoration="none" x="375.5" y="715.5">«include»</text></g></g></g></svg>