<svg version="1.1" xmlns="http://www.w3.org/2000/svg" xmlns:xlink="http://www.w3.org/1999/xlink" width="347.67724609375" height="387"><defs/><g><text fill="#eeeeee" stroke="none" font-family="Arial" font-size="24px" font-style="normal" font-weight="normal" text-decoration="none" x="0" y="0">UNREGISTERED</text><text fill="#eeeeee" stroke="none" font-family="Arial" font-size="24px" font-style="normal" font-weight="normal" text-decoration="none" x="0" y="30">UNREGISTERED</text><text fill="#eeeeee" stroke="none" font-family="Arial" font-size="24px" font-style="normal" font-weight="normal" text-decoration="none" x="0" y="60">UNREGISTERED</text><text fill="#eeeeee" stroke="none" font-family="Arial" font-size="24px" font-style="normal" font-weight="normal" text-decoration="none" x="0" y="90">UNREGISTERED</text><text fill="#eeeeee" stroke="none" font-family="Arial" font-size="24px" font-style="normal" font-weight="normal" text-decoration="none" x="0" y="120">UNREGISTERED</text><text fill="#eeeeee" stroke="none" font-family="Arial" font-size="24px" font-style="normal" font-weight="normal" text-decoration="none" x="0" y="150">UNREGISTERED</text><text fill="#eeeeee" stroke="none" font-family="Arial" font-size="24px" font-style="normal" font-weight="normal" text-decoration="none" x="0" y="180">UNREGISTERED</text><text fill="#eeeeee" stroke="none" font-family="Arial" font-size="24px" font-style="normal" font-weight="normal" text-decoration="none" x="0" y="210">UNREGISTERED</text><text fill="#eeeeee" stroke="none" font-family="Arial" font-size="24px" font-style="normal" font-weight="normal" text-decoration="none" x="0" y="240">UNREGISTERED</text><text fill="#eeeeee" stroke="none" font-family="Arial" font-size="24px" font-style="normal" font-weight="normal" text-decoration="none" x="0" y="270">UNREGISTERED</text><text fill="#eeeeee" stroke="none" font-family="Arial" font-size="24px" font-style="normal" font-weight="normal" text-decoration="none" x="0" y="300">UNREGISTERED</text><text fill="#eeeeee" stroke="none" font-family="Arial" font-size="24px" font-style="normal" font-weight="normal" text-decoration="none" x="0" y="330">UNREGISTERED</text><text fill="#eeeeee" stroke="none" font-family="Arial" font-size="24px" font-style="normal" font-weight="normal" text-decoration="none" x="0" y="360">UNREGISTERED</text><text fill="#eeeeee" stroke="none" font-family="Arial" font-size="24px" font-style="normal" font-weight="normal" text-decoration="none" x="200" y="0">UNREGISTERED</text><text fill="#eeeeee" stroke="none" font-family="Arial" font-size="24px" font-style="normal" font-weight="normal" text-decoration="none" x="200" y="30">UNREGISTERED</text><text fill="#eeeeee" stroke="none" font-family="Arial" font-size="24px" font-style="normal" font-weight="normal" text-decoration="none" x="200" y="60">UNREGISTERED</text><text fill="#eeeeee" stroke="none" font-family="Arial" font-size="24px" font-style="normal" font-weight="normal" text-decoration="none" x="200" y="90">UNREGISTERED</text><text fill="#eeeeee" stroke="none" font-family="Arial" font-size="24px" font-style="normal" font-weight="normal" text-decoration="none" x="200" y="120">UNREGISTERED</text><text fill="#eeeeee" stroke="none" font-family="Arial" font-size="24px" font-style="normal" font-weight="normal" text-decoration="none" x="200" y="150">UNREGISTERED</text><text fill="#eeeeee" stroke="none" font-family="Arial" font-size="24px" font-style="normal" font-weight="normal" text-decoration="none" x="200" y="180">UNREGISTERED</text><text fill="#eeeeee" stroke="none" font-family="Arial" font-size="24px" font-style="normal" font-weight="normal" text-decoration="none" x="200" y="210">UNREGISTERED</text><text fill="#eeeeee" stroke="none" font-family="Arial" font-size="24px" font-style="normal" font-weight="normal" text-decoration="none" x="200" y="240">UNREGISTERED</text><text fill="#eeeeee" stroke="none" font-family="Arial" font-size="24px" font-style="normal" font-weight="normal" text-decoration="none" x="200" y="270">UNREGISTERED</text><text fill="#eeeeee" stroke="none" font-family="Arial" font-size="24px" font-style="normal" font-weight="normal" text-decoration="none" x="200" y="300">UNREGISTERED</text><text fill="#eeeeee" stroke="none" font-family="Arial" font-size="24px" font-style="normal" font-weight="normal" text-decoration="none" x="200" y="330">UNREGISTERED</text><text fill="#eeeeee" stroke="none" font-family="Arial" font-size="24px" font-style="normal" font-weight="normal" text-decoration="none" x="200" y="360">UNREGISTERED</text><g transform="translate(-118,-102) scale(1,1)"><path fill="#ffffff" stroke="none" d="M 167.15935031960228 257.68 C 167.15935031960228 252.886167936 171.04519264454774 249 175.838623046875 249 C 180.63205344920226 249 184.51789577414772 252.886167936 184.51789577414772 257.68 C 184.51789577414772 262.473832064 180.63205344920226 266.36 175.838623046875 266.36 C 171.04519264454774 266.36 167.15935031960228 262.473832064 167.15935031960228 257.68 Z"/></g><g transform="translate(-118,-102) scale(1,1)"><path fill="none" stroke="#000000" d="M 167.15935031960228 257.68 C 167.15935031960228 252.886167936 171.04519264454774 249 175.838623046875 249 C 180.63205344920226 249 184.51789577414772 252.886167936 184.51789577414772 257.68 C 184.51789577414772 262.473832064 180.63205344920226 266.36 175.838623046875 266.36 C 171.04519264454774 266.36 167.15935031960228 262.473832064 167.15935031960228 257.68 Z" stroke-miterlimit="10"/></g><g transform="translate(-118,-102) scale(1,1)"><path fill="none" stroke="#000000" d="M 175.838623046875 266.36 L 175.838623046875 283.64" stroke-miterlimit="10"/></g><g transform="translate(-118,-102) scale(1,1)"><path fill="none" stroke="#000000" d="M 166.64880486505683 272.84 L 185.02844122869317 272.84" stroke-miterlimit="10"/></g><g transform="translate(-118,-102) scale(1,1)"><path fill="none" stroke="#000000" d="M 175.838623046875 283.64 L 163.07498668323865 301" stroke-miterlimit="10"/></g><g transform="translate(-118,-102) scale(1,1)"><path fill="none" stroke="#000000" d="M 175.838623046875 283.64 L 188.60225941051135 301" stroke-miterlimit="10"/></g><g transform="translate(-118,-102) scale(1,1)"><g><path fill="none" stroke="none"/><text fill="#000000" stroke="none" font-family="Arial" font-size="13px" font-style="normal" font-weight="bold" text-decoration="none" x="136.464111328125" y="321.5">AuthorityUser</text></g></g><g transform="translate(-118,-102) scale(1,1)"><path fill="#ffffff" stroke="none" d="M 168.40935031960228 121.68 C 168.40935031960228 116.886167936 172.29519264454774 113 177.088623046875 113 C 181.88205344920226 113 185.76789577414772 116.886167936 185.76789577414772 121.68 C 185.76789577414772 126.473832064 181.88205344920226 130.36 177.088623046875 130.36 C 172.29519264454774 130.36 168.40935031960228 126.473832064 168.40935031960228 121.68 Z"/></g><g transform="translate(-118,-102) scale(1,1)"><path fill="none" stroke="#000000" d="M 168.40935031960228 121.68 C 168.40935031960228 116.886167936 172.29519264454774 113 177.088623046875 113 C 181.88205344920226 113 185.76789577414772 116.886167936 185.76789577414772 121.68 C 185.76789577414772 126.473832064 181.88205344920226 130.36 177.088623046875 130.36 C 172.29519264454774 130.36 168.40935031960228 126.473832064 168.40935031960228 121.68 Z" stroke-miterlimit="10"/></g><g transform="translate(-118,-102) scale(1,1)"><path fill="none" stroke="#000000" d="M 177.088623046875 130.36 L 177.088623046875 147.64" stroke-miterlimit="10"/></g><g transform="translate(-118,-102) scale(1,1)"><path fill="none" stroke="#000000" d="M 167.89880486505683 136.84 L 186.27844122869317 136.84" stroke-miterlimit="10"/></g><g transform="translate(-118,-102) scale(1,1)"><path fill="none" stroke="#000000" d="M 177.088623046875 147.64 L 164.32498668323865 165" stroke-miterlimit="10"/></g><g transform="translate(-118,-102) scale(1,1)"><path fill="none" stroke="#000000" d="M 177.088623046875 147.64 L 189.85225941051135 165" stroke-miterlimit="10"/></g><g transform="translate(-118,-102) scale(1,1)"><g><path fill="none" stroke="none"/><text fill="#000000" stroke="none" font-family="Arial" font-size="13px" font-style="normal" font-weight="bold" text-decoration="none" x="163.364990234375" y="185.5">User</text></g></g><g transform="translate(-118,-102) scale(1,1)"><path fill="#ffffff" stroke="none" d="M 168.40935031960228 409.68 C 168.40935031960228 404.886167936 172.29519264454774 401 177.088623046875 401 C 181.88205344920226 401 185.76789577414772 404.886167936 185.76789577414772 409.68 C 185.76789577414772 414.473832064 181.88205344920226 418.36 177.088623046875 418.36 C 172.29519264454774 418.36 168.40935031960228 414.473832064 168.40935031960228 409.68 Z"/></g><g transform="translate(-118,-102) scale(1,1)"><path fill="none" stroke="#000000" d="M 168.40935031960228 409.68 C 168.40935031960228 404.886167936 172.29519264454774 401 177.088623046875 401 C 181.88205344920226 401 185.76789577414772 404.886167936 185.76789577414772 409.68 C 185.76789577414772 414.473832064 181.88205344920226 418.36 177.088623046875 418.36 C 172.29519264454774 418.36 168.40935031960228 414.473832064 168.40935031960228 409.68 Z" stroke-miterlimit="10"/></g><g transform="translate(-118,-102) scale(1,1)"><path fill="none" stroke="#000000" d="M 177.088623046875 418.36 L 177.088623046875 435.64" stroke-miterlimit="10"/></g><g transform="translate(-118,-102) scale(1,1)"><path fill="none" stroke="#000000" d="M 167.89880486505683 424.84 L 186.27844122869317 424.84" stroke-miterlimit="10"/></g><g transform="translate(-118,-102) scale(1,1)"><path fill="none" stroke="#000000" d="M 177.088623046875 435.64 L 164.32498668323865 453" stroke-miterlimit="10"/></g><g transform="translate(-118,-102) scale(1,1)"><path fill="none" stroke="#000000" d="M 177.088623046875 435.64 L 189.85225941051135 453" stroke-miterlimit="10"/></g><g transform="translate(-118,-102) scale(1,1)"><g><path fill="none" stroke="none"/><text fill="#000000" stroke="none" font-family="Arial" font-size="13px" font-style="normal" font-weight="bold" text-decoration="none" x="163.364990234375" y="473.5">User</text></g></g><g transform="translate(-118,-102) scale(1,1)"><path fill="#ffffff" stroke="none" d="M 399.15935031960225 265.68 C 399.15935031960225 260.886167936 403.04519264454774 257 407.838623046875 257 C 412.63205344920226 257 416.51789577414775 260.886167936 416.51789577414775 265.68 C 416.51789577414775 270.473832064 412.63205344920226 274.36 407.838623046875 274.36 C 403.04519264454774 274.36 399.15935031960225 270.473832064 399.15935031960225 265.68 Z"/></g><g transform="translate(-118,-102) scale(1,1)"><path fill="none" stroke="#000000" d="M 399.15935031960225 265.68 C 399.15935031960225 260.886167936 403.04519264454774 257 407.838623046875 257 C 412.63205344920226 257 416.51789577414775 260.886167936 416.51789577414775 265.68 C 416.51789577414775 270.473832064 412.63205344920226 274.36 407.838623046875 274.36 C 403.04519264454774 274.36 399.15935031960225 270.473832064 399.15935031960225 265.68 Z" stroke-miterlimit="10"/></g><g transform="translate(-118,-102) scale(1,1)"><path fill="none" stroke="#000000" d="M 407.838623046875 274.36 L 407.838623046875 291.64" stroke-miterlimit="10"/></g><g transform="translate(-118,-102) scale(1,1)"><path fill="none" stroke="#000000" d="M 398.64880486505683 280.84 L 417.02844122869317 280.84" stroke-miterlimit="10"/></g><g transform="translate(-118,-102) scale(1,1)"><path fill="none" stroke="#000000" d="M 407.838623046875 291.64 L 395.07498668323865 309" stroke-miterlimit="10"/></g><g transform="translate(-118,-102) scale(1,1)"><path fill="none" stroke="#000000" d="M 407.838623046875 291.64 L 420.60225941051135 309" stroke-miterlimit="10"/></g><g transform="translate(-118,-102) scale(1,1)"><g><path fill="none" stroke="none"/><text fill="#000000" stroke="none" font-family="Arial" font-size="13px" font-style="normal" font-weight="bold" text-decoration="none" x="368.464111328125" y="329.5">AuthorityUser</text></g></g></g></svg>