<svg version="1.1" xmlns="http://www.w3.org/2000/svg" xmlns:xlink="http://www.w3.org/1999/xlink" width="1580" height="492"><defs/><g><text fill="#eeeeee" stroke="none" font-family="Arial" font-size="24px" font-style="normal" font-weight="normal" text-decoration="none" x="0" y="0">UNREGISTERED</text><text fill="#eeeeee" stroke="none" font-family="Arial" font-size="24px" font-style="normal" font-weight="normal" text-decoration="none" x="0" y="30">UNREGISTERED</text><text fill="#eeeeee" stroke="none" font-family="Arial" font-size="24px" font-style="normal" font-weight="normal" text-decoration="none" x="0" y="60">UNREGISTERED</text><text fill="#eeeeee" stroke="none" font-family="Arial" font-size="24px" font-style="normal" font-weight="normal" text-decoration="none" x="0" y="90">UNREGISTERED</text><text fill="#eeeeee" stroke="none" font-family="Arial" font-size="24px" font-style="normal" font-weight="normal" text-decoration="none" x="0" y="120">UNREGISTERED</text><text fill="#eeeeee" stroke="none" font-family="Arial" font-size="24px" font-style="normal" font-weight="normal" text-decoration="none" x="0" y="150">UNREGISTERED</text><text fill="#eeeeee" stroke="none" font-family="Arial" font-size="24px" font-style="normal" font-weight="normal" text-decoration="none" x="0" y="180">UNREGISTERED</text><text fill="#eeeeee" stroke="none" font-family="Arial" font-size="24px" font-style="normal" font-weight="normal" text-decoration="none" x="0" y="210">UNREGISTERED</text><text fill="#eeeeee" stroke="none" font-family="Arial" font-size="24px" font-style="normal" font-weight="normal" text-decoration="none" x="0" y="240">UNREGISTERED</text><text fill="#eeeeee" stroke="none" font-family="Arial" font-size="24px" font-style="normal" font-weight="normal" text-decoration="none" x="0" y="270">UNREGISTERED</text><text fill="#eeeeee" stroke="none" font-family="Arial" font-size="24px" font-style="normal" font-weight="normal" text-decoration="none" x="0" y="300">UNREGISTERED</text><text fill="#eeeeee" stroke="none" font-family="Arial" font-size="24px" font-style="normal" font-weight="normal" text-decoration="none" x="0" y="330">UNREGISTERED</text><text fill="#eeeeee" stroke="none" font-family="Arial" font-size="24px" font-style="normal" font-weight="normal" text-decoration="none" x="0" y="360">UNREGISTERED</text><text fill="#eeeeee" stroke="none" font-family="Arial" font-size="24px" font-style="normal" font-weight="normal" text-decoration="none" x="0" y="390">UNREGISTERED</text><text fill="#eeeeee" stroke="none" font-family="Arial" font-size="24px" font-style="normal" font-weight="normal" text-decoration="none" x="0" y="420">UNREGISTERED</text><text fill="#eeeeee" stroke="none" font-family="Arial" font-size="24px" font-style="normal" font-weight="normal" text-decoration="none" x="0" y="450">UNREGISTERED</text><text fill="#eeeeee" stroke="none" font-family="Arial" font-size="24px" font-style="normal" font-weight="normal" text-decoration="none" x="0" y="480">UNREGISTERED</text><text fill="#eeeeee" stroke="none" font-family="Arial" font-size="24px" font-style="normal" font-weight="normal" text-decoration="none" x="200" y="0">UNREGISTERED</text><text fill="#eeeeee" stroke="none" font-family="Arial" font-size="24px" font-style="normal" font-weight="normal" text-decoration="none" x="200" y="30">UNREGISTERED</text><text fill="#eeeeee" stroke="none" font-family="Arial" font-size="24px" font-style="normal" font-weight="normal" text-decoration="none" x="200" y="60">UNREGISTERED</text><text fill="#eeeeee" stroke="none" font-family="Arial" font-size="24px" font-style="normal" font-weight="normal" text-decoration="none" x="200" y="90">UNREGISTERED</text><text fill="#eeeeee" stroke="none" font-family="Arial" font-size="24px" font-style="normal" font-weight="normal" text-decoration="none" x="200" y="120">UNREGISTERED</text><text fill="#eeeeee" stroke="none" font-family="Arial" font-size="24px" font-style="normal" font-weight="normal" text-decoration="none" x="200" y="150">UNREGISTERED</text><text fill="#eeeeee" stroke="none" font-family="Arial" font-size="24px" font-style="normal" font-weight="normal" text-decoration="none" x="200" y="180">UNREGISTERED</text><text fill="#eeeeee" stroke="none" font-family="Arial" font-size="24px" font-style="normal" font-weight="normal" text-decoration="none" x="200" y="210">UNREGISTERED</text><text fill="#eeeeee" stroke="none" font-family="Arial" font-size="24px" font-style="normal" font-weight="normal" text-decoration="none" x="200" y="240">UNREGISTERED</text><text fill="#eeeeee" stroke="none" font-family="Arial" font-size="24px" font-style="normal" font-weight="normal" text-decoration="none" x="200" y="270">UNREGISTERED</text><text fill="#eeeeee" stroke="none" font-family="Arial" font-size="24px" font-style="normal" font-weight="normal" text-decoration="none" x="200" y="300">UNREGISTERED</text><text fill="#eeeeee" stroke="none" font-family="Arial" font-size="24px" font-style="normal" font-weight="normal" text-decoration="none" x="200" y="330">UNREGISTERED</text><text fill="#eeeeee" stroke="none" font-family="Arial" font-size="24px" font-style="normal" font-weight="normal" text-decoration="none" x="200" y="360">UNREGISTERED</text><text fill="#eeeeee" stroke="none" font-family="Arial" font-size="24px" font-style="normal" font-weight="normal" text-decoration="none" x="200" y="390">UNREGISTERED</text><text fill="#eeeeee" stroke="none" font-family="Arial" font-size="24px" font-style="normal" font-weight="normal" text-decoration="none" x="200" y="420">UNREGISTERED</text><text fill="#eeeeee" stroke="none" font-family="Arial" font-size="24px" font-style="normal" font-weight="normal" text-decoration="none" x="200" y="450">UNREGISTERED</text><text fill="#eeeeee" stroke="none" font-family="Arial" font-size="24px" font-style="normal" font-weight="normal" text-decoration="none" x="200" y="480">UNREGISTERED</text><text fill="#eeeeee" stroke="none" font-family="Arial" font-size="24px" font-style="normal" font-weight="normal" text-decoration="none" x="400" y="0">UNREGISTERED</text><text fill="#eeeeee" stroke="none" font-family="Arial" font-size="24px" font-style="normal" font-weight="normal" text-decoration="none" x="400" y="30">UNREGISTERED</text><text fill="#eeeeee" stroke="none" font-family="Arial" font-size="24px" font-style="normal" font-weight="normal" text-decoration="none" x="400" y="60">UNREGISTERED</text><text fill="#eeeeee" stroke="none" font-family="Arial" font-size="24px" font-style="normal" font-weight="normal" text-decoration="none" x="400" y="90">UNREGISTERED</text><text fill="#eeeeee" stroke="none" font-family="Arial" font-size="24px" font-style="normal" font-weight="normal" text-decoration="none" x="400" y="120">UNREGISTERED</text><text fill="#eeeeee" stroke="none" font-family="Arial" font-size="24px" font-style="normal" font-weight="normal" text-decoration="none" x="400" y="150">UNREGISTERED</text><text fill="#eeeeee" stroke="none" font-family="Arial" font-size="24px" font-style="normal" font-weight="normal" text-decoration="none" x="400" y="180">UNREGISTERED</text><text fill="#eeeeee" stroke="none" font-family="Arial" font-size="24px" font-style="normal" font-weight="normal" text-decoration="none" x="400" y="210">UNREGISTERED</text><text fill="#eeeeee" stroke="none" font-family="Arial" font-size="24px" font-style="normal" font-weight="normal" text-decoration="none" x="400" y="240">UNREGISTERED</text><text fill="#eeeeee" stroke="none" font-family="Arial" font-size="24px" font-style="normal" font-weight="normal" text-decoration="none" x="400" y="270">UNREGISTERED</text><text fill="#eeeeee" stroke="none" font-family="Arial" font-size="24px" font-style="normal" font-weight="normal" text-decoration="none" x="400" y="300">UNREGISTERED</text><text fill="#eeeeee" stroke="none" font-family="Arial" font-size="24px" font-style="normal" font-weight="normal" text-decoration="none" x="400" y="330">UNREGISTERED</text><text fill="#eeeeee" stroke="none" font-family="Arial" font-size="24px" font-style="normal" font-weight="normal" text-decoration="none" x="400" y="360">UNREGISTERED</text><text fill="#eeeeee" stroke="none" font-family="Arial" font-size="24px" font-style="normal" font-weight="normal" text-decoration="none" x="400" y="390">UNREGISTERED</text><text fill="#eeeeee" stroke="none" font-family="Arial" font-size="24px" font-style="normal" font-weight="normal" text-decoration="none" x="400" y="420">UNREGISTERED</text><text fill="#eeeeee" stroke="none" font-family="Arial" font-size="24px" font-style="normal" font-weight="normal" text-decoration="none" x="400" y="450">UNREGISTERED</text><text fill="#eeeeee" stroke="none" font-family="Arial" font-size="24px" font-style="normal" font-weight="normal" text-decoration="none" x="400" y="480">UNREGISTERED</text><text fill="#eeeeee" stroke="none" font-family="Arial" font-size="24px" font-style="normal" font-weight="normal" text-decoration="none" x="600" y="0">UNREGISTERED</text><text fill="#eeeeee" stroke="none" font-family="Arial" font-size="24px" font-style="normal" font-weight="normal" text-decoration="none" x="600" y="30">UNREGISTERED</text><text fill="#eeeeee" stroke="none" font-family="Arial" font-size="24px" font-style="normal" font-weight="normal" text-decoration="none" x="600" y="60">UNREGISTERED</text><text fill="#eeeeee" stroke="none" font-family="Arial" font-size="24px" font-style="normal" font-weight="normal" text-decoration="none" x="600" y="90">UNREGISTERED</text><text fill="#eeeeee" stroke="none" font-family="Arial" font-size="24px" font-style="normal" font-weight="normal" text-decoration="none" x="600" y="120">UNREGISTERED</text><text fill="#eeeeee" stroke="none" font-family="Arial" font-size="24px" font-style="normal" font-weight="normal" text-decoration="none" x="600" y="150">UNREGISTERED</text><text fill="#eeeeee" stroke="none" font-family="Arial" font-size="24px" font-style="normal" font-weight="normal" text-decoration="none" x="600" y="180">UNREGISTERED</text><text fill="#eeeeee" stroke="none" font-family="Arial" font-size="24px" font-style="normal" font-weight="normal" text-decoration="none" x="600" y="210">UNREGISTERED</text><text fill="#eeeeee" stroke="none" font-family="Arial" font-size="24px" font-style="normal" font-weight="normal" text-decoration="none" x="600" y="240">UNREGISTERED</text><text fill="#eeeeee" stroke="none" font-family="Arial" font-size="24px" font-style="normal" font-weight="normal" text-decoration="none" x="600" y="270">UNREGISTERED</text><text fill="#eeeeee" stroke="none" font-family="Arial" font-size="24px" font-style="normal" font-weight="normal" text-decoration="none" x="600" y="300">UNREGISTERED</text><text fill="#eeeeee" stroke="none" font-family="Arial" font-size="24px" font-style="normal" font-weight="normal" text-decoration="none" x="600" y="330">UNREGISTERED</text><text fill="#eeeeee" stroke="none" font-family="Arial" font-size="24px" font-style="normal" font-weight="normal" text-decoration="none" x="600" y="360">UNREGISTERED</text><text fill="#eeeeee" stroke="none" font-family="Arial" font-size="24px" font-style="normal" font-weight="normal" text-decoration="none" x="600" y="390">UNREGISTERED</text><text fill="#eeeeee" stroke="none" font-family="Arial" font-size="24px" font-style="normal" font-weight="normal" text-decoration="none" x="600" y="420">UNREGISTERED</text><text fill="#eeeeee" stroke="none" font-family="Arial" font-size="24px" font-style="normal" font-weight="normal" text-decoration="none" x="600" y="450">UNREGISTERED</text><text fill="#eeeeee" stroke="none" font-family="Arial" font-size="24px" font-style="normal" font-weight="normal" text-decoration="none" x="600" y="480">UNREGISTERED</text><text fill="#eeeeee" stroke="none" font-family="Arial" font-size="24px" font-style="normal" font-weight="normal" text-decoration="none" x="800" y="0">UNREGISTERED</text><text fill="#eeeeee" stroke="none" font-family="Arial" font-size="24px" font-style="normal" font-weight="normal" text-decoration="none" x="800" y="30">UNREGISTERED</text><text fill="#eeeeee" stroke="none" font-family="Arial" font-size="24px" font-style="normal" font-weight="normal" text-decoration="none" x="800" y="60">UNREGISTERED</text><text fill="#eeeeee" stroke="none" font-family="Arial" font-size="24px" font-style="normal" font-weight="normal" text-decoration="none" x="800" y="90">UNREGISTERED</text><text fill="#eeeeee" stroke="none" font-family="Arial" font-size="24px" font-style="normal" font-weight="normal" text-decoration="none" x="800" y="120">UNREGISTERED</text><text fill="#eeeeee" stroke="none" font-family="Arial" font-size="24px" font-style="normal" font-weight="normal" text-decoration="none" x="800" y="150">UNREGISTERED</text><text fill="#eeeeee" stroke="none" font-family="Arial" font-size="24px" font-style="normal" font-weight="normal" text-decoration="none" x="800" y="180">UNREGISTERED</text><text fill="#eeeeee" stroke="none" font-family="Arial" font-size="24px" font-style="normal" font-weight="normal" text-decoration="none" x="800" y="210">UNREGISTERED</text><text fill="#eeeeee" stroke="none" font-family="Arial" font-size="24px" font-style="normal" font-weight="normal" text-decoration="none" x="800" y="240">UNREGISTERED</text><text fill="#eeeeee" stroke="none" font-family="Arial" font-size="24px" font-style="normal" font-weight="normal" text-decoration="none" x="800" y="270">UNREGISTERED</text><text fill="#eeeeee" stroke="none" font-family="Arial" font-size="24px" font-style="normal" font-weight="normal" text-decoration="none" x="800" y="300">UNREGISTERED</text><text fill="#eeeeee" stroke="none" font-family="Arial" font-size="24px" font-style="normal" font-weight="normal" text-decoration="none" x="800" y="330">UNREGISTERED</text><text fill="#eeeeee" stroke="none" font-family="Arial" font-size="24px" font-style="normal" font-weight="normal" text-decoration="none" x="800" y="360">UNREGISTERED</text><text fill="#eeeeee" stroke="none" font-family="Arial" font-size="24px" font-style="normal" font-weight="normal" text-decoration="none" x="800" y="390">UNREGISTERED</text><text fill="#eeeeee" stroke="none" font-family="Arial" font-size="24px" font-style="normal" font-weight="normal" text-decoration="none" x="800" y="420">UNREGISTERED</text><text fill="#eeeeee" stroke="none" font-family="Arial" font-size="24px" font-style="normal" font-weight="normal" text-decoration="none" x="800" y="450">UNREGISTERED</text><text fill="#eeeeee" stroke="none" font-family="Arial" font-size="24px" font-style="normal" font-weight="normal" text-decoration="none" x="800" y="480">UNREGISTERED</text><text fill="#eeeeee" stroke="none" font-family="Arial" font-size="24px" font-style="normal" font-weight="normal" text-decoration="none" x="1000" y="0">UNREGISTERED</text><text fill="#eeeeee" stroke="none" font-family="Arial" font-size="24px" font-style="normal" font-weight="normal" text-decoration="none" x="1000" y="30">UNREGISTERED</text><text fill="#eeeeee" stroke="none" font-family="Arial" font-size="24px" font-style="normal" font-weight="normal" text-decoration="none" x="1000" y="60">UNREGISTERED</text><text fill="#eeeeee" stroke="none" font-family="Arial" font-size="24px" font-style="normal" font-weight="normal" text-decoration="none" x="1000" y="90">UNREGISTERED</text><text fill="#eeeeee" stroke="none" font-family="Arial" font-size="24px" font-style="normal" font-weight="normal" text-decoration="none" x="1000" y="120">UNREGISTERED</text><text fill="#eeeeee" stroke="none" font-family="Arial" font-size="24px" font-style="normal" font-weight="normal" text-decoration="none" x="1000" y="150">UNREGISTERED</text><text fill="#eeeeee" stroke="none" font-family="Arial" font-size="24px" font-style="normal" font-weight="normal" text-decoration="none" x="1000" y="180">UNREGISTERED</text><text fill="#eeeeee" stroke="none" font-family="Arial" font-size="24px" font-style="normal" font-weight="normal" text-decoration="none" x="1000" y="210">UNREGISTERED</text><text fill="#eeeeee" stroke="none" font-family="Arial" font-size="24px" font-style="normal" font-weight="normal" text-decoration="none" x="1000" y="240">UNREGISTERED</text><text fill="#eeeeee" stroke="none" font-family="Arial" font-size="24px" font-style="normal" font-weight="normal" text-decoration="none" x="1000" y="270">UNREGISTERED</text><text fill="#eeeeee" stroke="none" font-family="Arial" font-size="24px" font-style="normal" font-weight="normal" text-decoration="none" x="1000" y="300">UNREGISTERED</text><text fill="#eeeeee" stroke="none" font-family="Arial" font-size="24px" font-style="normal" font-weight="normal" text-decoration="none" x="1000" y="330">UNREGISTERED</text><text fill="#eeeeee" stroke="none" font-family="Arial" font-size="24px" font-style="normal" font-weight="normal" text-decoration="none" x="1000" y="360">UNREGISTERED</text><text fill="#eeeeee" stroke="none" font-family="Arial" font-size="24px" font-style="normal" font-weight="normal" text-decoration="none" x="1000" y="390">UNREGISTERED</text><text fill="#eeeeee" stroke="none" font-family="Arial" font-size="24px" font-style="normal" font-weight="normal" text-decoration="none" x="1000" y="420">UNREGISTERED</text><text fill="#eeeeee" stroke="none" font-family="Arial" font-size="24px" font-style="normal" font-weight="normal" text-decoration="none" x="1000" y="450">UNREGISTERED</text><text fill="#eeeeee" stroke="none" font-family="Arial" font-size="24px" font-style="normal" font-weight="normal" text-decoration="none" x="1000" y="480">UNREGISTERED</text><text fill="#eeeeee" stroke="none" font-family="Arial" font-size="24px" font-style="normal" font-weight="normal" text-decoration="none" x="1200" y="0">UNREGISTERED</text><text fill="#eeeeee" stroke="none" font-family="Arial" font-size="24px" font-style="normal" font-weight="normal" text-decoration="none" x="1200" y="30">UNREGISTERED</text><text fill="#eeeeee" stroke="none" font-family="Arial" font-size="24px" font-style="normal" font-weight="normal" text-decoration="none" x="1200" y="60">UNREGISTERED</text><text fill="#eeeeee" stroke="none" font-family="Arial" font-size="24px" font-style="normal" font-weight="normal" text-decoration="none" x="1200" y="90">UNREGISTERED</text><text fill="#eeeeee" stroke="none" font-family="Arial" font-size="24px" font-style="normal" font-weight="normal" text-decoration="none" x="1200" y="120">UNREGISTERED</text><text fill="#eeeeee" stroke="none" font-family="Arial" font-size="24px" font-style="normal" font-weight="normal" text-decoration="none" x="1200" y="150">UNREGISTERED</text><text fill="#eeeeee" stroke="none" font-family="Arial" font-size="24px" font-style="normal" font-weight="normal" text-decoration="none" x="1200" y="180">UNREGISTERED</text><text fill="#eeeeee" stroke="none" font-family="Arial" font-size="24px" font-style="normal" font-weight="normal" text-decoration="none" x="1200" y="210">UNREGISTERED</text><text fill="#eeeeee" stroke="none" font-family="Arial" font-size="24px" font-style="normal" font-weight="normal" text-decoration="none" x="1200" y="240">UNREGISTERED</text><text fill="#eeeeee" stroke="none" font-family="Arial" font-size="24px" font-style="normal" font-weight="normal" text-decoration="none" x="1200" y="270">UNREGISTERED</text><text fill="#eeeeee" stroke="none" font-family="Arial" font-size="24px" font-style="normal" font-weight="normal" text-decoration="none" x="1200" y="300">UNREGISTERED</text><text fill="#eeeeee" stroke="none" font-family="Arial" font-size="24px" font-style="normal" font-weight="normal" text-decoration="none" x="1200" y="330">UNREGISTERED</text><text fill="#eeeeee" stroke="none" font-family="Arial" font-size="24px" font-style="normal" font-weight="normal" text-decoration="none" x="1200" y="360">UNREGISTERED</text><text fill="#eeeeee" stroke="none" font-family="Arial" font-size="24px" font-style="normal" font-weight="normal" text-decoration="none" x="1200" y="390">UNREGISTERED</text><text fill="#eeeeee" stroke="none" font-family="Arial" font-size="24px" font-style="normal" font-weight="normal" text-decoration="none" x="1200" y="420">UNREGISTERED</text><text fill="#eeeeee" stroke="none" font-family="Arial" font-size="24px" font-style="normal" font-weight="normal" text-decoration="none" x="1200" y="450">UNREGISTERED</text><text fill="#eeeeee" stroke="none" font-family="Arial" font-size="24px" font-style="normal" font-weight="normal" text-decoration="none" x="1200" y="480">UNREGISTERED</text><text fill="#eeeeee" stroke="none" font-family="Arial" font-size="24px" font-style="normal" font-weight="normal" text-decoration="none" x="1400" y="0">UNREGISTERED</text><text fill="#eeeeee" stroke="none" font-family="Arial" font-size="24px" font-style="normal" font-weight="normal" text-decoration="none" x="1400" y="30">UNREGISTERED</text><text fill="#eeeeee" stroke="none" font-family="Arial" font-size="24px" font-style="normal" font-weight="normal" text-decoration="none" x="1400" y="60">UNREGISTERED</text><text fill="#eeeeee" stroke="none" font-family="Arial" font-size="24px" font-style="normal" font-weight="normal" text-decoration="none" x="1400" y="90">UNREGISTERED</text><text fill="#eeeeee" stroke="none" font-family="Arial" font-size="24px" font-style="normal" font-weight="normal" text-decoration="none" x="1400" y="120">UNREGISTERED</text><text fill="#eeeeee" stroke="none" font-family="Arial" font-size="24px" font-style="normal" font-weight="normal" text-decoration="none" x="1400" y="150">UNREGISTERED</text><text fill="#eeeeee" stroke="none" font-family="Arial" font-size="24px" font-style="normal" font-weight="normal" text-decoration="none" x="1400" y="180">UNREGISTERED</text><text fill="#eeeeee" stroke="none" font-family="Arial" font-size="24px" font-style="normal" font-weight="normal" text-decoration="none" x="1400" y="210">UNREGISTERED</text><text fill="#eeeeee" stroke="none" font-family="Arial" font-size="24px" font-style="normal" font-weight="normal" text-decoration="none" x="1400" y="240">UNREGISTERED</text><text fill="#eeeeee" stroke="none" font-family="Arial" font-size="24px" font-style="normal" font-weight="normal" text-decoration="none" x="1400" y="270">UNREGISTERED</text><text fill="#eeeeee" stroke="none" font-family="Arial" font-size="24px" font-style="normal" font-weight="normal" text-decoration="none" x="1400" y="300">UNREGISTERED</text><text fill="#eeeeee" stroke="none" font-family="Arial" font-size="24px" font-style="normal" font-weight="normal" text-decoration="none" x="1400" y="330">UNREGISTERED</text><text fill="#eeeeee" stroke="none" font-family="Arial" font-size="24px" font-style="normal" font-weight="normal" text-decoration="none" x="1400" y="360">UNREGISTERED</text><text fill="#eeeeee" stroke="none" font-family="Arial" font-size="24px" font-style="normal" font-weight="normal" text-decoration="none" x="1400" y="390">UNREGISTERED</text><text fill="#eeeeee" stroke="none" font-family="Arial" font-size="24px" font-style="normal" font-weight="normal" text-decoration="none" x="1400" y="420">UNREGISTERED</text><text fill="#eeeeee" stroke="none" font-family="Arial" font-size="24px" font-style="normal" font-weight="normal" text-decoration="none" x="1400" y="450">UNREGISTERED</text><text fill="#eeeeee" stroke="none" font-family="Arial" font-size="24px" font-style="normal" font-weight="normal" text-decoration="none" x="1400" y="480">UNREGISTERED</text><g transform="translate(-118,-182) scale(1,1)"><path fill="#C0C0C0" stroke="none" d="M 135 217 L 428 217 L 428 654 L 135 654" opacity="0.2"/></g><g transform="translate(-118,-182) scale(1,1)"><path fill="#C0C0C0" stroke="none" d="M 135 217 L 145 207 L 438 207 L 428 217" opacity="0.2"/></g><g transform="translate(-118,-182) scale(1,1)"><path fill="#C0C0C0" stroke="none" d="M 438 207 L 428 217 L 428 654 L 438 644" opacity="0.2"/></g><g transform="translate(-118,-182) scale(1,1)"><path fill="#ffffff" stroke="none" d="M 128 210 L 421 210 L 421 647 L 128 647"/></g><g transform="translate(-118,-182) scale(1,1)"><path fill="#ffffff" stroke="none" d="M 128 210 L 138 200 L 431 200 L 421 210"/></g><g transform="translate(-118,-182) scale(1,1)"><path fill="#ffffff" stroke="none" d="M 431 200 L 421 210 L 421 647 L 431 637"/></g><g transform="translate(-118,-182) scale(1,1)"><path fill="none" stroke="#000000" d="M 128 210 L 421 210 L 421 647 L 128 647 L 128 210" stroke-miterlimit="10"/></g><g transform="translate(-118,-182) scale(1,1)"><path fill="none" stroke="#000000" d="M 128 210 L 138 200 L 431 200 L 421 210 L 128 210" stroke-miterlimit="10"/></g><g transform="translate(-118,-182) scale(1,1)"><path fill="none" stroke="#000000" d="M 431 200 L 421 210 L 421 647 L 431 637 L 431 200" stroke-miterlimit="10"/></g><g transform="translate(-118,-182) scale(1,1)"><g><path fill="none" stroke="none"/><text fill="#000000" stroke="none" font-family="Arial" font-size="13px" font-style="normal" font-weight="normal" text-decoration="none" x="248.98095703125" y="227.5">«device»</text></g></g><g transform="translate(-118,-182) scale(1,1)"><g><path fill="none" stroke="none"/><text fill="#000000" stroke="none" font-family="Arial" font-size="13px" font-style="normal" font-weight="bold" text-decoration="none" x="235.984130859375" y="242.5">MobileDevice</text></g></g><g transform="translate(-118,-182) scale(1,1)"><path fill="#C0C0C0" stroke="none" d="M 575 209 L 1260 209 L 1260 670 L 575 670" opacity="0.2"/></g><g transform="translate(-118,-182) scale(1,1)"><path fill="#C0C0C0" stroke="none" d="M 575 209 L 585 199 L 1270 199 L 1260 209" opacity="0.2"/></g><g transform="translate(-118,-182) scale(1,1)"><path fill="#C0C0C0" stroke="none" d="M 1270 199 L 1260 209 L 1260 670 L 1270 660" opacity="0.2"/></g><g transform="translate(-118,-182) scale(1,1)"><path fill="#ffffff" stroke="none" d="M 568 202 L 1253 202 L 1253 663 L 568 663"/></g><g transform="translate(-118,-182) scale(1,1)"><path fill="#ffffff" stroke="none" d="M 568 202 L 578 192 L 1263 192 L 1253 202"/></g><g transform="translate(-118,-182) scale(1,1)"><path fill="#ffffff" stroke="none" d="M 1263 192 L 1253 202 L 1253 663 L 1263 653"/></g><g transform="translate(-118,-182) scale(1,1)"><path fill="none" stroke="#000000" d="M 568 202 L 1253 202 L 1253 663 L 568 663 L 568 202" stroke-miterlimit="10"/></g><g transform="translate(-118,-182) scale(1,1)"><path fill="none" stroke="#000000" d="M 568 202 L 578 192 L 1263 192 L 1253 202 L 568 202" stroke-miterlimit="10"/></g><g transform="translate(-118,-182) scale(1,1)"><path fill="none" stroke="#000000" d="M 1263 192 L 1253 202 L 1253 663 L 1263 653 L 1263 192" stroke-miterlimit="10"/></g><g transform="translate(-118,-182) scale(1,1)"><g><path fill="none" stroke="none"/><text fill="#000000" stroke="none" font-family="Arial" font-size="13px" font-style="normal" font-weight="normal" text-decoration="none" x="884.98095703125" y="219.5">«device»</text></g></g><g transform="translate(-118,-182) scale(1,1)"><g><path fill="none" stroke="none"/><text fill="#000000" stroke="none" font-family="Arial" font-size="13px" font-style="normal" font-weight="bold" text-decoration="none" x="860.056884765625" y="234.5">ApplicationServer</text></g></g><g transform="translate(-118,-182) scale(1,1)"><path fill="#C0C0C0" stroke="none" d="M 151 289 L 388 289 L 388 630 L 151 630" opacity="0.2"/></g><g transform="translate(-118,-182) scale(1,1)"><path fill="#C0C0C0" stroke="none" d="M 151 289 L 161 279 L 398 279 L 388 289" opacity="0.2"/></g><g transform="translate(-118,-182) scale(1,1)"><path fill="#C0C0C0" stroke="none" d="M 398 279 L 388 289 L 388 630 L 398 620" opacity="0.2"/></g><g transform="translate(-118,-182) scale(1,1)"><path fill="#ffffff" stroke="none" d="M 144 282 L 381 282 L 381 623 L 144 623"/></g><g transform="translate(-118,-182) scale(1,1)"><path fill="#ffffff" stroke="none" d="M 144 282 L 154 272 L 391 272 L 381 282"/></g><g transform="translate(-118,-182) scale(1,1)"><path fill="#ffffff" stroke="none" d="M 391 272 L 381 282 L 381 623 L 391 613"/></g><g transform="translate(-118,-182) scale(1,1)"><path fill="none" stroke="#000000" d="M 144 282 L 381 282 L 381 623 L 144 623 L 144 282" stroke-miterlimit="10"/></g><g transform="translate(-118,-182) scale(1,1)"><path fill="none" stroke="#000000" d="M 144 282 L 154 272 L 391 272 L 381 282 L 144 282" stroke-miterlimit="10"/></g><g transform="translate(-118,-182) scale(1,1)"><path fill="none" stroke="#000000" d="M 391 272 L 381 282 L 381 623 L 391 613 L 391 272" stroke-miterlimit="10"/></g><g transform="translate(-118,-182) scale(1,1)"><g><path fill="none" stroke="none"/><text fill="#000000" stroke="none" font-family="Arial" font-size="13px" font-style="normal" font-weight="normal" text-decoration="none" x="246.378662109375" y="299.5">«OS»</text></g></g><g transform="translate(-118,-182) scale(1,1)"><g><path fill="none" stroke="none"/><text fill="#000000" stroke="none" font-family="Arial" font-size="13px" font-style="normal" font-weight="bold" text-decoration="none" x="227.95458984375" y="314.5">iOS/Android</text></g></g><g transform="translate(-118,-182) scale(1,1)"><path fill="#C0C0C0" stroke="none" d="M 183 369 L 336.259765625 369 L 336.259765625 574 L 183 574" opacity="0.2"/></g><g transform="translate(-118,-182) scale(1,1)"><path fill="#C0C0C0" stroke="none" d="M 183 369 L 193 359 L 346.259765625 359 L 336.259765625 369" opacity="0.2"/></g><g transform="translate(-118,-182) scale(1,1)"><path fill="#C0C0C0" stroke="none" d="M 346.259765625 359 L 336.259765625 369 L 336.259765625 574 L 346.259765625 564" opacity="0.2"/></g><g transform="translate(-118,-182) scale(1,1)"><path fill="#ffffff" stroke="none" d="M 176 362 L 329.259765625 362 L 329.259765625 567 L 176 567"/></g><g transform="translate(-118,-182) scale(1,1)"><path fill="#ffffff" stroke="none" d="M 176 362 L 186 352 L 339.259765625 352 L 329.259765625 362"/></g><g transform="translate(-118,-182) scale(1,1)"><path fill="#ffffff" stroke="none" d="M 339.259765625 352 L 329.259765625 362 L 329.259765625 567 L 339.259765625 557"/></g><g transform="translate(-118,-182) scale(1,1)"><path fill="none" stroke="#000000" d="M 176 362 L 329.259765625 362 L 329.259765625 567 L 176 567 L 176 362" stroke-miterlimit="10"/></g><g transform="translate(-118,-182) scale(1,1)"><path fill="none" stroke="#000000" d="M 176 362 L 186 352 L 339.259765625 352 L 329.259765625 362 L 176 362" stroke-miterlimit="10"/></g><g transform="translate(-118,-182) scale(1,1)"><path fill="none" stroke="#000000" d="M 339.259765625 352 L 329.259765625 362 L 329.259765625 567 L 339.259765625 557 L 339.259765625 352" stroke-miterlimit="10"/></g><g transform="translate(-118,-182) scale(1,1)"><g><path fill="none" stroke="none"/><text fill="#000000" stroke="none" font-family="Arial" font-size="13px" font-style="normal" font-weight="normal" text-decoration="none" x="180.5" y="379.5">«execution environment»</text></g></g><g transform="translate(-118,-182) scale(1,1)"><g><path fill="none" stroke="none"/><text fill="#000000" stroke="none" font-family="Arial" font-size="13px" font-style="normal" font-weight="bold" text-decoration="none" x="221.337646484375" y="394.5">Flutter App</text><path fill="none" stroke="#000000" d="M 287.791259765625 394.5 L 218.468505859375 394.5" stroke-miterlimit="10"/></g></g><g transform="translate(-118,-182) scale(1,1)"><path fill="#C0C0C0" stroke="none" d="M 599 257 L 1140 257 L 1140 646 L 599 646" opacity="0.2"/></g><g transform="translate(-118,-182) scale(1,1)"><path fill="#C0C0C0" stroke="none" d="M 599 257 L 609 247 L 1150 247 L 1140 257" opacity="0.2"/></g><g transform="translate(-118,-182) scale(1,1)"><path fill="#C0C0C0" stroke="none" d="M 1150 247 L 1140 257 L 1140 646 L 1150 636" opacity="0.2"/></g><g transform="translate(-118,-182) scale(1,1)"><path fill="#ffffff" stroke="none" d="M 592 250 L 1133 250 L 1133 639 L 592 639"/></g><g transform="translate(-118,-182) scale(1,1)"><path fill="#ffffff" stroke="none" d="M 592 250 L 602 240 L 1143 240 L 1133 250"/></g><g transform="translate(-118,-182) scale(1,1)"><path fill="#ffffff" stroke="none" d="M 1143 240 L 1133 250 L 1133 639 L 1143 629"/></g><g transform="translate(-118,-182) scale(1,1)"><path fill="none" stroke="#000000" d="M 592 250 L 1133 250 L 1133 639 L 592 639 L 592 250" stroke-miterlimit="10"/></g><g transform="translate(-118,-182) scale(1,1)"><path fill="none" stroke="#000000" d="M 592 250 L 602 240 L 1143 240 L 1133 250 L 592 250" stroke-miterlimit="10"/></g><g transform="translate(-118,-182) scale(1,1)"><path fill="none" stroke="#000000" d="M 1143 240 L 1133 250 L 1133 639 L 1143 629 L 1143 240" stroke-miterlimit="10"/></g><g transform="translate(-118,-182) scale(1,1)"><g><path fill="none" stroke="none"/><text fill="#000000" stroke="none" font-family="Arial" font-size="13px" font-style="normal" font-weight="normal" text-decoration="none" x="846.378662109375" y="267.5">«OS»</text></g></g><g transform="translate(-118,-182) scale(1,1)"><g><path fill="none" stroke="none"/><text fill="#000000" stroke="none" font-family="Arial" font-size="13px" font-style="normal" font-weight="bold" text-decoration="none" x="836.984130859375" y="282.5">Centos 7</text></g></g><g transform="translate(-118,-182) scale(1,1)"><path fill="#C0C0C0" stroke="none" d="M 631 313 L 948 313 L 948 622 L 631 622" opacity="0.2"/></g><g transform="translate(-118,-182) scale(1,1)"><path fill="#C0C0C0" stroke="none" d="M 631 313 L 641 303 L 958 303 L 948 313" opacity="0.2"/></g><g transform="translate(-118,-182) scale(1,1)"><path fill="#C0C0C0" stroke="none" d="M 958 303 L 948 313 L 948 622 L 958 612" opacity="0.2"/></g><g transform="translate(-118,-182) scale(1,1)"><path fill="#ffffff" stroke="none" d="M 624 306 L 941 306 L 941 615 L 624 615"/></g><g transform="translate(-118,-182) scale(1,1)"><path fill="#ffffff" stroke="none" d="M 624 306 L 634 296 L 951 296 L 941 306"/></g><g transform="translate(-118,-182) scale(1,1)"><path fill="#ffffff" stroke="none" d="M 951 296 L 941 306 L 941 615 L 951 605"/></g><g transform="translate(-118,-182) scale(1,1)"><path fill="none" stroke="#000000" d="M 624 306 L 941 306 L 941 615 L 624 615 L 624 306" stroke-miterlimit="10"/></g><g transform="translate(-118,-182) scale(1,1)"><path fill="none" stroke="#000000" d="M 624 306 L 634 296 L 951 296 L 941 306 L 624 306" stroke-miterlimit="10"/></g><g transform="translate(-118,-182) scale(1,1)"><path fill="none" stroke="#000000" d="M 951 296 L 941 306 L 941 615 L 951 605 L 951 296" stroke-miterlimit="10"/></g><g transform="translate(-118,-182) scale(1,1)"><g><path fill="none" stroke="none"/><text fill="#000000" stroke="none" font-family="Arial" font-size="13px" font-style="normal" font-weight="normal" text-decoration="none" x="710.3701171875" y="323.5">«execution environment»</text></g></g><g transform="translate(-118,-182) scale(1,1)"><g><path fill="none" stroke="none"/><text fill="#000000" stroke="none" font-family="Arial" font-size="13px" font-style="normal" font-weight="bold" text-decoration="none" x="760.9609375" y="338.5">Node.js</text><path fill="none" stroke="#000000" d="M 806.476806640625 338.5 L 759.523193359375 338.5" stroke-miterlimit="10"/></g></g><g transform="translate(-118,-182) scale(1,1)"><path fill="#C0C0C0" stroke="none" d="M 663 377 L 900 377 L 900 598 L 663 598" opacity="0.2"/></g><g transform="translate(-118,-182) scale(1,1)"><path fill="#C0C0C0" stroke="none" d="M 663 377 L 673 367 L 910 367 L 900 377" opacity="0.2"/></g><g transform="translate(-118,-182) scale(1,1)"><path fill="#C0C0C0" stroke="none" d="M 910 367 L 900 377 L 900 598 L 910 588" opacity="0.2"/></g><g transform="translate(-118,-182) scale(1,1)"><path fill="#ffffff" stroke="none" d="M 656 370 L 893 370 L 893 591 L 656 591"/></g><g transform="translate(-118,-182) scale(1,1)"><path fill="#ffffff" stroke="none" d="M 656 370 L 666 360 L 903 360 L 893 370"/></g><g transform="translate(-118,-182) scale(1,1)"><path fill="#ffffff" stroke="none" d="M 903 360 L 893 370 L 893 591 L 903 581"/></g><g transform="translate(-118,-182) scale(1,1)"><path fill="none" stroke="#000000" d="M 656 370 L 893 370 L 893 591 L 656 591 L 656 370" stroke-miterlimit="10"/></g><g transform="translate(-118,-182) scale(1,1)"><path fill="none" stroke="#000000" d="M 656 370 L 666 360 L 903 360 L 893 370 L 656 370" stroke-miterlimit="10"/></g><g transform="translate(-118,-182) scale(1,1)"><path fill="none" stroke="#000000" d="M 903 360 L 893 370 L 893 591 L 903 581 L 903 360" stroke-miterlimit="10"/></g><g transform="translate(-118,-182) scale(1,1)"><g><path fill="none" stroke="none"/><text fill="#000000" stroke="none" font-family="Arial" font-size="13px" font-style="normal" font-weight="bold" text-decoration="none" x="751.52001953125" y="389.5">Express</text></g></g><g transform="translate(-118,-182) scale(1,1)"><path fill="none" stroke="#000000" d="M 433 425 L 567 426" stroke-miterlimit="10"/></g><g transform="translate(-118,-182) scale(1,1)"><g><path fill="none" stroke="none"/><text fill="#000000" stroke="none" font-family="Arial" font-size="13px" font-style="normal" font-weight="normal" text-decoration="none" x="460.5" y="416.5">+REST HTTP</text></g></g><g transform="translate(-118,-182) scale(1,1)"><path fill="#C0C0C0" stroke="none" d="M 1415 209 L 1684 209 L 1684 670 L 1415 670" opacity="0.2"/></g><g transform="translate(-118,-182) scale(1,1)"><path fill="#C0C0C0" stroke="none" d="M 1415 209 L 1425 199 L 1694 199 L 1684 209" opacity="0.2"/></g><g transform="translate(-118,-182) scale(1,1)"><path fill="#C0C0C0" stroke="none" d="M 1694 199 L 1684 209 L 1684 670 L 1694 660" opacity="0.2"/></g><g transform="translate(-118,-182) scale(1,1)"><path fill="#ffffff" stroke="none" d="M 1408 202 L 1677 202 L 1677 663 L 1408 663"/></g><g transform="translate(-118,-182) scale(1,1)"><path fill="#ffffff" stroke="none" d="M 1408 202 L 1418 192 L 1687 192 L 1677 202"/></g><g transform="translate(-118,-182) scale(1,1)"><path fill="#ffffff" stroke="none" d="M 1687 192 L 1677 202 L 1677 663 L 1687 653"/></g><g transform="translate(-118,-182) scale(1,1)"><path fill="none" stroke="#000000" d="M 1408 202 L 1677 202 L 1677 663 L 1408 663 L 1408 202" stroke-miterlimit="10"/></g><g transform="translate(-118,-182) scale(1,1)"><path fill="none" stroke="#000000" d="M 1408 202 L 1418 192 L 1687 192 L 1677 202 L 1408 202" stroke-miterlimit="10"/></g><g transform="translate(-118,-182) scale(1,1)"><path fill="none" stroke="#000000" d="M 1687 192 L 1677 202 L 1677 663 L 1687 653 L 1687 192" stroke-miterlimit="10"/></g><g transform="translate(-118,-182) scale(1,1)"><g><path fill="none" stroke="none"/><text fill="#000000" stroke="none" font-family="Arial" font-size="13px" font-style="normal" font-weight="normal" text-decoration="none" x="1516.98095703125" y="219.5">«device»</text></g></g><g transform="translate(-118,-182) scale(1,1)"><g><path fill="none" stroke="none"/><text fill="#000000" stroke="none" font-family="Arial" font-size="13px" font-style="normal" font-weight="bold" text-decoration="none" x="1514.825927734375" y="234.5">DBServer</text></g></g><g transform="translate(-118,-182) scale(1,1)"><path fill="#C0C0C0" stroke="none" d="M 1431 273 L 1652 273 L 1652 638 L 1431 638" opacity="0.2"/></g><g transform="translate(-118,-182) scale(1,1)"><path fill="#C0C0C0" stroke="none" d="M 1431 273 L 1441 263 L 1662 263 L 1652 273" opacity="0.2"/></g><g transform="translate(-118,-182) scale(1,1)"><path fill="#C0C0C0" stroke="none" d="M 1662 263 L 1652 273 L 1652 638 L 1662 628" opacity="0.2"/></g><g transform="translate(-118,-182) scale(1,1)"><path fill="#ffffff" stroke="none" d="M 1424 266 L 1645 266 L 1645 631 L 1424 631"/></g><g transform="translate(-118,-182) scale(1,1)"><path fill="#ffffff" stroke="none" d="M 1424 266 L 1434 256 L 1655 256 L 1645 266"/></g><g transform="translate(-118,-182) scale(1,1)"><path fill="#ffffff" stroke="none" d="M 1655 256 L 1645 266 L 1645 631 L 1655 621"/></g><g transform="translate(-118,-182) scale(1,1)"><path fill="none" stroke="#000000" d="M 1424 266 L 1645 266 L 1645 631 L 1424 631 L 1424 266" stroke-miterlimit="10"/></g><g transform="translate(-118,-182) scale(1,1)"><path fill="none" stroke="#000000" d="M 1424 266 L 1434 256 L 1655 256 L 1645 266 L 1424 266" stroke-miterlimit="10"/></g><g transform="translate(-118,-182) scale(1,1)"><path fill="none" stroke="#000000" d="M 1655 256 L 1645 266 L 1645 631 L 1655 621 L 1655 256" stroke-miterlimit="10"/></g><g transform="translate(-118,-182) scale(1,1)"><g><path fill="none" stroke="none"/><text fill="#000000" stroke="none" font-family="Arial" font-size="13px" font-style="normal" font-weight="normal" text-decoration="none" x="1518.378662109375" y="283.5">«OS»</text></g></g><g transform="translate(-118,-182) scale(1,1)"><g><path fill="none" stroke="none"/><text fill="#000000" stroke="none" font-family="Arial" font-size="13px" font-style="normal" font-weight="bold" text-decoration="none" x="1508.984130859375" y="298.5">Centos 7</text></g></g><g transform="translate(-118,-182) scale(1,1)"><path fill="#C0C0C0" stroke="none" d="M 1447 345 L 1618.921875 345 L 1618.921875 598 L 1447 598" opacity="0.2"/></g><g transform="translate(-118,-182) scale(1,1)"><path fill="#C0C0C0" stroke="none" d="M 1447 345 L 1457 335 L 1628.921875 335 L 1618.921875 345" opacity="0.2"/></g><g transform="translate(-118,-182) scale(1,1)"><path fill="#C0C0C0" stroke="none" d="M 1628.921875 335 L 1618.921875 345 L 1618.921875 598 L 1628.921875 588" opacity="0.2"/></g><g transform="translate(-118,-182) scale(1,1)"><path fill="#ffffff" stroke="none" d="M 1440 338 L 1611.921875 338 L 1611.921875 591 L 1440 591"/></g><g transform="translate(-118,-182) scale(1,1)"><path fill="#ffffff" stroke="none" d="M 1440 338 L 1450 328 L 1621.921875 328 L 1611.921875 338"/></g><g transform="translate(-118,-182) scale(1,1)"><path fill="#ffffff" stroke="none" d="M 1621.921875 328 L 1611.921875 338 L 1611.921875 591 L 1621.921875 581"/></g><g transform="translate(-118,-182) scale(1,1)"><path fill="none" stroke="#000000" d="M 1440 338 L 1611.921875 338 L 1611.921875 591 L 1440 591 L 1440 338" stroke-miterlimit="10"/></g><g transform="translate(-118,-182) scale(1,1)"><path fill="none" stroke="#000000" d="M 1440 338 L 1450 328 L 1621.921875 328 L 1611.921875 338 L 1440 338" stroke-miterlimit="10"/></g><g transform="translate(-118,-182) scale(1,1)"><path fill="none" stroke="#000000" d="M 1621.921875 328 L 1611.921875 338 L 1611.921875 591 L 1621.921875 581 L 1621.921875 328" stroke-miterlimit="10"/></g><g transform="translate(-118,-182) scale(1,1)"><g><path fill="none" stroke="none"/><text fill="#000000" stroke="none" font-family="Arial" font-size="13px" font-style="normal" font-weight="normal" text-decoration="none" x="1487.81005859375" y="355.5">«DB system»</text></g></g><g transform="translate(-118,-182) scale(1,1)"><g><path fill="none" stroke="none"/><text fill="#000000" stroke="none" font-family="Arial" font-size="13px" font-style="normal" font-weight="bold" text-decoration="none" x="1498.27734375" y="370.5">MongoDb</text></g></g><g transform="translate(-118,-182) scale(1,1)"><path fill="none" stroke="#000000" d="M 1265 428 L 1407 428" stroke-miterlimit="10"/></g><g transform="translate(-118,-182) scale(1,1)"><g><path fill="none" stroke="none"/><text fill="#000000" stroke="none" font-family="Arial" font-size="13px" font-style="normal" font-weight="normal" text-decoration="none" x="1319.5" y="419.5">+SSL</text></g></g></g></svg>