<svg version="1.1" xmlns="http://www.w3.org/2000/svg" xmlns:xlink="http://www.w3.org/1999/xlink" width="549" height="1021"><defs/><g><text fill="#eeeeee" stroke="none" font-family="Arial" font-size="24px" font-style="normal" font-weight="normal" text-decoration="none" x="0" y="0">UNREGISTERED</text><text fill="#eeeeee" stroke="none" font-family="Arial" font-size="24px" font-style="normal" font-weight="normal" text-decoration="none" x="0" y="30">UNREGISTERED</text><text fill="#eeeeee" stroke="none" font-family="Arial" font-size="24px" font-style="normal" font-weight="normal" text-decoration="none" x="0" y="60">UNREGISTERED</text><text fill="#eeeeee" stroke="none" font-family="Arial" font-size="24px" font-style="normal" font-weight="normal" text-decoration="none" x="0" y="90">UNREGISTERED</text><text fill="#eeeeee" stroke="none" font-family="Arial" font-size="24px" font-style="normal" font-weight="normal" text-decoration="none" x="0" y="120">UNREGISTERED</text><text fill="#eeeeee" stroke="none" font-family="Arial" font-size="24px" font-style="normal" font-weight="normal" text-decoration="none" x="0" y="150">UNREGISTERED</text><text fill="#eeeeee" stroke="none" font-family="Arial" font-size="24px" font-style="normal" font-weight="normal" text-decoration="none" x="0" y="180">UNREGISTERED</text><text fill="#eeeeee" stroke="none" font-family="Arial" font-size="24px" font-style="normal" font-weight="normal" text-decoration="none" x="0" y="210">UNREGISTERED</text><text fill="#eeeeee" stroke="none" font-family="Arial" font-size="24px" font-style="normal" font-weight="normal" text-decoration="none" x="0" y="240">UNREGISTERED</text><text fill="#eeeeee" stroke="none" font-family="Arial" font-size="24px" font-style="normal" font-weight="normal" text-decoration="none" x="0" y="270">UNREGISTERED</text><text fill="#eeeeee" stroke="none" font-family="Arial" font-size="24px" font-style="normal" font-weight="normal" text-decoration="none" x="0" y="300">UNREGISTERED</text><text fill="#eeeeee" stroke="none" font-family="Arial" font-size="24px" font-style="normal" font-weight="normal" text-decoration="none" x="0" y="330">UNREGISTERED</text><text fill="#eeeeee" stroke="none" font-family="Arial" font-size="24px" font-style="normal" font-weight="normal" text-decoration="none" x="0" y="360">UNREGISTERED</text><text fill="#eeeeee" stroke="none" font-family="Arial" font-size="24px" font-style="normal" font-weight="normal" text-decoration="none" x="0" y="390">UNREGISTERED</text><text fill="#eeeeee" stroke="none" font-family="Arial" font-size="24px" font-style="normal" font-weight="normal" text-decoration="none" x="0" y="420">UNREGISTERED</text><text fill="#eeeeee" stroke="none" font-family="Arial" font-size="24px" font-style="normal" font-weight="normal" text-decoration="none" x="0" y="450">UNREGISTERED</text><text fill="#eeeeee" stroke="none" font-family="Arial" font-size="24px" font-style="normal" font-weight="normal" text-decoration="none" x="0" y="480">UNREGISTERED</text><text fill="#eeeeee" stroke="none" font-family="Arial" font-size="24px" font-style="normal" font-weight="normal" text-decoration="none" x="0" y="510">UNREGISTERED</text><text fill="#eeeeee" stroke="none" font-family="Arial" font-size="24px" font-style="normal" font-weight="normal" text-decoration="none" x="0" y="540">UNREGISTERED</text><text fill="#eeeeee" stroke="none" font-family="Arial" font-size="24px" font-style="normal" font-weight="normal" text-decoration="none" x="0" y="570">UNREGISTERED</text><text fill="#eeeeee" stroke="none" font-family="Arial" font-size="24px" font-style="normal" font-weight="normal" text-decoration="none" x="0" y="600">UNREGISTERED</text><text fill="#eeeeee" stroke="none" font-family="Arial" font-size="24px" font-style="normal" font-weight="normal" text-decoration="none" x="0" y="630">UNREGISTERED</text><text fill="#eeeeee" stroke="none" font-family="Arial" font-size="24px" font-style="normal" font-weight="normal" text-decoration="none" x="0" y="660">UNREGISTERED</text><text fill="#eeeeee" stroke="none" font-family="Arial" font-size="24px" font-style="normal" font-weight="normal" text-decoration="none" x="0" y="690">UNREGISTERED</text><text fill="#eeeeee" stroke="none" font-family="Arial" font-size="24px" font-style="normal" font-weight="normal" text-decoration="none" x="0" y="720">UNREGISTERED</text><text fill="#eeeeee" stroke="none" font-family="Arial" font-size="24px" font-style="normal" font-weight="normal" text-decoration="none" x="0" y="750">UNREGISTERED</text><text fill="#eeeeee" stroke="none" font-family="Arial" font-size="24px" font-style="normal" font-weight="normal" text-decoration="none" x="0" y="780">UNREGISTERED</text><text fill="#eeeeee" stroke="none" font-family="Arial" font-size="24px" font-style="normal" font-weight="normal" text-decoration="none" x="0" y="810">UNREGISTERED</text><text fill="#eeeeee" stroke="none" font-family="Arial" font-size="24px" font-style="normal" font-weight="normal" text-decoration="none" x="0" y="840">UNREGISTERED</text><text fill="#eeeeee" stroke="none" font-family="Arial" font-size="24px" font-style="normal" font-weight="normal" text-decoration="none" x="0" y="870">UNREGISTERED</text><text fill="#eeeeee" stroke="none" font-family="Arial" font-size="24px" font-style="normal" font-weight="normal" text-decoration="none" x="0" y="900">UNREGISTERED</text><text fill="#eeeeee" stroke="none" font-family="Arial" font-size="24px" font-style="normal" font-weight="normal" text-decoration="none" x="0" y="930">UNREGISTERED</text><text fill="#eeeeee" stroke="none" font-family="Arial" font-size="24px" font-style="normal" font-weight="normal" text-decoration="none" x="0" y="960">UNREGISTERED</text><text fill="#eeeeee" stroke="none" font-family="Arial" font-size="24px" font-style="normal" font-weight="normal" text-decoration="none" x="0" y="990">UNREGISTERED</text><text fill="#eeeeee" stroke="none" font-family="Arial" font-size="24px" font-style="normal" font-weight="normal" text-decoration="none" x="0" y="1020">UNREGISTERED</text><text fill="#eeeeee" stroke="none" font-family="Arial" font-size="24px" font-style="normal" font-weight="normal" text-decoration="none" x="200" y="0">UNREGISTERED</text><text fill="#eeeeee" stroke="none" font-family="Arial" font-size="24px" font-style="normal" font-weight="normal" text-decoration="none" x="200" y="30">UNREGISTERED</text><text fill="#eeeeee" stroke="none" font-family="Arial" font-size="24px" font-style="normal" font-weight="normal" text-decoration="none" x="200" y="60">UNREGISTERED</text><text fill="#eeeeee" stroke="none" font-family="Arial" font-size="24px" font-style="normal" font-weight="normal" text-decoration="none" x="200" y="90">UNREGISTERED</text><text fill="#eeeeee" stroke="none" font-family="Arial" font-size="24px" font-style="normal" font-weight="normal" text-decoration="none" x="200" y="120">UNREGISTERED</text><text fill="#eeeeee" stroke="none" font-family="Arial" font-size="24px" font-style="normal" font-weight="normal" text-decoration="none" x="200" y="150">UNREGISTERED</text><text fill="#eeeeee" stroke="none" font-family="Arial" font-size="24px" font-style="normal" font-weight="normal" text-decoration="none" x="200" y="180">UNREGISTERED</text><text fill="#eeeeee" stroke="none" font-family="Arial" font-size="24px" font-style="normal" font-weight="normal" text-decoration="none" x="200" y="210">UNREGISTERED</text><text fill="#eeeeee" stroke="none" font-family="Arial" font-size="24px" font-style="normal" font-weight="normal" text-decoration="none" x="200" y="240">UNREGISTERED</text><text fill="#eeeeee" stroke="none" font-family="Arial" font-size="24px" font-style="normal" font-weight="normal" text-decoration="none" x="200" y="270">UNREGISTERED</text><text fill="#eeeeee" stroke="none" font-family="Arial" font-size="24px" font-style="normal" font-weight="normal" text-decoration="none" x="200" y="300">UNREGISTERED</text><text fill="#eeeeee" stroke="none" font-family="Arial" font-size="24px" font-style="normal" font-weight="normal" text-decoration="none" x="200" y="330">UNREGISTERED</text><text fill="#eeeeee" stroke="none" font-family="Arial" font-size="24px" font-style="normal" font-weight="normal" text-decoration="none" x="200" y="360">UNREGISTERED</text><text fill="#eeeeee" stroke="none" font-family="Arial" font-size="24px" font-style="normal" font-weight="normal" text-decoration="none" x="200" y="390">UNREGISTERED</text><text fill="#eeeeee" stroke="none" font-family="Arial" font-size="24px" font-style="normal" font-weight="normal" text-decoration="none" x="200" y="420">UNREGISTERED</text><text fill="#eeeeee" stroke="none" font-family="Arial" font-size="24px" font-style="normal" font-weight="normal" text-decoration="none" x="200" y="450">UNREGISTERED</text><text fill="#eeeeee" stroke="none" font-family="Arial" font-size="24px" font-style="normal" font-weight="normal" text-decoration="none" x="200" y="480">UNREGISTERED</text><text fill="#eeeeee" stroke="none" font-family="Arial" font-size="24px" font-style="normal" font-weight="normal" text-decoration="none" x="200" y="510">UNREGISTERED</text><text fill="#eeeeee" stroke="none" font-family="Arial" font-size="24px" font-style="normal" font-weight="normal" text-decoration="none" x="200" y="540">UNREGISTERED</text><text fill="#eeeeee" stroke="none" font-family="Arial" font-size="24px" font-style="normal" font-weight="normal" text-decoration="none" x="200" y="570">UNREGISTERED</text><text fill="#eeeeee" stroke="none" font-family="Arial" font-size="24px" font-style="normal" font-weight="normal" text-decoration="none" x="200" y="600">UNREGISTERED</text><text fill="#eeeeee" stroke="none" font-family="Arial" font-size="24px" font-style="normal" font-weight="normal" text-decoration="none" x="200" y="630">UNREGISTERED</text><text fill="#eeeeee" stroke="none" font-family="Arial" font-size="24px" font-style="normal" font-weight="normal" text-decoration="none" x="200" y="660">UNREGISTERED</text><text fill="#eeeeee" stroke="none" font-family="Arial" font-size="24px" font-style="normal" font-weight="normal" text-decoration="none" x="200" y="690">UNREGISTERED</text><text fill="#eeeeee" stroke="none" font-family="Arial" font-size="24px" font-style="normal" font-weight="normal" text-decoration="none" x="200" y="720">UNREGISTERED</text><text fill="#eeeeee" stroke="none" font-family="Arial" font-size="24px" font-style="normal" font-weight="normal" text-decoration="none" x="200" y="750">UNREGISTERED</text><text fill="#eeeeee" stroke="none" font-family="Arial" font-size="24px" font-style="normal" font-weight="normal" text-decoration="none" x="200" y="780">UNREGISTERED</text><text fill="#eeeeee" stroke="none" font-family="Arial" font-size="24px" font-style="normal" font-weight="normal" text-decoration="none" x="200" y="810">UNREGISTERED</text><text fill="#eeeeee" stroke="none" font-family="Arial" font-size="24px" font-style="normal" font-weight="normal" text-decoration="none" x="200" y="840">UNREGISTERED</text><text fill="#eeeeee" stroke="none" font-family="Arial" font-size="24px" font-style="normal" font-weight="normal" text-decoration="none" x="200" y="870">UNREGISTERED</text><text fill="#eeeeee" stroke="none" font-family="Arial" font-size="24px" font-style="normal" font-weight="normal" text-decoration="none" x="200" y="900">UNREGISTERED</text><text fill="#eeeeee" stroke="none" font-family="Arial" font-size="24px" font-style="normal" font-weight="normal" text-decoration="none" x="200" y="930">UNREGISTERED</text><text fill="#eeeeee" stroke="none" font-family="Arial" font-size="24px" font-style="normal" font-weight="normal" text-decoration="none" x="200" y="960">UNREGISTERED</text><text fill="#eeeeee" stroke="none" font-family="Arial" font-size="24px" font-style="normal" font-weight="normal" text-decoration="none" x="200" y="990">UNREGISTERED</text><text fill="#eeeeee" stroke="none" font-family="Arial" font-size="24px" font-style="normal" font-weight="normal" text-decoration="none" x="200" y="1020">UNREGISTERED</text><text fill="#eeeeee" stroke="none" font-family="Arial" font-size="24px" font-style="normal" font-weight="normal" text-decoration="none" x="400" y="0">UNREGISTERED</text><text fill="#eeeeee" stroke="none" font-family="Arial" font-size="24px" font-style="normal" font-weight="normal" text-decoration="none" x="400" y="30">UNREGISTERED</text><text fill="#eeeeee" stroke="none" font-family="Arial" font-size="24px" font-style="normal" font-weight="normal" text-decoration="none" x="400" y="60">UNREGISTERED</text><text fill="#eeeeee" stroke="none" font-family="Arial" font-size="24px" font-style="normal" font-weight="normal" text-decoration="none" x="400" y="90">UNREGISTERED</text><text fill="#eeeeee" stroke="none" font-family="Arial" font-size="24px" font-style="normal" font-weight="normal" text-decoration="none" x="400" y="120">UNREGISTERED</text><text fill="#eeeeee" stroke="none" font-family="Arial" font-size="24px" font-style="normal" font-weight="normal" text-decoration="none" x="400" y="150">UNREGISTERED</text><text fill="#eeeeee" stroke="none" font-family="Arial" font-size="24px" font-style="normal" font-weight="normal" text-decoration="none" x="400" y="180">UNREGISTERED</text><text fill="#eeeeee" stroke="none" font-family="Arial" font-size="24px" font-style="normal" font-weight="normal" text-decoration="none" x="400" y="210">UNREGISTERED</text><text fill="#eeeeee" stroke="none" font-family="Arial" font-size="24px" font-style="normal" font-weight="normal" text-decoration="none" x="400" y="240">UNREGISTERED</text><text fill="#eeeeee" stroke="none" font-family="Arial" font-size="24px" font-style="normal" font-weight="normal" text-decoration="none" x="400" y="270">UNREGISTERED</text><text fill="#eeeeee" stroke="none" font-family="Arial" font-size="24px" font-style="normal" font-weight="normal" text-decoration="none" x="400" y="300">UNREGISTERED</text><text fill="#eeeeee" stroke="none" font-family="Arial" font-size="24px" font-style="normal" font-weight="normal" text-decoration="none" x="400" y="330">UNREGISTERED</text><text fill="#eeeeee" stroke="none" font-family="Arial" font-size="24px" font-style="normal" font-weight="normal" text-decoration="none" x="400" y="360">UNREGISTERED</text><text fill="#eeeeee" stroke="none" font-family="Arial" font-size="24px" font-style="normal" font-weight="normal" text-decoration="none" x="400" y="390">UNREGISTERED</text><text fill="#eeeeee" stroke="none" font-family="Arial" font-size="24px" font-style="normal" font-weight="normal" text-decoration="none" x="400" y="420">UNREGISTERED</text><text fill="#eeeeee" stroke="none" font-family="Arial" font-size="24px" font-style="normal" font-weight="normal" text-decoration="none" x="400" y="450">UNREGISTERED</text><text fill="#eeeeee" stroke="none" font-family="Arial" font-size="24px" font-style="normal" font-weight="normal" text-decoration="none" x="400" y="480">UNREGISTERED</text><text fill="#eeeeee" stroke="none" font-family="Arial" font-size="24px" font-style="normal" font-weight="normal" text-decoration="none" x="400" y="510">UNREGISTERED</text><text fill="#eeeeee" stroke="none" font-family="Arial" font-size="24px" font-style="normal" font-weight="normal" text-decoration="none" x="400" y="540">UNREGISTERED</text><text fill="#eeeeee" stroke="none" font-family="Arial" font-size="24px" font-style="normal" font-weight="normal" text-decoration="none" x="400" y="570">UNREGISTERED</text><text fill="#eeeeee" stroke="none" font-family="Arial" font-size="24px" font-style="normal" font-weight="normal" text-decoration="none" x="400" y="600">UNREGISTERED</text><text fill="#eeeeee" stroke="none" font-family="Arial" font-size="24px" font-style="normal" font-weight="normal" text-decoration="none" x="400" y="630">UNREGISTERED</text><text fill="#eeeeee" stroke="none" font-family="Arial" font-size="24px" font-style="normal" font-weight="normal" text-decoration="none" x="400" y="660">UNREGISTERED</text><text fill="#eeeeee" stroke="none" font-family="Arial" font-size="24px" font-style="normal" font-weight="normal" text-decoration="none" x="400" y="690">UNREGISTERED</text><text fill="#eeeeee" stroke="none" font-family="Arial" font-size="24px" font-style="normal" font-weight="normal" text-decoration="none" x="400" y="720">UNREGISTERED</text><text fill="#eeeeee" stroke="none" font-family="Arial" font-size="24px" font-style="normal" font-weight="normal" text-decoration="none" x="400" y="750">UNREGISTERED</text><text fill="#eeeeee" stroke="none" font-family="Arial" font-size="24px" font-style="normal" font-weight="normal" text-decoration="none" x="400" y="780">UNREGISTERED</text><text fill="#eeeeee" stroke="none" font-family="Arial" font-size="24px" font-style="normal" font-weight="normal" text-decoration="none" x="400" y="810">UNREGISTERED</text><text fill="#eeeeee" stroke="none" font-family="Arial" font-size="24px" font-style="normal" font-weight="normal" text-decoration="none" x="400" y="840">UNREGISTERED</text><text fill="#eeeeee" stroke="none" font-family="Arial" font-size="24px" font-style="normal" font-weight="normal" text-decoration="none" x="400" y="870">UNREGISTERED</text><text fill="#eeeeee" stroke="none" font-family="Arial" font-size="24px" font-style="normal" font-weight="normal" text-decoration="none" x="400" y="900">UNREGISTERED</text><text fill="#eeeeee" stroke="none" font-family="Arial" font-size="24px" font-style="normal" font-weight="normal" text-decoration="none" x="400" y="930">UNREGISTERED</text><text fill="#eeeeee" stroke="none" font-family="Arial" font-size="24px" font-style="normal" font-weight="normal" text-decoration="none" x="400" y="960">UNREGISTERED</text><text fill="#eeeeee" stroke="none" font-family="Arial" font-size="24px" font-style="normal" font-weight="normal" text-decoration="none" x="400" y="990">UNREGISTERED</text><text fill="#eeeeee" stroke="none" font-family="Arial" font-size="24px" font-style="normal" font-weight="normal" text-decoration="none" x="400" y="1020">UNREGISTERED</text><g transform="translate(-590,-350) scale(1,1)"><path fill="#C0C0C0" stroke="none" d="M 863 376.5 C 863 371.2532944 867.2532944 367 872.5 367 C 877.7467056 367 882 371.2532944 882 376.5 C 882 381.7467056 877.7467056 386 872.5 386 C 867.2532944 386 863 381.7467056 863 376.5 Z" opacity="0.2"/></g><g transform="translate(-590,-350) scale(1,1)"><path fill="#000000" stroke="none" d="M 856 369.5 C 856 364.2532944 860.2532944 360 865.5 360 C 870.7467056 360 875 364.2532944 875 369.5 C 875 374.7467056 870.7467056 379 865.5 379 C 860.2532944 379 856 374.7467056 856 369.5 Z"/></g><g transform="translate(-590,-350) scale(1,1)"><path fill="#C0C0C0" stroke="none" d="M 833 479 L 919.53173828125 479 Q 929.53173828125 479 929.53173828125 489 L 929.53173828125 508 Q 929.53173828125 518 919.53173828125 518 L 833 518 Q 823 518 823 508 L 823 489 Q 823 479 833 479 Z" opacity="0.2"/></g><g transform="translate(-590,-350) scale(1,1)"><path fill="#ffffff" stroke="none" d="M 826 472 L 912.53173828125 472 Q 922.53173828125 472 922.53173828125 482 L 922.53173828125 501 Q 922.53173828125 511 912.53173828125 511 L 826 511 Q 816 511 816 501 L 816 482 Q 816 472 826 472 Z"/></g><g transform="translate(-590,-350) scale(1,1)"><path fill="none" stroke="#000000" d="M 826 472 L 912.53173828125 472 Q 922.53173828125 472 922.53173828125 482 L 922.53173828125 501 Q 922.53173828125 511 912.53173828125 511 L 826 511 Q 816 511 816 501 L 816 482 Q 816 472 826 472 Z" stroke-miterlimit="10"/></g><g transform="translate(-590,-350) scale(1,1)"><g><path fill="none" stroke="none"/><text fill="#000000" stroke="none" font-family="Arial" font-size="13px" font-style="normal" font-weight="bold" text-decoration="none" x="822.65185546875" y="491.5">Camera opened</text></g></g><g transform="translate(-590,-350) scale(1,1)"><path fill="none" stroke="#000000" d="M 865 380 L 868 471" stroke-miterlimit="10"/></g><g transform="translate(-590,-350) scale(1,1)"><path fill="none" stroke="#000000" d="M 863.4579165621639 460.9815431306146 L 868 471 L 871.8723807897583 460.7041432110236" stroke-miterlimit="10"/></g><g transform="translate(-590,-350) scale(1,1)"><g><path fill="none" stroke="none"/><text fill="#000000" stroke="none" font-family="Arial" font-size="13px" font-style="normal" font-weight="normal" text-decoration="none" x="727.5" y="416.5">report section selected</text></g></g><g transform="translate(-590,-350) scale(1,1)"><path fill="#C0C0C0" stroke="none" d="M 833 599 L 915.20263671875 599 Q 925.20263671875 599 925.20263671875 609 L 925.20263671875 628 Q 925.20263671875 638 915.20263671875 638 L 833 638 Q 823 638 823 628 L 823 609 Q 823 599 833 599 Z" opacity="0.2"/></g><g transform="translate(-590,-350) scale(1,1)"><path fill="#ffffff" stroke="none" d="M 826 592 L 908.20263671875 592 Q 918.20263671875 592 918.20263671875 602 L 918.20263671875 621 Q 918.20263671875 631 908.20263671875 631 L 826 631 Q 816 631 816 621 L 816 602 Q 816 592 826 592 Z"/></g><g transform="translate(-590,-350) scale(1,1)"><path fill="none" stroke="#000000" d="M 826 592 L 908.20263671875 592 Q 918.20263671875 592 918.20263671875 602 L 918.20263671875 621 Q 918.20263671875 631 908.20263671875 631 L 826 631 Q 816 631 816 621 L 816 602 Q 816 592 826 592 Z" stroke-miterlimit="10"/></g><g transform="translate(-590,-350) scale(1,1)"><g><path fill="none" stroke="none"/><text fill="#000000" stroke="none" font-family="Arial" font-size="13px" font-style="normal" font-weight="bold" text-decoration="none" x="824.476806640625" y="611.5">confirm screen</text></g></g><g transform="translate(-590,-350) scale(1,1)"><path fill="none" stroke="#000000" d="M 869 512 L 867 591" stroke-miterlimit="10"/></g><g transform="translate(-590,-350) scale(1,1)"><path fill="none" stroke="#000000" d="M 863.0490310822491 580.7340443888079 L 867 591 L 871.465369914035 580.9471162579671" stroke-miterlimit="10"/></g><g transform="translate(-590,-350) scale(1,1)"><g><path fill="none" stroke="none"/><text fill="#000000" stroke="none" font-family="Arial" font-size="13px" font-style="normal" font-weight="normal" text-decoration="none" x="879.5" y="556.5">picture taken</text></g></g><g transform="translate(-590,-350) scale(1,1)"><path fill="#C0C0C0" stroke="none" d="M 833 703 L 923.8291015625 703 Q 933.8291015625 703 933.8291015625 713 L 933.8291015625 732 Q 933.8291015625 742 923.8291015625 742 L 833 742 Q 823 742 823 732 L 823 713 Q 823 703 833 703 Z" opacity="0.2"/></g><g transform="translate(-590,-350) scale(1,1)"><path fill="#ffffff" stroke="none" d="M 826 696 L 916.8291015625 696 Q 926.8291015625 696 926.8291015625 706 L 926.8291015625 725 Q 926.8291015625 735 916.8291015625 735 L 826 735 Q 816 735 816 725 L 816 706 Q 816 696 826 696 Z"/></g><g transform="translate(-590,-350) scale(1,1)"><path fill="none" stroke="#000000" d="M 826 696 L 916.8291015625 696 Q 926.8291015625 696 926.8291015625 706 L 926.8291015625 725 Q 926.8291015625 735 916.8291015625 735 L 826 735 Q 816 735 816 725 L 816 706 Q 816 696 826 696 Z" stroke-miterlimit="10"/></g><g transform="translate(-590,-350) scale(1,1)"><g><path fill="none" stroke="none"/><text fill="#000000" stroke="none" font-family="Arial" font-size="13px" font-style="normal" font-weight="bold" text-decoration="none" x="824.8037109375" y="715.5">brush tool mode</text></g></g><g transform="translate(-590,-350) scale(1,1)"><path fill="none" stroke="#000000" d="M 868 632 L 870 695" stroke-miterlimit="10"/></g><g transform="translate(-590,-350) scale(1,1)"><path fill="none" stroke="#000000" d="M 865.4701396909697 684.976010495782 L 870 695 L 873.8849360106323 684.7088741046816" stroke-miterlimit="10"/></g><g transform="translate(-590,-350) scale(1,1)"><g><path fill="none" stroke="none"/><text fill="#000000" stroke="none" font-family="Arial" font-size="13px" font-style="normal" font-weight="normal" text-decoration="none" x="763.5" y="672.5">picture confirmed</text></g></g><g transform="translate(-590,-350) scale(1,1)"><path fill="#C0C0C0" stroke="none" d="M 809 871 L 941.78076171875 871 Q 951.78076171875 871 951.78076171875 881 L 951.78076171875 900 Q 951.78076171875 910 941.78076171875 910 L 809 910 Q 799 910 799 900 L 799 881 Q 799 871 809 871 Z" opacity="0.2"/></g><g transform="translate(-590,-350) scale(1,1)"><path fill="#ffffff" stroke="none" d="M 802 864 L 934.78076171875 864 Q 944.78076171875 864 944.78076171875 874 L 944.78076171875 893 Q 944.78076171875 903 934.78076171875 903 L 802 903 Q 792 903 792 893 L 792 874 Q 792 864 802 864 Z"/></g><g transform="translate(-590,-350) scale(1,1)"><path fill="none" stroke="#000000" d="M 802 864 L 934.78076171875 864 Q 944.78076171875 864 944.78076171875 874 L 944.78076171875 893 Q 944.78076171875 903 934.78076171875 903 L 802 903 Q 792 903 792 893 L 792 874 Q 792 864 802 864 Z" stroke-miterlimit="10"/></g><g transform="translate(-590,-350) scale(1,1)"><g><path fill="none" stroke="none"/><text fill="#000000" stroke="none" font-family="Arial" font-size="13px" font-style="normal" font-weight="bold" text-decoration="none" x="806.61181640625" y="883.5">waiting ALPR answer</text></g></g><g transform="translate(-590,-350) scale(1,1)"><path fill="#C0C0C0" stroke="none" d="M 809 783 L 949.6708984375 783 Q 959.6708984375 783 959.6708984375 793 L 959.6708984375 812 Q 959.6708984375 822 949.6708984375 822 L 809 822 Q 799 822 799 812 L 799 793 Q 799 783 809 783 Z" opacity="0.2"/></g><g transform="translate(-590,-350) scale(1,1)"><path fill="#ffffff" stroke="none" d="M 802 776 L 942.6708984375 776 Q 952.6708984375 776 952.6708984375 786 L 952.6708984375 805 Q 952.6708984375 815 942.6708984375 815 L 802 815 Q 792 815 792 805 L 792 786 Q 792 776 802 776 Z"/></g><g transform="translate(-590,-350) scale(1,1)"><path fill="none" stroke="#000000" d="M 802 776 L 942.6708984375 776 Q 952.6708984375 776 952.6708984375 786 L 952.6708984375 805 Q 952.6708984375 815 942.6708984375 815 L 802 815 Q 792 815 792 805 L 792 786 Q 792 776 802 776 Z" stroke-miterlimit="10"/></g><g transform="translate(-590,-350) scale(1,1)"><g><path fill="none" stroke="none"/><text fill="#000000" stroke="none" font-family="Arial" font-size="13px" font-style="normal" font-weight="bold" text-decoration="none" x="802.23828125" y="795.5">sending picture to ALPR</text></g></g><g transform="translate(-590,-350) scale(1,1)"><path fill="none" stroke="#000000" d="M 871 736 L 872 775" stroke-miterlimit="10"/></g><g transform="translate(-590,-350) scale(1,1)"><path fill="none" stroke="#000000" d="M 867.5313695737947 764.9485651713802 L 872 775 L 875.9476388509854 764.732763395042" stroke-miterlimit="10"/></g><g transform="translate(-590,-350) scale(1,1)"><g><path fill="none" stroke="none"/><text fill="#000000" stroke="none" font-family="Arial" font-size="13px" font-style="normal" font-weight="normal" text-decoration="none" x="774.700439453125" y="759.5">user has done</text></g></g><g transform="translate(-590,-350) scale(1,1)"><path fill="none" stroke="#000000" d="M 871 816 L 869 863" stroke-miterlimit="10"/></g><g transform="translate(-590,-350) scale(1,1)"><path fill="none" stroke="#000000" d="M 865.2263515604047 852.6675473650087 L 869 863 L 873.6377749230393 853.0254802740569" stroke-miterlimit="10"/></g><g transform="translate(-590,-350) scale(1,1)"><g><path fill="none" stroke="none"/><text fill="#000000" stroke="none" font-family="Arial" font-size="13px" font-style="normal" font-weight="normal" text-decoration="none" x="894.5" y="847.5">pic sent</text></g></g><g transform="translate(-590,-350) scale(1,1)"><path fill="#C0C0C0" stroke="none" d="M 809 1119 L 935.97265625 1119 Q 945.97265625 1119 945.97265625 1129 L 945.97265625 1148 Q 945.97265625 1158 935.97265625 1158 L 809 1158 Q 799 1158 799 1148 L 799 1129 Q 799 1119 809 1119 Z" opacity="0.2"/></g><g transform="translate(-590,-350) scale(1,1)"><path fill="#ffffff" stroke="none" d="M 802 1112 L 928.97265625 1112 Q 938.97265625 1112 938.97265625 1122 L 938.97265625 1141 Q 938.97265625 1151 928.97265625 1151 L 802 1151 Q 792 1151 792 1141 L 792 1122 Q 792 1112 802 1112 Z"/></g><g transform="translate(-590,-350) scale(1,1)"><path fill="none" stroke="#000000" d="M 802 1112 L 928.97265625 1112 Q 938.97265625 1112 938.97265625 1122 L 938.97265625 1141 Q 938.97265625 1151 928.97265625 1151 L 802 1151 Q 792 1151 792 1141 L 792 1122 Q 792 1112 802 1112 Z" stroke-miterlimit="10"/></g><g transform="translate(-590,-350) scale(1,1)"><g><path fill="none" stroke="none"/><text fill="#000000" stroke="none" font-family="Arial" font-size="13px" font-style="normal" font-weight="bold" text-decoration="none" x="802.6318359375" y="1131.5">fill form screen shown</text></g></g><g transform="translate(-590,-350) scale(1,1)"><path fill="none" stroke="#000000" d="M 904 472 L 904 456 L 952 456 L 952 480 L 923 480" stroke-miterlimit="10"/></g><g transform="translate(-590,-350) scale(1,1)"><path fill="none" stroke="#000000" d="M 933.1626748576241 475.790482243984 L 923 480 L 933.1626748576241 484.209517756016" stroke-miterlimit="10"/></g><g transform="translate(-590,-350) scale(1,1)"><g><path fill="none" stroke="none"/><text fill="#000000" stroke="none" font-family="Arial" font-size="13px" font-style="normal" font-weight="normal" text-decoration="none" x="910.5" y="451.5">no pic taken</text></g></g><g transform="translate(-590,-350) scale(1,1)"><path fill="none" stroke="#000000" d="M 791 882 L 600 880 L 600 712 L 815 714" stroke-miterlimit="10"/></g><g transform="translate(-590,-350) scale(1,1)"><path fill="none" stroke="#000000" d="M 804.798608207971 718.1148032158931 L 815 714 L 804.8769214291093 709.6961319435217" stroke-miterlimit="10"/></g><g transform="translate(-590,-350) scale(1,1)"><g><path fill="none" stroke="none"/><text fill="#000000" stroke="none" font-family="Arial" font-size="13px" font-style="normal" font-weight="normal" text-decoration="none" x="605.5" y="704.5">multiple plates detected</text></g></g><g transform="translate(-590,-350) scale(1,1)"><path fill="none" stroke="#000000" d="M 868 904 L 869 983" stroke-miterlimit="10"/></g><g transform="translate(-590,-350) scale(1,1)"><path fill="none" stroke="#000000" d="M 864.6621883015425 972.8914199974118 L 869 983 L 873.0805494005072 972.7848584645135" stroke-miterlimit="10"/></g><g transform="translate(-590,-350) scale(1,1)"><g><path fill="none" stroke="none"/><text fill="#000000" stroke="none" font-family="Arial" font-size="13px" font-style="normal" font-weight="normal" text-decoration="none" x="887.5" y="945.5">one plate correctly detected</text></g></g><g transform="translate(-590,-350) scale(1,1)"><path fill="none" stroke="#000000" d="M 815 610 L 656 608 L 656 488 L 815 490" stroke-miterlimit="10"/></g><g transform="translate(-590,-350) scale(1,1)"><path fill="none" stroke="#000000" d="M 804.785183303799 494.08136250080963 L 815 490 L 804.8910747447358 485.6629929463418" stroke-miterlimit="10"/></g><g transform="translate(-590,-350) scale(1,1)"><g><path fill="none" stroke="none"/><text fill="#000000" stroke="none" font-family="Arial" font-size="13px" font-style="normal" font-weight="normal" text-decoration="none" x="670.5" y="475.5">picture not confirmed</text></g></g><g transform="translate(-590,-350) scale(1,1)"><path fill="none" stroke="#000000" d="M 946 885 L 1080 888 L 1080 496 L 924 492" stroke-miterlimit="10"/></g><g transform="translate(-590,-350) scale(1,1)"><path fill="none" stroke="#000000" d="M 934.267236604958 488.0523611490146 L 924 492 L 934.0514348286198 496.4686304262053" stroke-miterlimit="10"/></g><g transform="translate(-590,-350) scale(1,1)"><g><path fill="none" stroke="none"/><text fill="#000000" stroke="none" font-family="Arial" font-size="13px" font-style="normal" font-weight="normal" text-decoration="none" x="966.5" y="884.5">no plates detected</text></g></g><g transform="translate(-590,-350) scale(1,1)"><path fill="#C0C0C0" stroke="none" d="M 761 991 L 992.70263671875 991 Q 1002.70263671875 991 1002.70263671875 1001 L 1002.70263671875 1020 Q 1002.70263671875 1030 992.70263671875 1030 L 761 1030 Q 751 1030 751 1020 L 751 1001 Q 751 991 761 991 Z" opacity="0.2"/></g><g transform="translate(-590,-350) scale(1,1)"><path fill="#ffffff" stroke="none" d="M 754 984 L 985.70263671875 984 Q 995.70263671875 984 995.70263671875 994 L 995.70263671875 1013 Q 995.70263671875 1023 985.70263671875 1023 L 754 1023 Q 744 1023 744 1013 L 744 994 Q 744 984 754 984 Z"/></g><g transform="translate(-590,-350) scale(1,1)"><path fill="none" stroke="#000000" d="M 754 984 L 985.70263671875 984 Q 995.70263671875 984 995.70263671875 994 L 995.70263671875 1013 Q 995.70263671875 1023 985.70263671875 1023 L 754 1023 Q 744 1023 744 1013 L 744 994 Q 744 984 754 984 Z" stroke-miterlimit="10"/></g><g transform="translate(-590,-350) scale(1,1)"><g><path fill="none" stroke="none"/><text fill="#000000" stroke="none" font-family="Arial" font-size="13px" font-style="normal" font-weight="bold" text-decoration="none" x="757.8310546875" y="1003.5">sending location to Reverse geocoding</text></g></g><g transform="translate(-590,-350) scale(1,1)"><path fill="none" stroke="#000000" d="M 868 1024 L 866 1111" stroke-miterlimit="10"/></g><g transform="translate(-590,-350) scale(1,1)"><path fill="none" stroke="#000000" d="M 862.025157110015 1100.7432644569562 L 866 1111 L 870.4419688936638 1100.9367543830172" stroke-miterlimit="10"/></g><g transform="translate(-590,-350) scale(1,1)"><g><path fill="none" stroke="none"/><text fill="#000000" stroke="none" font-family="Arial" font-size="13px" font-style="normal" font-weight="normal" text-decoration="none" x="664.30908203125" y="1067.5">road and numb. correctly detected</text></g></g><g transform="translate(-590,-350) scale(1,1)"><path fill="#C0C0C0" stroke="none" d="M 855 1355.5 C 855 1348.59644 860.59644 1343 867.5 1343 C 874.40356 1343 880 1348.59644 880 1355.5 C 880 1362.40356 874.40356 1368 867.5 1368 C 860.59644 1368 855 1362.40356 855 1355.5 Z" opacity="0.2"/></g><g transform="translate(-590,-350) scale(1,1)"><path fill="none" stroke="#000000" d="M 848 1348.5 C 848 1341.59644 853.59644 1336 860.5 1336 C 867.40356 1336 873 1341.59644 873 1348.5 C 873 1355.40356 867.40356 1361 860.5 1361 C 853.59644 1361 848 1355.40356 848 1348.5 Z" stroke-miterlimit="10"/></g><g transform="translate(-590,-350) scale(1,1)"><path fill="#000000" stroke="none" d="M 853 1348.5 C 853 1344.357864 856.357864 1341 860.5 1341 C 864.642136 1341 868 1344.357864 868 1348.5 C 868 1352.642136 864.642136 1356 860.5 1356 C 856.357864 1356 853 1352.642136 853 1348.5 Z"/></g><g transform="translate(-590,-350) scale(1,1)"><path fill="#C0C0C0" stroke="none" d="M 825 1247 L 907.919921875 1247 Q 917.919921875 1247 917.919921875 1257 L 917.919921875 1276 Q 917.919921875 1286 907.919921875 1286 L 825 1286 Q 815 1286 815 1276 L 815 1257 Q 815 1247 825 1247 Z" opacity="0.2"/></g><g transform="translate(-590,-350) scale(1,1)"><path fill="#ffffff" stroke="none" d="M 818 1240 L 900.919921875 1240 Q 910.919921875 1240 910.919921875 1250 L 910.919921875 1269 Q 910.919921875 1279 900.919921875 1279 L 818 1279 Q 808 1279 808 1269 L 808 1250 Q 808 1240 818 1240 Z"/></g><g transform="translate(-590,-350) scale(1,1)"><path fill="none" stroke="#000000" d="M 818 1240 L 900.919921875 1240 Q 910.919921875 1240 910.919921875 1250 L 910.919921875 1269 Q 910.919921875 1279 900.919921875 1279 L 818 1279 Q 808 1279 808 1269 L 808 1250 Q 808 1240 818 1240 Z" stroke-miterlimit="10"/></g><g transform="translate(-590,-350) scale(1,1)"><g><path fill="none" stroke="none"/><text fill="#000000" stroke="none" font-family="Arial" font-size="13px" font-style="normal" font-weight="bold" text-decoration="none" x="816.4609375" y="1259.5">violation saved</text></g></g><g transform="translate(-590,-350) scale(1,1)"><path fill="none" stroke="#000000" d="M 940 1132 L 1128 1136 L 1128 488 L 924 490" stroke-miterlimit="10"/></g><g transform="translate(-590,-350) scale(1,1)"><path fill="none" stroke="#000000" d="M 934.1209186918354 485.6910552529352 L 924 490 L 934.2034542892421 494.1096861884268" stroke-miterlimit="10"/></g><g transform="translate(-590,-350) scale(1,1)"><g><path fill="none" stroke="none"/><text fill="#000000" stroke="none" font-family="Arial" font-size="13px" font-style="normal" font-weight="normal" text-decoration="none" x="992.5" y="1118.5">discard</text></g></g><g transform="translate(-590,-350) scale(1,1)"><path fill="none" stroke="#000000" d="M 864 1152 L 860 1239" stroke-miterlimit="10"/></g><g transform="translate(-590,-350) scale(1,1)"><path fill="none" stroke="#000000" d="M 856.2616807664106 1228.6547127005688 L 860 1239 L 864.6718319224398 1229.0413863169379" stroke-miterlimit="10"/></g><g transform="translate(-590,-350) scale(1,1)"><g><path fill="none" stroke="none"/><text fill="#000000" stroke="none" font-family="Arial" font-size="13px" font-style="normal" font-weight="normal" text-decoration="none" x="873.5" y="1208.5">form completly filled</text></g></g><g transform="translate(-590,-350) scale(1,1)"><path fill="none" stroke="#000000" d="M 859 1280 L 860 1335" stroke-miterlimit="10"/></g><g transform="translate(-590,-350) scale(1,1)"><path fill="none" stroke="#000000" d="M 855.6064324869807 1324.9155285459008 L 860 1335 L 864.0240767678188 1324.7624804680675" stroke-miterlimit="10"/></g></g></svg>