<svg version="1.1" xmlns="http://www.w3.org/2000/svg" xmlns:xlink="http://www.w3.org/1999/xlink" width="534.65625" height="701"><defs/><g><text fill="#eeeeee" stroke="none" font-family="Arial" font-size="24px" font-style="normal" font-weight="normal" text-decoration="none" x="0" y="0">UNREGISTERED</text><text fill="#eeeeee" stroke="none" font-family="Arial" font-size="24px" font-style="normal" font-weight="normal" text-decoration="none" x="0" y="30">UNREGISTERED</text><text fill="#eeeeee" stroke="none" font-family="Arial" font-size="24px" font-style="normal" font-weight="normal" text-decoration="none" x="0" y="60">UNREGISTERED</text><text fill="#eeeeee" stroke="none" font-family="Arial" font-size="24px" font-style="normal" font-weight="normal" text-decoration="none" x="0" y="90">UNREGISTERED</text><text fill="#eeeeee" stroke="none" font-family="Arial" font-size="24px" font-style="normal" font-weight="normal" text-decoration="none" x="0" y="120">UNREGISTERED</text><text fill="#eeeeee" stroke="none" font-family="Arial" font-size="24px" font-style="normal" font-weight="normal" text-decoration="none" x="0" y="150">UNREGISTERED</text><text fill="#eeeeee" stroke="none" font-family="Arial" font-size="24px" font-style="normal" font-weight="normal" text-decoration="none" x="0" y="180">UNREGISTERED</text><text fill="#eeeeee" stroke="none" font-family="Arial" font-size="24px" font-style="normal" font-weight="normal" text-decoration="none" x="0" y="210">UNREGISTERED</text><text fill="#eeeeee" stroke="none" font-family="Arial" font-size="24px" font-style="normal" font-weight="normal" text-decoration="none" x="0" y="240">UNREGISTERED</text><text fill="#eeeeee" stroke="none" font-family="Arial" font-size="24px" font-style="normal" font-weight="normal" text-decoration="none" x="0" y="270">UNREGISTERED</text><text fill="#eeeeee" stroke="none" font-family="Arial" font-size="24px" font-style="normal" font-weight="normal" text-decoration="none" x="0" y="300">UNREGISTERED</text><text fill="#eeeeee" stroke="none" font-family="Arial" font-size="24px" font-style="normal" font-weight="normal" text-decoration="none" x="0" y="330">UNREGISTERED</text><text fill="#eeeeee" stroke="none" font-family="Arial" font-size="24px" font-style="normal" font-weight="normal" text-decoration="none" x="0" y="360">UNREGISTERED</text><text fill="#eeeeee" stroke="none" font-family="Arial" font-size="24px" font-style="normal" font-weight="normal" text-decoration="none" x="0" y="390">UNREGISTERED</text><text fill="#eeeeee" stroke="none" font-family="Arial" font-size="24px" font-style="normal" font-weight="normal" text-decoration="none" x="0" y="420">UNREGISTERED</text><text fill="#eeeeee" stroke="none" font-family="Arial" font-size="24px" font-style="normal" font-weight="normal" text-decoration="none" x="0" y="450">UNREGISTERED</text><text fill="#eeeeee" stroke="none" font-family="Arial" font-size="24px" font-style="normal" font-weight="normal" text-decoration="none" x="0" y="480">UNREGISTERED</text><text fill="#eeeeee" stroke="none" font-family="Arial" font-size="24px" font-style="normal" font-weight="normal" text-decoration="none" x="0" y="510">UNREGISTERED</text><text fill="#eeeeee" stroke="none" font-family="Arial" font-size="24px" font-style="normal" font-weight="normal" text-decoration="none" x="0" y="540">UNREGISTERED</text><text fill="#eeeeee" stroke="none" font-family="Arial" font-size="24px" font-style="normal" font-weight="normal" text-decoration="none" x="0" y="570">UNREGISTERED</text><text fill="#eeeeee" stroke="none" font-family="Arial" font-size="24px" font-style="normal" font-weight="normal" text-decoration="none" x="0" y="600">UNREGISTERED</text><text fill="#eeeeee" stroke="none" font-family="Arial" font-size="24px" font-style="normal" font-weight="normal" text-decoration="none" x="0" y="630">UNREGISTERED</text><text fill="#eeeeee" stroke="none" font-family="Arial" font-size="24px" font-style="normal" font-weight="normal" text-decoration="none" x="0" y="660">UNREGISTERED</text><text fill="#eeeeee" stroke="none" font-family="Arial" font-size="24px" font-style="normal" font-weight="normal" text-decoration="none" x="0" y="690">UNREGISTERED</text><text fill="#eeeeee" stroke="none" font-family="Arial" font-size="24px" font-style="normal" font-weight="normal" text-decoration="none" x="200" y="0">UNREGISTERED</text><text fill="#eeeeee" stroke="none" font-family="Arial" font-size="24px" font-style="normal" font-weight="normal" text-decoration="none" x="200" y="30">UNREGISTERED</text><text fill="#eeeeee" stroke="none" font-family="Arial" font-size="24px" font-style="normal" font-weight="normal" text-decoration="none" x="200" y="60">UNREGISTERED</text><text fill="#eeeeee" stroke="none" font-family="Arial" font-size="24px" font-style="normal" font-weight="normal" text-decoration="none" x="200" y="90">UNREGISTERED</text><text fill="#eeeeee" stroke="none" font-family="Arial" font-size="24px" font-style="normal" font-weight="normal" text-decoration="none" x="200" y="120">UNREGISTERED</text><text fill="#eeeeee" stroke="none" font-family="Arial" font-size="24px" font-style="normal" font-weight="normal" text-decoration="none" x="200" y="150">UNREGISTERED</text><text fill="#eeeeee" stroke="none" font-family="Arial" font-size="24px" font-style="normal" font-weight="normal" text-decoration="none" x="200" y="180">UNREGISTERED</text><text fill="#eeeeee" stroke="none" font-family="Arial" font-size="24px" font-style="normal" font-weight="normal" text-decoration="none" x="200" y="210">UNREGISTERED</text><text fill="#eeeeee" stroke="none" font-family="Arial" font-size="24px" font-style="normal" font-weight="normal" text-decoration="none" x="200" y="240">UNREGISTERED</text><text fill="#eeeeee" stroke="none" font-family="Arial" font-size="24px" font-style="normal" font-weight="normal" text-decoration="none" x="200" y="270">UNREGISTERED</text><text fill="#eeeeee" stroke="none" font-family="Arial" font-size="24px" font-style="normal" font-weight="normal" text-decoration="none" x="200" y="300">UNREGISTERED</text><text fill="#eeeeee" stroke="none" font-family="Arial" font-size="24px" font-style="normal" font-weight="normal" text-decoration="none" x="200" y="330">UNREGISTERED</text><text fill="#eeeeee" stroke="none" font-family="Arial" font-size="24px" font-style="normal" font-weight="normal" text-decoration="none" x="200" y="360">UNREGISTERED</text><text fill="#eeeeee" stroke="none" font-family="Arial" font-size="24px" font-style="normal" font-weight="normal" text-decoration="none" x="200" y="390">UNREGISTERED</text><text fill="#eeeeee" stroke="none" font-family="Arial" font-size="24px" font-style="normal" font-weight="normal" text-decoration="none" x="200" y="420">UNREGISTERED</text><text fill="#eeeeee" stroke="none" font-family="Arial" font-size="24px" font-style="normal" font-weight="normal" text-decoration="none" x="200" y="450">UNREGISTERED</text><text fill="#eeeeee" stroke="none" font-family="Arial" font-size="24px" font-style="normal" font-weight="normal" text-decoration="none" x="200" y="480">UNREGISTERED</text><text fill="#eeeeee" stroke="none" font-family="Arial" font-size="24px" font-style="normal" font-weight="normal" text-decoration="none" x="200" y="510">UNREGISTERED</text><text fill="#eeeeee" stroke="none" font-family="Arial" font-size="24px" font-style="normal" font-weight="normal" text-decoration="none" x="200" y="540">UNREGISTERED</text><text fill="#eeeeee" stroke="none" font-family="Arial" font-size="24px" font-style="normal" font-weight="normal" text-decoration="none" x="200" y="570">UNREGISTERED</text><text fill="#eeeeee" stroke="none" font-family="Arial" font-size="24px" font-style="normal" font-weight="normal" text-decoration="none" x="200" y="600">UNREGISTERED</text><text fill="#eeeeee" stroke="none" font-family="Arial" font-size="24px" font-style="normal" font-weight="normal" text-decoration="none" x="200" y="630">UNREGISTERED</text><text fill="#eeeeee" stroke="none" font-family="Arial" font-size="24px" font-style="normal" font-weight="normal" text-decoration="none" x="200" y="660">UNREGISTERED</text><text fill="#eeeeee" stroke="none" font-family="Arial" font-size="24px" font-style="normal" font-weight="normal" text-decoration="none" x="200" y="690">UNREGISTERED</text><text fill="#eeeeee" stroke="none" font-family="Arial" font-size="24px" font-style="normal" font-weight="normal" text-decoration="none" x="400" y="0">UNREGISTERED</text><text fill="#eeeeee" stroke="none" font-family="Arial" font-size="24px" font-style="normal" font-weight="normal" text-decoration="none" x="400" y="30">UNREGISTERED</text><text fill="#eeeeee" stroke="none" font-family="Arial" font-size="24px" font-style="normal" font-weight="normal" text-decoration="none" x="400" y="60">UNREGISTERED</text><text fill="#eeeeee" stroke="none" font-family="Arial" font-size="24px" font-style="normal" font-weight="normal" text-decoration="none" x="400" y="90">UNREGISTERED</text><text fill="#eeeeee" stroke="none" font-family="Arial" font-size="24px" font-style="normal" font-weight="normal" text-decoration="none" x="400" y="120">UNREGISTERED</text><text fill="#eeeeee" stroke="none" font-family="Arial" font-size="24px" font-style="normal" font-weight="normal" text-decoration="none" x="400" y="150">UNREGISTERED</text><text fill="#eeeeee" stroke="none" font-family="Arial" font-size="24px" font-style="normal" font-weight="normal" text-decoration="none" x="400" y="180">UNREGISTERED</text><text fill="#eeeeee" stroke="none" font-family="Arial" font-size="24px" font-style="normal" font-weight="normal" text-decoration="none" x="400" y="210">UNREGISTERED</text><text fill="#eeeeee" stroke="none" font-family="Arial" font-size="24px" font-style="normal" font-weight="normal" text-decoration="none" x="400" y="240">UNREGISTERED</text><text fill="#eeeeee" stroke="none" font-family="Arial" font-size="24px" font-style="normal" font-weight="normal" text-decoration="none" x="400" y="270">UNREGISTERED</text><text fill="#eeeeee" stroke="none" font-family="Arial" font-size="24px" font-style="normal" font-weight="normal" text-decoration="none" x="400" y="300">UNREGISTERED</text><text fill="#eeeeee" stroke="none" font-family="Arial" font-size="24px" font-style="normal" font-weight="normal" text-decoration="none" x="400" y="330">UNREGISTERED</text><text fill="#eeeeee" stroke="none" font-family="Arial" font-size="24px" font-style="normal" font-weight="normal" text-decoration="none" x="400" y="360">UNREGISTERED</text><text fill="#eeeeee" stroke="none" font-family="Arial" font-size="24px" font-style="normal" font-weight="normal" text-decoration="none" x="400" y="390">UNREGISTERED</text><text fill="#eeeeee" stroke="none" font-family="Arial" font-size="24px" font-style="normal" font-weight="normal" text-decoration="none" x="400" y="420">UNREGISTERED</text><text fill="#eeeeee" stroke="none" font-family="Arial" font-size="24px" font-style="normal" font-weight="normal" text-decoration="none" x="400" y="450">UNREGISTERED</text><text fill="#eeeeee" stroke="none" font-family="Arial" font-size="24px" font-style="normal" font-weight="normal" text-decoration="none" x="400" y="480">UNREGISTERED</text><text fill="#eeeeee" stroke="none" font-family="Arial" font-size="24px" font-style="normal" font-weight="normal" text-decoration="none" x="400" y="510">UNREGISTERED</text><text fill="#eeeeee" stroke="none" font-family="Arial" font-size="24px" font-style="normal" font-weight="normal" text-decoration="none" x="400" y="540">UNREGISTERED</text><text fill="#eeeeee" stroke="none" font-family="Arial" font-size="24px" font-style="normal" font-weight="normal" text-decoration="none" x="400" y="570">UNREGISTERED</text><text fill="#eeeeee" stroke="none" font-family="Arial" font-size="24px" font-style="normal" font-weight="normal" text-decoration="none" x="400" y="600">UNREGISTERED</text><text fill="#eeeeee" stroke="none" font-family="Arial" font-size="24px" font-style="normal" font-weight="normal" text-decoration="none" x="400" y="630">UNREGISTERED</text><text fill="#eeeeee" stroke="none" font-family="Arial" font-size="24px" font-style="normal" font-weight="normal" text-decoration="none" x="400" y="660">UNREGISTERED</text><text fill="#eeeeee" stroke="none" font-family="Arial" font-size="24px" font-style="normal" font-weight="normal" text-decoration="none" x="400" y="690">UNREGISTERED</text><g transform="translate(-404,-134) scale(1,1)"><path fill="#C0C0C0" stroke="none" d="M 639 184.5 C 639 179.2532944 643.2532944 175 648.5 175 C 653.7467056 175 658 179.2532944 658 184.5 C 658 189.7467056 653.7467056 194 648.5 194 C 643.2532944 194 639 189.7467056 639 184.5 Z" opacity="0.2"/></g><g transform="translate(-404,-134) scale(1,1)"><path fill="#000000" stroke="none" d="M 632 177.5 C 632 172.2532944 636.2532944 168 641.5 168 C 646.7467056 168 651 172.2532944 651 177.5 C 651 182.7467056 646.7467056 187 641.5 187 C 636.2532944 187 632 182.7467056 632 177.5 Z"/></g><g transform="translate(-404,-134) scale(1,1)"><path fill="#C0C0C0" stroke="none" d="M 569 303 L 728.4853515625 303 Q 738.4853515625 303 738.4853515625 313 L 738.4853515625 332 Q 738.4853515625 342 728.4853515625 342 L 569 342 Q 559 342 559 332 L 559 313 Q 559 303 569 303 Z" opacity="0.2"/></g><g transform="translate(-404,-134) scale(1,1)"><path fill="#ffffff" stroke="none" d="M 562 296 L 721.4853515625 296 Q 731.4853515625 296 731.4853515625 306 L 731.4853515625 325 Q 731.4853515625 335 721.4853515625 335 L 562 335 Q 552 335 552 325 L 552 306 Q 552 296 562 296 Z"/></g><g transform="translate(-404,-134) scale(1,1)"><path fill="none" stroke="#000000" d="M 562 296 L 721.4853515625 296 Q 731.4853515625 296 731.4853515625 306 L 731.4853515625 325 Q 731.4853515625 335 721.4853515625 335 L 562 335 Q 552 335 552 325 L 552 306 Q 552 296 562 296 Z" stroke-miterlimit="10"/></g><g transform="translate(-404,-134) scale(1,1)"><g><path fill="none" stroke="none"/><text fill="#000000" stroke="none" font-family="Arial" font-size="13px" font-style="normal" font-weight="bold" text-decoration="none" x="562.971435546875" y="315.5">explore data section shown</text></g></g><g transform="translate(-404,-134) scale(1,1)"><path fill="none" stroke="#000000" d="M 641 188 L 641 295" stroke-miterlimit="10"/></g><g transform="translate(-404,-134) scale(1,1)"><path fill="none" stroke="#000000" d="M 636.790482243984 284.83732514237585 L 641 295 L 645.209517756016 284.83732514237585" stroke-miterlimit="10"/></g><g transform="translate(-404,-134) scale(1,1)"><g><path fill="none" stroke="none"/><text fill="#000000" stroke="none" font-family="Arial" font-size="13px" font-style="normal" font-weight="normal" text-decoration="none" x="599.5" y="156.5">violation added</text></g></g><g transform="translate(-404,-134) scale(1,1)"><path fill="none" stroke="#000000" d="M 641 188 L 641 295" stroke-miterlimit="10"/></g><g transform="translate(-404,-134) scale(1,1)"><path fill="none" stroke="#000000" d="M 636.790482243984 284.83732514237585 L 641 295 L 645.209517756016 284.83732514237585" stroke-miterlimit="10"/></g><g transform="translate(-404,-134) scale(1,1)"><g><path fill="none" stroke="none"/><text fill="#000000" stroke="none" font-family="Arial" font-size="13px" font-style="normal" font-weight="normal" text-decoration="none" x="654.5" y="268.5">user enters section</text></g></g><g transform="translate(-404,-134) scale(1,1)"><path fill="#C0C0C0" stroke="none" d="M 761 607 L 876.40087890625 607 Q 886.40087890625 607 886.40087890625 617 L 886.40087890625 636 Q 886.40087890625 646 876.40087890625 646 L 761 646 Q 751 646 751 636 L 751 617 Q 751 607 761 607 Z" opacity="0.2"/></g><g transform="translate(-404,-134) scale(1,1)"><path fill="#ffffff" stroke="none" d="M 754 600 L 869.40087890625 600 Q 879.40087890625 600 879.40087890625 610 L 879.40087890625 629 Q 879.40087890625 639 869.40087890625 639 L 754 639 Q 744 639 744 629 L 744 610 Q 744 600 754 600 Z"/></g><g transform="translate(-404,-134) scale(1,1)"><path fill="none" stroke="#000000" d="M 754 600 L 869.40087890625 600 Q 879.40087890625 600 879.40087890625 610 L 879.40087890625 629 Q 879.40087890625 639 869.40087890625 639 L 754 639 Q 744 639 744 629 L 744 610 Q 744 600 754 600 Z" stroke-miterlimit="10"/></g><g transform="translate(-404,-134) scale(1,1)"><g><path fill="none" stroke="none"/><text fill="#000000" stroke="none" font-family="Arial" font-size="13px" font-style="normal" font-weight="bold" text-decoration="none" x="754.37158203125" y="619.5">list offenders shown</text></g></g><g transform="translate(-404,-134) scale(1,1)"><path fill="#C0C0C0" stroke="none" d="M 473 607 L 560.236328125 607 Q 570.236328125 607 570.236328125 617 L 570.236328125 636 Q 570.236328125 646 560.236328125 646 L 473 646 Q 463 646 463 636 L 463 617 Q 463 607 473 607 Z" opacity="0.2"/></g><g transform="translate(-404,-134) scale(1,1)"><path fill="#ffffff" stroke="none" d="M 466 600 L 553.236328125 600 Q 563.236328125 600 563.236328125 610 L 563.236328125 629 Q 563.236328125 639 553.236328125 639 L 466 639 Q 456 639 456 629 L 456 610 Q 456 600 466 600 Z"/></g><g transform="translate(-404,-134) scale(1,1)"><path fill="none" stroke="#000000" d="M 466 600 L 553.236328125 600 Q 563.236328125 600 563.236328125 610 L 563.236328125 629 Q 563.236328125 639 553.236328125 639 L 466 639 Q 456 639 456 629 L 456 610 Q 456 600 466 600 Z" stroke-miterlimit="10"/></g><g transform="translate(-404,-134) scale(1,1)"><g><path fill="none" stroke="none"/><text fill="#000000" stroke="none" font-family="Arial" font-size="13px" font-style="normal" font-weight="bold" text-decoration="none" x="463.727783203125" y="619.5">heatmap shown</text></g></g><g transform="translate(-404,-134) scale(1,1)"><path fill="#C0C0C0" stroke="none" d="M 753 495 L 869.83544921875 495 Q 879.83544921875 495 879.83544921875 505 L 879.83544921875 524 Q 879.83544921875 534 869.83544921875 534 L 753 534 Q 743 534 743 524 L 743 505 Q 743 495 753 495 Z" opacity="0.2"/></g><g transform="translate(-404,-134) scale(1,1)"><path fill="#ffffff" stroke="none" d="M 746 488 L 862.83544921875 488 Q 872.83544921875 488 872.83544921875 498 L 872.83544921875 517 Q 872.83544921875 527 862.83544921875 527 L 746 527 Q 736 527 736 517 L 736 498 Q 736 488 746 488 Z"/></g><g transform="translate(-404,-134) scale(1,1)"><path fill="none" stroke="#000000" d="M 746 488 L 862.83544921875 488 Q 872.83544921875 488 872.83544921875 498 L 872.83544921875 517 Q 872.83544921875 527 862.83544921875 527 L 746 527 Q 736 527 736 517 L 736 498 Q 736 488 746 488 Z" stroke-miterlimit="10"/></g><g transform="translate(-404,-134) scale(1,1)"><g><path fill="none" stroke="none"/><text fill="#000000" stroke="none" font-family="Arial" font-size="13px" font-style="normal" font-weight="bold" text-decoration="none" x="746.241455078125" y="507.5">query of violation db</text></g></g><g transform="translate(-404,-134) scale(1,1)"><path fill="#C0C0C0" stroke="none" d="M 481 495 L 579.078125 495 Q 589.078125 495 589.078125 505 L 589.078125 524 Q 589.078125 534 579.078125 534 L 481 534 Q 471 534 471 524 L 471 505 Q 471 495 481 495 Z" opacity="0.2"/></g><g transform="translate(-404,-134) scale(1,1)"><path fill="#ffffff" stroke="none" d="M 474 488 L 572.078125 488 Q 582.078125 488 582.078125 498 L 582.078125 517 Q 582.078125 527 572.078125 527 L 474 527 Q 464 527 464 517 L 464 498 Q 464 488 474 488 Z"/></g><g transform="translate(-404,-134) scale(1,1)"><path fill="none" stroke="#000000" d="M 474 488 L 572.078125 488 Q 582.078125 488 582.078125 498 L 582.078125 517 Q 582.078125 527 572.078125 527 L 474 527 Q 464 527 464 517 L 464 498 Q 464 488 474 488 Z" stroke-miterlimit="10"/></g><g transform="translate(-404,-134) scale(1,1)"><g><path fill="none" stroke="none"/><text fill="#000000" stroke="none" font-family="Arial" font-size="13px" font-style="normal" font-weight="bold" text-decoration="none" x="471.372314453125" y="507.5">Maps API queried</text></g></g><g transform="translate(-404,-134) scale(1,1)"><path fill="none" stroke="#000000" d="M 628 336 L 535 487" stroke-miterlimit="10"/></g><g transform="translate(-404,-134) scale(1,1)"><path fill="none" stroke="#000000" d="M 536.7451731157397 476.1393199662222 L 535 487 L 543.9136842446657 480.5543632443024" stroke-miterlimit="10"/></g><g transform="translate(-404,-134) scale(1,1)"><g><path fill="none" stroke="none"/><text fill="#000000" stroke="none" font-family="Arial" font-size="13px" font-style="normal" font-weight="normal" text-decoration="none" x="455.5" y="411.5">user asks heatmap</text></g></g><g transform="translate(-404,-134) scale(1,1)"><path fill="none" stroke="#000000" d="M 659 336 L 787 487" stroke-miterlimit="10"/></g><g transform="translate(-404,-134) scale(1,1)"><path fill="none" stroke="#000000" d="M 777.2175304003459 481.9697625769907 L 787 487 L 783.6396644021215 476.52583441654514" stroke-miterlimit="10"/></g><g transform="translate(-404,-134) scale(1,1)"><g><path fill="none" stroke="none"/><text fill="#000000" stroke="none" font-family="Arial" font-size="13px" font-style="normal" font-weight="normal" text-decoration="none" x="743.5" y="413.5">user asks offenders</text></g></g><g transform="translate(-404,-134) scale(1,1)"><path fill="none" stroke="#000000" d="M 520 528 L 512 599" stroke-miterlimit="10"/></g><g transform="translate(-404,-134) scale(1,1)"><path fill="none" stroke="#000000" d="M 508.9548419024105 588.4299000874786 L 512 599 L 517.3209373853726 589.3725587334461" stroke-miterlimit="10"/></g><g transform="translate(-404,-134) scale(1,1)"><g><path fill="none" stroke="none"/><text fill="#000000" stroke="none" font-family="Arial" font-size="13px" font-style="normal" font-weight="normal" text-decoration="none" x="413.5" y="571.5">received answer</text></g></g><g transform="translate(-404,-134) scale(1,1)"><path fill="none" stroke="#000000" d="M 805 528 L 810 599" stroke-miterlimit="10"/></g><g transform="translate(-404,-134) scale(1,1)"><path fill="none" stroke="#000000" d="M 805.0869685295212 589.1581443939629 L 810 599 L 813.4852049695293 588.5667192925538" stroke-miterlimit="10"/></g><g transform="translate(-404,-134) scale(1,1)"><g><path fill="none" stroke="none"/><text fill="#000000" stroke="none" font-family="Arial" font-size="13px" font-style="normal" font-weight="normal" text-decoration="none" x="834.5" y="569.5">received answer</text></g></g><g transform="translate(-404,-134) scale(1,1)"><path fill="#C0C0C0" stroke="none" d="M 647 819.5 C 647 812.59644 652.59644 807 659.5 807 C 666.40356 807 672 812.59644 672 819.5 C 672 826.40356 666.40356 832 659.5 832 C 652.59644 832 647 826.40356 647 819.5 Z" opacity="0.2"/></g><g transform="translate(-404,-134) scale(1,1)"><path fill="none" stroke="#000000" d="M 640 812.5 C 640 805.59644 645.59644 800 652.5 800 C 659.40356 800 665 805.59644 665 812.5 C 665 819.40356 659.40356 825 652.5 825 C 645.59644 825 640 819.40356 640 812.5 Z" stroke-miterlimit="10"/></g><g transform="translate(-404,-134) scale(1,1)"><path fill="#000000" stroke="none" d="M 645 812.5 C 645 808.357864 648.357864 805 652.5 805 C 656.642136 805 660 808.357864 660 812.5 C 660 816.642136 656.642136 820 652.5 820 C 648.357864 820 645 816.642136 645 812.5 Z"/></g><g transform="translate(-404,-134) scale(1,1)"><path fill="none" stroke="#000000" d="M 525 640 L 642 799" stroke-miterlimit="10"/></g><g transform="translate(-404,-134) scale(1,1)"><path fill="none" stroke="#000000" d="M 632.5862764555601 793.3094983499819 L 642 799 L 639.3672845505921 788.31969994043" stroke-miterlimit="10"/></g><g transform="translate(-404,-134) scale(1,1)"><path fill="none" stroke="#000000" d="M 794 640 L 663 799" stroke-miterlimit="10"/></g><g transform="translate(-404,-134) scale(1,1)"><path fill="none" stroke="#000000" d="M 666.2133509146781 788.479811033107 L 663 799 L 672.7110791799548 793.8332852642469" stroke-miterlimit="10"/></g></g></svg>